G04 #@! TF.GenerationSoftware,KiCad,Pcbnew,9.0.1*
G04 #@! TF.CreationDate,2025-06-18T17:33:08-04:00*
G04 #@! TF.ProjectId,chop up the soul kanye,63686f70-2075-4702-9074-686520736f75,rev?*
G04 #@! TF.SameCoordinates,Original*
G04 #@! TF.FileFunction,Copper,L1,Top*
G04 #@! TF.FilePolarity,Positive*
%FSLAX46Y46*%
G04 Gerber Fmt 4.6, Leading zero omitted, Abs format (unit mm)*
G04 Created by KiCad (PCBNEW 9.0.1) date 2025-06-18 17:33:08*
%MOMM*%
%LPD*%
G01*
G04 APERTURE LIST*
G04 Aperture macros list*
%AMRoundRect*
0 Rectangle with rounded corners*
0 $1 Rounding radius*
0 $2 $3 $4 $5 $6 $7 $8 $9 X,Y pos of 4 corners*
0 Add a 4 corners polygon primitive as box body*
4,1,4,$2,$3,$4,$5,$6,$7,$8,$9,$2,$3,0*
0 Add four circle primitives for the rounded corners*
1,1,$1+$1,$2,$3*
1,1,$1+$1,$4,$5*
1,1,$1+$1,$6,$7*
1,1,$1+$1,$8,$9*
0 Add four rect primitives between the rounded corners*
20,1,$1+$1,$2,$3,$4,$5,0*
20,1,$1+$1,$4,$5,$6,$7,0*
20,1,$1+$1,$6,$7,$8,$9,0*
20,1,$1+$1,$8,$9,$2,$3,0*%
G04 Aperture macros list end*
%ADD10C,0.300000*%
G04 #@! TA.AperFunction,NonConductor*
%ADD11C,0.300000*%
G04 #@! TD*
G04 #@! TA.AperFunction,ComponentPad*
%ADD12R,1.600000X1.600000*%
G04 #@! TD*
G04 #@! TA.AperFunction,ComponentPad*
%ADD13O,1.600000X1.600000*%
G04 #@! TD*
G04 #@! TA.AperFunction,ComponentPad*
%ADD14C,2.200000*%
G04 #@! TD*
G04 #@! TA.AperFunction,ComponentPad*
%ADD15C,1.500000*%
G04 #@! TD*
G04 #@! TA.AperFunction,ComponentPad*
%ADD16R,2.000000X2.000000*%
G04 #@! TD*
G04 #@! TA.AperFunction,ComponentPad*
%ADD17C,2.000000*%
G04 #@! TD*
G04 #@! TA.AperFunction,ComponentPad*
%ADD18R,3.200000X2.000000*%
G04 #@! TD*
G04 #@! TA.AperFunction,ComponentPad*
%ADD19R,1.700000X1.700000*%
G04 #@! TD*
G04 #@! TA.AperFunction,ComponentPad*
%ADD20O,1.700000X1.700000*%
G04 #@! TD*
G04 #@! TA.AperFunction,SMDPad,CuDef*
%ADD21RoundRect,0.152400X0.609600X-1.063600X0.609600X1.063600X-0.609600X1.063600X-0.609600X-1.063600X0*%
G04 #@! TD*
G04 #@! TA.AperFunction,ComponentPad*
%ADD22C,1.524000*%
G04 #@! TD*
G04 #@! TA.AperFunction,SMDPad,CuDef*
%ADD23RoundRect,0.152400X-0.609600X1.063600X-0.609600X-1.063600X0.609600X-1.063600X0.609600X1.063600X0*%
G04 #@! TD*
G04 #@! TA.AperFunction,ViaPad*
%ADD24C,0.600000*%
G04 #@! TD*
G04 #@! TA.AperFunction,Conductor*
%ADD25C,0.200000*%
G04 #@! TD*
G04 APERTURE END LIST*
D10*
D11*
X179005403Y-52188328D02*
X179791118Y-51188328D01*
X179005403Y-51188328D02*
X179791118Y-52188328D01*
X180362546Y-52188328D02*
X180362546Y-51188328D01*
X180362546Y-50688328D02*
X180291118Y-50759757D01*
X180291118Y-50759757D02*
X180362546Y-50831185D01*
X180362546Y-50831185D02*
X180433975Y-50759757D01*
X180433975Y-50759757D02*
X180362546Y-50688328D01*
X180362546Y-50688328D02*
X180362546Y-50831185D01*
X181719690Y-52188328D02*
X181719690Y-51402614D01*
X181719690Y-51402614D02*
X181648261Y-51259757D01*
X181648261Y-51259757D02*
X181505404Y-51188328D01*
X181505404Y-51188328D02*
X181219690Y-51188328D01*
X181219690Y-51188328D02*
X181076832Y-51259757D01*
X181719690Y-52116900D02*
X181576832Y-52188328D01*
X181576832Y-52188328D02*
X181219690Y-52188328D01*
X181219690Y-52188328D02*
X181076832Y-52116900D01*
X181076832Y-52116900D02*
X181005404Y-51974042D01*
X181005404Y-51974042D02*
X181005404Y-51831185D01*
X181005404Y-51831185D02*
X181076832Y-51688328D01*
X181076832Y-51688328D02*
X181219690Y-51616900D01*
X181219690Y-51616900D02*
X181576832Y-51616900D01*
X181576832Y-51616900D02*
X181719690Y-51545471D01*
X182648261Y-52188328D02*
X182505404Y-52116900D01*
X182505404Y-52116900D02*
X182433975Y-52045471D01*
X182433975Y-52045471D02*
X182362547Y-51902614D01*
X182362547Y-51902614D02*
X182362547Y-51474042D01*
X182362547Y-51474042D02*
X182433975Y-51331185D01*
X182433975Y-51331185D02*
X182505404Y-51259757D01*
X182505404Y-51259757D02*
X182648261Y-51188328D01*
X182648261Y-51188328D02*
X182862547Y-51188328D01*
X182862547Y-51188328D02*
X183005404Y-51259757D01*
X183005404Y-51259757D02*
X183076833Y-51331185D01*
X183076833Y-51331185D02*
X183148261Y-51474042D01*
X183148261Y-51474042D02*
X183148261Y-51902614D01*
X183148261Y-51902614D02*
X183076833Y-52045471D01*
X183076833Y-52045471D02*
X183005404Y-52116900D01*
X183005404Y-52116900D02*
X182862547Y-52188328D01*
X182862547Y-52188328D02*
X182648261Y-52188328D01*
D12*
G04 #@! TO.P,D10,1,K*
G04 #@! TO.N,row 2*
X119191487Y-87500000D03*
D13*
G04 #@! TO.P,D10,2,A*
G04 #@! TO.N,Net-(D10-A)*
X126811487Y-87500000D03*
G04 #@! TD*
D12*
G04 #@! TO.P,D6,1,K*
G04 #@! TO.N,row 2*
X139191487Y-134000000D03*
D13*
G04 #@! TO.P,D6,2,A*
G04 #@! TO.N,Net-(D6-A)*
X146811487Y-134000000D03*
G04 #@! TD*
D12*
G04 #@! TO.P,D4,1,K*
G04 #@! TO.N,row 1*
X117691487Y-134500000D03*
D13*
G04 #@! TO.P,D4,2,A*
G04 #@! TO.N,Net-(D4-A)*
X125311487Y-134500000D03*
G04 #@! TD*
D14*
G04 #@! TO.P,SW9,1,1*
G04 #@! TO.N,column 0*
X162811487Y-117510000D03*
G04 #@! TO.P,SW9,2,2*
G04 #@! TO.N,Net-(D8-A)*
X156461487Y-120050000D03*
G04 #@! TD*
G04 #@! TO.P,SW7,1,1*
G04 #@! TO.N,column 1*
X143811487Y-117420000D03*
G04 #@! TO.P,SW7,2,2*
G04 #@! TO.N,Net-(D6-A)*
X137461487Y-119960000D03*
G04 #@! TD*
D15*
G04 #@! TO.P,SW1,*
G04 #@! TO.N,*
X174686487Y-70170000D03*
X174686487Y-75170000D03*
D16*
G04 #@! TO.P,SW1,A,A*
G04 #@! TO.N,ENC_A*
X160186487Y-70170000D03*
D17*
G04 #@! TO.P,SW1,B,B*
G04 #@! TO.N,ENC_B*
X160186487Y-75170000D03*
G04 #@! TO.P,SW1,C,C*
G04 #@! TO.N,gnd*
X160186487Y-72670000D03*
D18*
G04 #@! TO.P,SW1,MP*
G04 #@! TO.N,N/C*
X167686487Y-67070000D03*
X167686487Y-78270000D03*
G04 #@! TD*
D12*
G04 #@! TO.P,D9,1,K*
G04 #@! TO.N,row 1*
X139191487Y-88000000D03*
D13*
G04 #@! TO.P,D9,2,A*
G04 #@! TO.N,Net-(D9-A)*
X146811487Y-88000000D03*
G04 #@! TD*
D14*
G04 #@! TO.P,SW6,1,1*
G04 #@! TO.N,column 2*
X143851487Y-94000000D03*
G04 #@! TO.P,SW6,2,2*
G04 #@! TO.N,Net-(D5-A)*
X137501487Y-96540000D03*
G04 #@! TD*
G04 #@! TO.P,SW8,1,1*
G04 #@! TO.N,column 2*
X162851487Y-94090000D03*
G04 #@! TO.P,SW8,2,2*
G04 #@! TO.N,Net-(D7-A)*
X156501487Y-96630000D03*
G04 #@! TD*
G04 #@! TO.P,SW3,1,1*
G04 #@! TO.N,column 1*
X124501487Y-94000000D03*
G04 #@! TO.P,SW3,2,2*
G04 #@! TO.N,Net-(D2-A)*
X118151487Y-96540000D03*
G04 #@! TD*
D12*
G04 #@! TO.P,D2,1,K*
G04 #@! TO.N,row 0*
X118691487Y-111000000D03*
D13*
G04 #@! TO.P,D2,2,A*
G04 #@! TO.N,Net-(D2-A)*
X126311487Y-111000000D03*
G04 #@! TD*
D12*
G04 #@! TO.P,D8,1,K*
G04 #@! TO.N,row 0*
X157691487Y-134000000D03*
D13*
G04 #@! TO.P,D8,2,A*
G04 #@! TO.N,Net-(D8-A)*
X165311487Y-134000000D03*
G04 #@! TD*
D12*
G04 #@! TO.P,D7,1,K*
G04 #@! TO.N,row 2*
X157191487Y-110500000D03*
D13*
G04 #@! TO.P,D7,2,A*
G04 #@! TO.N,Net-(D7-A)*
X164811487Y-110500000D03*
G04 #@! TD*
D14*
G04 #@! TO.P,SW11,1,1*
G04 #@! TO.N,column 0*
X124461487Y-70920000D03*
G04 #@! TO.P,SW11,2,2*
G04 #@! TO.N,Net-(D10-A)*
X118111487Y-73460000D03*
G04 #@! TD*
D19*
G04 #@! TO.P,J1,1,Pin_1*
G04 #@! TO.N,gnd*
X158311487Y-48960000D03*
D20*
G04 #@! TO.P,J1,2,Pin_2*
G04 #@! TO.N,power*
X158311487Y-51500000D03*
G04 #@! TO.P,J1,3,Pin_3*
G04 #@! TO.N,scl*
X158311487Y-54040000D03*
G04 #@! TO.P,J1,4,Pin_4*
G04 #@! TO.N,sda*
X158311487Y-56580000D03*
G04 #@! TD*
D21*
G04 #@! TO.P,U1,1,GPIO26/ADC0/A0*
G04 #@! TO.N,unconnected-(U1-GPIO26{slash}ADC0{slash}A0-Pad1)*
X182311487Y-41925000D03*
D22*
X182311487Y-42760000D03*
D21*
G04 #@! TO.P,U1,2,GPIO27/ADC1/A1*
G04 #@! TO.N,column 0*
X179771487Y-41925000D03*
D22*
X179771487Y-42760000D03*
D21*
G04 #@! TO.P,U1,3,GPIO28/ADC2/A2*
G04 #@! TO.N,column 1*
X177231487Y-41925000D03*
D22*
X177231487Y-42760000D03*
D21*
G04 #@! TO.P,U1,4,GPIO29/ADC3/A3*
G04 #@! TO.N,column 2*
X174691487Y-41925000D03*
D22*
X174691487Y-42760000D03*
D21*
G04 #@! TO.P,U1,5,GPIO6/SDA*
G04 #@! TO.N,sda*
X172151487Y-41925000D03*
D22*
X172151487Y-42760000D03*
D21*
G04 #@! TO.P,U1,6,GPIO7/SCL*
G04 #@! TO.N,scl*
X169611487Y-41925000D03*
D22*
X169611487Y-42760000D03*
D21*
G04 #@! TO.P,U1,7,GPIO0/TX*
G04 #@! TO.N,ENC_A*
X167071487Y-41925000D03*
D22*
X167071487Y-42760000D03*
G04 #@! TO.P,U1,8,GPIO1/RX*
G04 #@! TO.N,ENC_B*
X167071487Y-58000000D03*
D23*
X167071487Y-58835000D03*
D22*
G04 #@! TO.P,U1,9,GPIO2/SCK*
G04 #@! TO.N,row 2*
X169611487Y-58000000D03*
D23*
X169611487Y-58835000D03*
D22*
G04 #@! TO.P,U1,10,GPIO4/MISO*
G04 #@! TO.N,row 1*
X172151487Y-58000000D03*
D23*
X172151487Y-58835000D03*
D22*
G04 #@! TO.P,U1,11,GPIO3/MOSI*
G04 #@! TO.N,row 0*
X174691487Y-58000000D03*
D23*
X174691487Y-58835000D03*
D22*
G04 #@! TO.P,U1,12,3V3*
G04 #@! TO.N,unconnected-(U1-3V3-Pad12)*
X177231487Y-58000000D03*
D23*
X177231487Y-58835000D03*
D22*
G04 #@! TO.P,U1,13,GND*
G04 #@! TO.N,gnd*
X179771487Y-58000000D03*
D23*
X179771487Y-58835000D03*
D22*
G04 #@! TO.P,U1,14,VBUS*
G04 #@! TO.N,power*
X182311487Y-58000000D03*
D23*
X182311487Y-58835000D03*
G04 #@! TD*
D14*
G04 #@! TO.P,SW5,1,1*
G04 #@! TO.N,column 1*
X124461487Y-117420000D03*
G04 #@! TO.P,SW5,2,2*
G04 #@! TO.N,Net-(D4-A)*
X118111487Y-119960000D03*
G04 #@! TD*
D12*
G04 #@! TO.P,D5,1,K*
G04 #@! TO.N,row 1*
X138691487Y-110500000D03*
D13*
G04 #@! TO.P,D5,2,A*
G04 #@! TO.N,Net-(D5-A)*
X146311487Y-110500000D03*
G04 #@! TD*
D14*
G04 #@! TO.P,SW10,1,1*
G04 #@! TO.N,column 0*
X143461487Y-70920000D03*
G04 #@! TO.P,SW10,2,2*
G04 #@! TO.N,Net-(D9-A)*
X137111487Y-73460000D03*
G04 #@! TD*
D24*
G04 #@! TO.N,row 1*
X140493750Y-92868750D03*
G04 #@! TO.N,column 2*
X176212500Y-45243750D03*
G04 #@! TD*
D25*
G04 #@! TO.N,row 0*
X158885487Y-70806000D02*
X158885487Y-68869000D01*
X156590487Y-132899000D02*
X141921801Y-132899000D01*
X157691487Y-134000000D02*
X156590487Y-132899000D01*
X173417117Y-60352000D02*
X174691487Y-59077630D01*
X120022801Y-111000000D02*
X118691487Y-111000000D01*
X167402487Y-60352000D02*
X173417117Y-60352000D01*
X141921801Y-132899000D02*
X120022801Y-111000000D01*
X118691487Y-111000000D02*
X158885487Y-70806000D01*
X158885487Y-68869000D02*
X167402487Y-60352000D01*
X174691487Y-59077630D02*
X174691487Y-58000000D01*
G04 #@! TO.N,row 1*
X172151487Y-58000000D02*
X171088487Y-56937000D01*
X148161887Y-75406290D02*
X148161887Y-79029600D01*
X166631177Y-56937000D02*
X148161887Y-75406290D01*
X138691487Y-98375184D02*
X140493750Y-96572921D01*
X148161887Y-79029600D02*
X139191487Y-88000000D01*
X140493750Y-96572921D02*
X140493750Y-92868750D01*
X171088487Y-56937000D02*
X166631177Y-56937000D01*
X138691487Y-110500000D02*
X138691487Y-98375184D01*
G04 #@! TO.N,column 1*
X146342487Y-73649000D02*
X139947671Y-73649000D01*
X124501487Y-99864816D02*
X124501487Y-94000000D01*
X117590487Y-106775816D02*
X124501487Y-99864816D01*
X139947671Y-73649000D02*
X127912487Y-85684184D01*
X127912487Y-90589000D02*
X124501487Y-94000000D01*
X117590487Y-112104634D02*
X117590487Y-106775816D01*
X124461487Y-117420000D02*
X122905853Y-117420000D01*
X127912487Y-85684184D02*
X127912487Y-90589000D01*
X122905853Y-117420000D02*
X117590487Y-112104634D01*
X177231487Y-42760000D02*
X146342487Y-73649000D01*
G04 #@! TO.N,column 2*
X162851487Y-94090000D02*
X143941487Y-94090000D01*
X143941487Y-94090000D02*
X143851487Y-94000000D01*
X162851487Y-94090000D02*
X176168487Y-80773000D01*
X176168487Y-80773000D02*
X176168487Y-45287763D01*
X176168487Y-45287763D02*
X176212500Y-45243750D01*
G04 #@! TO.N,column 0*
X124461487Y-70920000D02*
X143461487Y-70920000D01*
X178033113Y-40408000D02*
X154973487Y-40408000D01*
X176168487Y-43200310D02*
X176168487Y-40669374D01*
X179771487Y-42760000D02*
X179771487Y-42146374D01*
X143461487Y-70920000D02*
X148448797Y-70920000D01*
X154973487Y-40408000D02*
X124461487Y-70920000D01*
X176429861Y-40408000D02*
X178033113Y-40408000D01*
X178294487Y-40669374D02*
X178294487Y-102027000D01*
X178033113Y-40408000D02*
X178294487Y-40669374D01*
X178294487Y-102027000D02*
X162811487Y-117510000D01*
X176168487Y-40669374D02*
X176429861Y-40408000D01*
X148448797Y-70920000D02*
X176168487Y-43200310D01*
X179771487Y-42146374D02*
X178033113Y-40408000D01*
G04 #@! TD*
M02*
