%TF.GenerationSoftware,KiCad,Pcbnew,9.0.1*%
%TF.CreationDate,2025-06-18T17:33:09-04:00*%
%TF.ProjectId,chop up the soul kanye,63686f70-2075-4702-9074-686520736f75,rev?*%
%TF.SameCoordinates,Original*%
%TF.FileFunction,Drillmap*%
%TF.FilePolarity,Positive*%
%FSLAX45Y45*%
G04 Gerber Fmt 4.5, Leading zero omitted, Abs format (unit mm)*
G04 Created by KiCad (PCBNEW 9.0.1) date 2025-06-18 17:33:09*
%MOMM*%
%LPD*%
G01*
G04 APERTURE LIST*
%ADD10C,0.050000*%
%ADD11C,0.200000*%
%ADD12C,0.170000*%
%ADD13C,0.400000*%
G04 APERTURE END LIST*
D10*
X10968851Y-3936341D02*
X18531149Y-3936341D01*
X18531149Y-13863659D01*
X10968851Y-13863659D01*
X10968851Y-3936341D01*
D11*
D12*
X11599149Y-7515000D02*
X11769149Y-7685000D01*
X11769149Y-7515000D02*
X11599149Y-7685000D01*
X11599149Y-12165000D02*
X11769149Y-12335000D01*
X11769149Y-12165000D02*
X11599149Y-12335000D01*
X11603149Y-9823000D02*
X11773149Y-9993000D01*
X11773149Y-9823000D02*
X11603149Y-9993000D01*
X12615149Y-7515000D02*
X12785149Y-7685000D01*
X12785149Y-7515000D02*
X12615149Y-7685000D01*
X12615149Y-12165000D02*
X12785149Y-12335000D01*
X12785149Y-12165000D02*
X12615149Y-12335000D01*
X12619149Y-9823000D02*
X12789149Y-9993000D01*
X12789149Y-9823000D02*
X12619149Y-9993000D01*
X13499149Y-7515000D02*
X13669149Y-7685000D01*
X13669149Y-7515000D02*
X13499149Y-7685000D01*
X13534149Y-12165000D02*
X13704149Y-12335000D01*
X13704149Y-12165000D02*
X13534149Y-12335000D01*
X13538149Y-9823000D02*
X13708149Y-9993000D01*
X13708149Y-9823000D02*
X13538149Y-9993000D01*
X14515149Y-7515000D02*
X14685149Y-7685000D01*
X14685149Y-7515000D02*
X14515149Y-7685000D01*
X14550149Y-12165000D02*
X14720149Y-12335000D01*
X14720149Y-12165000D02*
X14550149Y-12335000D01*
X14554149Y-9823000D02*
X14724149Y-9993000D01*
X14724149Y-9823000D02*
X14554149Y-9993000D01*
X15434149Y-12174000D02*
X15604149Y-12344000D01*
X15604149Y-12174000D02*
X15434149Y-12344000D01*
X15438149Y-9832000D02*
X15608149Y-10002000D01*
X15608149Y-9832000D02*
X15438149Y-10002000D01*
X16450149Y-12174000D02*
X16620149Y-12344000D01*
X16620149Y-12174000D02*
X16450149Y-12344000D01*
X16454149Y-9832000D02*
X16624149Y-10002000D01*
X16624149Y-9832000D02*
X16454149Y-10002000D01*
D13*
X12392149Y-7600000D02*
G75*
G02*
X11992149Y-7600000I-200000J0D01*
G01*
X11992149Y-7600000D02*
G75*
G02*
X12392149Y-7600000I200000J0D01*
G01*
X12392149Y-12250000D02*
G75*
G02*
X11992149Y-12250000I-200000J0D01*
G01*
X11992149Y-12250000D02*
G75*
G02*
X12392149Y-12250000I200000J0D01*
G01*
X12396149Y-9908000D02*
G75*
G02*
X11996149Y-9908000I-200000J0D01*
G01*
X11996149Y-9908000D02*
G75*
G02*
X12396149Y-9908000I200000J0D01*
G01*
X14292149Y-7600000D02*
G75*
G02*
X13892149Y-7600000I-200000J0D01*
G01*
X13892149Y-7600000D02*
G75*
G02*
X14292149Y-7600000I200000J0D01*
G01*
X14327149Y-12250000D02*
G75*
G02*
X13927149Y-12250000I-200000J0D01*
G01*
X13927149Y-12250000D02*
G75*
G02*
X14327149Y-12250000I200000J0D01*
G01*
X14331149Y-9908000D02*
G75*
G02*
X13931149Y-9908000I-200000J0D01*
G01*
X13931149Y-9908000D02*
G75*
G02*
X14331149Y-9908000I200000J0D01*
G01*
X16227149Y-12259000D02*
G75*
G02*
X15827149Y-12259000I-200000J0D01*
G01*
X15827149Y-12259000D02*
G75*
G02*
X16227149Y-12259000I200000J0D01*
G01*
X16231149Y-9917000D02*
G75*
G02*
X15831149Y-9917000I-200000J0D01*
G01*
X15831149Y-9917000D02*
G75*
G02*
X16231149Y-9917000I200000J0D01*
G01*
D11*
X11227128Y-14177643D02*
X11227128Y-13977643D01*
X11227128Y-13977643D02*
X11274747Y-13977643D01*
X11274747Y-13977643D02*
X11303319Y-13987166D01*
X11303319Y-13987166D02*
X11322366Y-14006214D01*
X11322366Y-14006214D02*
X11331890Y-14025262D01*
X11331890Y-14025262D02*
X11341414Y-14063357D01*
X11341414Y-14063357D02*
X11341414Y-14091928D01*
X11341414Y-14091928D02*
X11331890Y-14130023D01*
X11331890Y-14130023D02*
X11322366Y-14149071D01*
X11322366Y-14149071D02*
X11303319Y-14168119D01*
X11303319Y-14168119D02*
X11274747Y-14177643D01*
X11274747Y-14177643D02*
X11227128Y-14177643D01*
X11427128Y-14177643D02*
X11427128Y-14044309D01*
X11427128Y-14082404D02*
X11436652Y-14063357D01*
X11436652Y-14063357D02*
X11446176Y-14053833D01*
X11446176Y-14053833D02*
X11465223Y-14044309D01*
X11465223Y-14044309D02*
X11484271Y-14044309D01*
X11550938Y-14177643D02*
X11550938Y-14044309D01*
X11550938Y-13977643D02*
X11541414Y-13987166D01*
X11541414Y-13987166D02*
X11550938Y-13996690D01*
X11550938Y-13996690D02*
X11560461Y-13987166D01*
X11560461Y-13987166D02*
X11550938Y-13977643D01*
X11550938Y-13977643D02*
X11550938Y-13996690D01*
X11674747Y-14177643D02*
X11655700Y-14168119D01*
X11655700Y-14168119D02*
X11646176Y-14149071D01*
X11646176Y-14149071D02*
X11646176Y-13977643D01*
X11779509Y-14177643D02*
X11760461Y-14168119D01*
X11760461Y-14168119D02*
X11750938Y-14149071D01*
X11750938Y-14149071D02*
X11750938Y-13977643D01*
X12008081Y-14177643D02*
X12008081Y-13977643D01*
X12008081Y-13977643D02*
X12074747Y-14120500D01*
X12074747Y-14120500D02*
X12141414Y-13977643D01*
X12141414Y-13977643D02*
X12141414Y-14177643D01*
X12322366Y-14177643D02*
X12322366Y-14072881D01*
X12322366Y-14072881D02*
X12312842Y-14053833D01*
X12312842Y-14053833D02*
X12293795Y-14044309D01*
X12293795Y-14044309D02*
X12255700Y-14044309D01*
X12255700Y-14044309D02*
X12236652Y-14053833D01*
X12322366Y-14168119D02*
X12303319Y-14177643D01*
X12303319Y-14177643D02*
X12255700Y-14177643D01*
X12255700Y-14177643D02*
X12236652Y-14168119D01*
X12236652Y-14168119D02*
X12227128Y-14149071D01*
X12227128Y-14149071D02*
X12227128Y-14130023D01*
X12227128Y-14130023D02*
X12236652Y-14110976D01*
X12236652Y-14110976D02*
X12255700Y-14101452D01*
X12255700Y-14101452D02*
X12303319Y-14101452D01*
X12303319Y-14101452D02*
X12322366Y-14091928D01*
X12417604Y-14044309D02*
X12417604Y-14244309D01*
X12417604Y-14053833D02*
X12436652Y-14044309D01*
X12436652Y-14044309D02*
X12474747Y-14044309D01*
X12474747Y-14044309D02*
X12493795Y-14053833D01*
X12493795Y-14053833D02*
X12503319Y-14063357D01*
X12503319Y-14063357D02*
X12512842Y-14082404D01*
X12512842Y-14082404D02*
X12512842Y-14139547D01*
X12512842Y-14139547D02*
X12503319Y-14158595D01*
X12503319Y-14158595D02*
X12493795Y-14168119D01*
X12493795Y-14168119D02*
X12474747Y-14177643D01*
X12474747Y-14177643D02*
X12436652Y-14177643D01*
X12436652Y-14177643D02*
X12417604Y-14168119D01*
X12598557Y-14158595D02*
X12608081Y-14168119D01*
X12608081Y-14168119D02*
X12598557Y-14177643D01*
X12598557Y-14177643D02*
X12589033Y-14168119D01*
X12589033Y-14168119D02*
X12598557Y-14158595D01*
X12598557Y-14158595D02*
X12598557Y-14177643D01*
X12598557Y-14053833D02*
X12608081Y-14063357D01*
X12608081Y-14063357D02*
X12598557Y-14072881D01*
X12598557Y-14072881D02*
X12589033Y-14063357D01*
X12589033Y-14063357D02*
X12598557Y-14053833D01*
X12598557Y-14053833D02*
X12598557Y-14072881D01*
D12*
X10796351Y-14421159D02*
X10966351Y-14591159D01*
X10966351Y-14421159D02*
X10796351Y-14591159D01*
D11*
X11331890Y-14597643D02*
X11217604Y-14597643D01*
X11274747Y-14597643D02*
X11274747Y-14397643D01*
X11274747Y-14397643D02*
X11255700Y-14426214D01*
X11255700Y-14426214D02*
X11236652Y-14445262D01*
X11236652Y-14445262D02*
X11217604Y-14454785D01*
X11417604Y-14578595D02*
X11427128Y-14588119D01*
X11427128Y-14588119D02*
X11417604Y-14597643D01*
X11417604Y-14597643D02*
X11408081Y-14588119D01*
X11408081Y-14588119D02*
X11417604Y-14578595D01*
X11417604Y-14578595D02*
X11417604Y-14597643D01*
X11493795Y-14397643D02*
X11627128Y-14397643D01*
X11627128Y-14397643D02*
X11541414Y-14597643D01*
X11741414Y-14397643D02*
X11760462Y-14397643D01*
X11760462Y-14397643D02*
X11779509Y-14407166D01*
X11779509Y-14407166D02*
X11789033Y-14416690D01*
X11789033Y-14416690D02*
X11798557Y-14435738D01*
X11798557Y-14435738D02*
X11808081Y-14473833D01*
X11808081Y-14473833D02*
X11808081Y-14521452D01*
X11808081Y-14521452D02*
X11798557Y-14559547D01*
X11798557Y-14559547D02*
X11789033Y-14578595D01*
X11789033Y-14578595D02*
X11779509Y-14588119D01*
X11779509Y-14588119D02*
X11760462Y-14597643D01*
X11760462Y-14597643D02*
X11741414Y-14597643D01*
X11741414Y-14597643D02*
X11722366Y-14588119D01*
X11722366Y-14588119D02*
X11712842Y-14578595D01*
X11712842Y-14578595D02*
X11703319Y-14559547D01*
X11703319Y-14559547D02*
X11693795Y-14521452D01*
X11693795Y-14521452D02*
X11693795Y-14473833D01*
X11693795Y-14473833D02*
X11703319Y-14435738D01*
X11703319Y-14435738D02*
X11712842Y-14416690D01*
X11712842Y-14416690D02*
X11722366Y-14407166D01*
X11722366Y-14407166D02*
X11741414Y-14397643D01*
X11931890Y-14397643D02*
X11950938Y-14397643D01*
X11950938Y-14397643D02*
X11969985Y-14407166D01*
X11969985Y-14407166D02*
X11979509Y-14416690D01*
X11979509Y-14416690D02*
X11989033Y-14435738D01*
X11989033Y-14435738D02*
X11998557Y-14473833D01*
X11998557Y-14473833D02*
X11998557Y-14521452D01*
X11998557Y-14521452D02*
X11989033Y-14559547D01*
X11989033Y-14559547D02*
X11979509Y-14578595D01*
X11979509Y-14578595D02*
X11969985Y-14588119D01*
X11969985Y-14588119D02*
X11950938Y-14597643D01*
X11950938Y-14597643D02*
X11931890Y-14597643D01*
X11931890Y-14597643D02*
X11912842Y-14588119D01*
X11912842Y-14588119D02*
X11903319Y-14578595D01*
X11903319Y-14578595D02*
X11893795Y-14559547D01*
X11893795Y-14559547D02*
X11884271Y-14521452D01*
X11884271Y-14521452D02*
X11884271Y-14473833D01*
X11884271Y-14473833D02*
X11893795Y-14435738D01*
X11893795Y-14435738D02*
X11903319Y-14416690D01*
X11903319Y-14416690D02*
X11912842Y-14407166D01*
X11912842Y-14407166D02*
X11931890Y-14397643D01*
X12084271Y-14597643D02*
X12084271Y-14464309D01*
X12084271Y-14483357D02*
X12093795Y-14473833D01*
X12093795Y-14473833D02*
X12112842Y-14464309D01*
X12112842Y-14464309D02*
X12141414Y-14464309D01*
X12141414Y-14464309D02*
X12160462Y-14473833D01*
X12160462Y-14473833D02*
X12169985Y-14492881D01*
X12169985Y-14492881D02*
X12169985Y-14597643D01*
X12169985Y-14492881D02*
X12179509Y-14473833D01*
X12179509Y-14473833D02*
X12198557Y-14464309D01*
X12198557Y-14464309D02*
X12227128Y-14464309D01*
X12227128Y-14464309D02*
X12246176Y-14473833D01*
X12246176Y-14473833D02*
X12255700Y-14492881D01*
X12255700Y-14492881D02*
X12255700Y-14597643D01*
X12350938Y-14597643D02*
X12350938Y-14464309D01*
X12350938Y-14483357D02*
X12360462Y-14473833D01*
X12360462Y-14473833D02*
X12379509Y-14464309D01*
X12379509Y-14464309D02*
X12408081Y-14464309D01*
X12408081Y-14464309D02*
X12427128Y-14473833D01*
X12427128Y-14473833D02*
X12436652Y-14492881D01*
X12436652Y-14492881D02*
X12436652Y-14597643D01*
X12436652Y-14492881D02*
X12446176Y-14473833D01*
X12446176Y-14473833D02*
X12465223Y-14464309D01*
X12465223Y-14464309D02*
X12493795Y-14464309D01*
X12493795Y-14464309D02*
X12512843Y-14473833D01*
X12512843Y-14473833D02*
X12522366Y-14492881D01*
X12522366Y-14492881D02*
X12522366Y-14597643D01*
X12912843Y-14388119D02*
X12741414Y-14645262D01*
X13169985Y-14397643D02*
X13189033Y-14397643D01*
X13189033Y-14397643D02*
X13208081Y-14407166D01*
X13208081Y-14407166D02*
X13217605Y-14416690D01*
X13217605Y-14416690D02*
X13227128Y-14435738D01*
X13227128Y-14435738D02*
X13236652Y-14473833D01*
X13236652Y-14473833D02*
X13236652Y-14521452D01*
X13236652Y-14521452D02*
X13227128Y-14559547D01*
X13227128Y-14559547D02*
X13217605Y-14578595D01*
X13217605Y-14578595D02*
X13208081Y-14588119D01*
X13208081Y-14588119D02*
X13189033Y-14597643D01*
X13189033Y-14597643D02*
X13169985Y-14597643D01*
X13169985Y-14597643D02*
X13150938Y-14588119D01*
X13150938Y-14588119D02*
X13141414Y-14578595D01*
X13141414Y-14578595D02*
X13131890Y-14559547D01*
X13131890Y-14559547D02*
X13122366Y-14521452D01*
X13122366Y-14521452D02*
X13122366Y-14473833D01*
X13122366Y-14473833D02*
X13131890Y-14435738D01*
X13131890Y-14435738D02*
X13141414Y-14416690D01*
X13141414Y-14416690D02*
X13150938Y-14407166D01*
X13150938Y-14407166D02*
X13169985Y-14397643D01*
X13322366Y-14578595D02*
X13331890Y-14588119D01*
X13331890Y-14588119D02*
X13322366Y-14597643D01*
X13322366Y-14597643D02*
X13312843Y-14588119D01*
X13312843Y-14588119D02*
X13322366Y-14578595D01*
X13322366Y-14578595D02*
X13322366Y-14597643D01*
X13455700Y-14397643D02*
X13474747Y-14397643D01*
X13474747Y-14397643D02*
X13493795Y-14407166D01*
X13493795Y-14407166D02*
X13503319Y-14416690D01*
X13503319Y-14416690D02*
X13512843Y-14435738D01*
X13512843Y-14435738D02*
X13522366Y-14473833D01*
X13522366Y-14473833D02*
X13522366Y-14521452D01*
X13522366Y-14521452D02*
X13512843Y-14559547D01*
X13512843Y-14559547D02*
X13503319Y-14578595D01*
X13503319Y-14578595D02*
X13493795Y-14588119D01*
X13493795Y-14588119D02*
X13474747Y-14597643D01*
X13474747Y-14597643D02*
X13455700Y-14597643D01*
X13455700Y-14597643D02*
X13436652Y-14588119D01*
X13436652Y-14588119D02*
X13427128Y-14578595D01*
X13427128Y-14578595D02*
X13417605Y-14559547D01*
X13417605Y-14559547D02*
X13408081Y-14521452D01*
X13408081Y-14521452D02*
X13408081Y-14473833D01*
X13408081Y-14473833D02*
X13417605Y-14435738D01*
X13417605Y-14435738D02*
X13427128Y-14416690D01*
X13427128Y-14416690D02*
X13436652Y-14407166D01*
X13436652Y-14407166D02*
X13455700Y-14397643D01*
X13693795Y-14397643D02*
X13655700Y-14397643D01*
X13655700Y-14397643D02*
X13636652Y-14407166D01*
X13636652Y-14407166D02*
X13627128Y-14416690D01*
X13627128Y-14416690D02*
X13608081Y-14445262D01*
X13608081Y-14445262D02*
X13598557Y-14483357D01*
X13598557Y-14483357D02*
X13598557Y-14559547D01*
X13598557Y-14559547D02*
X13608081Y-14578595D01*
X13608081Y-14578595D02*
X13617605Y-14588119D01*
X13617605Y-14588119D02*
X13636652Y-14597643D01*
X13636652Y-14597643D02*
X13674747Y-14597643D01*
X13674747Y-14597643D02*
X13693795Y-14588119D01*
X13693795Y-14588119D02*
X13703319Y-14578595D01*
X13703319Y-14578595D02*
X13712843Y-14559547D01*
X13712843Y-14559547D02*
X13712843Y-14511928D01*
X13712843Y-14511928D02*
X13703319Y-14492881D01*
X13703319Y-14492881D02*
X13693795Y-14483357D01*
X13693795Y-14483357D02*
X13674747Y-14473833D01*
X13674747Y-14473833D02*
X13636652Y-14473833D01*
X13636652Y-14473833D02*
X13617605Y-14483357D01*
X13617605Y-14483357D02*
X13608081Y-14492881D01*
X13608081Y-14492881D02*
X13598557Y-14511928D01*
X13884271Y-14397643D02*
X13846176Y-14397643D01*
X13846176Y-14397643D02*
X13827128Y-14407166D01*
X13827128Y-14407166D02*
X13817605Y-14416690D01*
X13817605Y-14416690D02*
X13798557Y-14445262D01*
X13798557Y-14445262D02*
X13789033Y-14483357D01*
X13789033Y-14483357D02*
X13789033Y-14559547D01*
X13789033Y-14559547D02*
X13798557Y-14578595D01*
X13798557Y-14578595D02*
X13808081Y-14588119D01*
X13808081Y-14588119D02*
X13827128Y-14597643D01*
X13827128Y-14597643D02*
X13865224Y-14597643D01*
X13865224Y-14597643D02*
X13884271Y-14588119D01*
X13884271Y-14588119D02*
X13893795Y-14578595D01*
X13893795Y-14578595D02*
X13903319Y-14559547D01*
X13903319Y-14559547D02*
X13903319Y-14511928D01*
X13903319Y-14511928D02*
X13893795Y-14492881D01*
X13893795Y-14492881D02*
X13884271Y-14483357D01*
X13884271Y-14483357D02*
X13865224Y-14473833D01*
X13865224Y-14473833D02*
X13827128Y-14473833D01*
X13827128Y-14473833D02*
X13808081Y-14483357D01*
X13808081Y-14483357D02*
X13798557Y-14492881D01*
X13798557Y-14492881D02*
X13789033Y-14511928D01*
X13998557Y-14597643D02*
X14036652Y-14597643D01*
X14036652Y-14597643D02*
X14055700Y-14588119D01*
X14055700Y-14588119D02*
X14065224Y-14578595D01*
X14065224Y-14578595D02*
X14084271Y-14550023D01*
X14084271Y-14550023D02*
X14093795Y-14511928D01*
X14093795Y-14511928D02*
X14093795Y-14435738D01*
X14093795Y-14435738D02*
X14084271Y-14416690D01*
X14084271Y-14416690D02*
X14074747Y-14407166D01*
X14074747Y-14407166D02*
X14055700Y-14397643D01*
X14055700Y-14397643D02*
X14017605Y-14397643D01*
X14017605Y-14397643D02*
X13998557Y-14407166D01*
X13998557Y-14407166D02*
X13989033Y-14416690D01*
X13989033Y-14416690D02*
X13979509Y-14435738D01*
X13979509Y-14435738D02*
X13979509Y-14483357D01*
X13979509Y-14483357D02*
X13989033Y-14502404D01*
X13989033Y-14502404D02*
X13998557Y-14511928D01*
X13998557Y-14511928D02*
X14017605Y-14521452D01*
X14017605Y-14521452D02*
X14055700Y-14521452D01*
X14055700Y-14521452D02*
X14074747Y-14511928D01*
X14074747Y-14511928D02*
X14084271Y-14502404D01*
X14084271Y-14502404D02*
X14093795Y-14483357D01*
X14169986Y-14397643D02*
X14169986Y-14435738D01*
X14246176Y-14397643D02*
X14246176Y-14435738D01*
X14541414Y-14673833D02*
X14531890Y-14664309D01*
X14531890Y-14664309D02*
X14512843Y-14635738D01*
X14512843Y-14635738D02*
X14503319Y-14616690D01*
X14503319Y-14616690D02*
X14493795Y-14588119D01*
X14493795Y-14588119D02*
X14484271Y-14540500D01*
X14484271Y-14540500D02*
X14484271Y-14502404D01*
X14484271Y-14502404D02*
X14493795Y-14454785D01*
X14493795Y-14454785D02*
X14503319Y-14426214D01*
X14503319Y-14426214D02*
X14512843Y-14407166D01*
X14512843Y-14407166D02*
X14531890Y-14378595D01*
X14531890Y-14378595D02*
X14541414Y-14369071D01*
X14722367Y-14597643D02*
X14608081Y-14597643D01*
X14665224Y-14597643D02*
X14665224Y-14397643D01*
X14665224Y-14397643D02*
X14646176Y-14426214D01*
X14646176Y-14426214D02*
X14627128Y-14445262D01*
X14627128Y-14445262D02*
X14608081Y-14454785D01*
X14893795Y-14397643D02*
X14855700Y-14397643D01*
X14855700Y-14397643D02*
X14836652Y-14407166D01*
X14836652Y-14407166D02*
X14827128Y-14416690D01*
X14827128Y-14416690D02*
X14808081Y-14445262D01*
X14808081Y-14445262D02*
X14798557Y-14483357D01*
X14798557Y-14483357D02*
X14798557Y-14559547D01*
X14798557Y-14559547D02*
X14808081Y-14578595D01*
X14808081Y-14578595D02*
X14817605Y-14588119D01*
X14817605Y-14588119D02*
X14836652Y-14597643D01*
X14836652Y-14597643D02*
X14874748Y-14597643D01*
X14874748Y-14597643D02*
X14893795Y-14588119D01*
X14893795Y-14588119D02*
X14903319Y-14578595D01*
X14903319Y-14578595D02*
X14912843Y-14559547D01*
X14912843Y-14559547D02*
X14912843Y-14511928D01*
X14912843Y-14511928D02*
X14903319Y-14492881D01*
X14903319Y-14492881D02*
X14893795Y-14483357D01*
X14893795Y-14483357D02*
X14874748Y-14473833D01*
X14874748Y-14473833D02*
X14836652Y-14473833D01*
X14836652Y-14473833D02*
X14817605Y-14483357D01*
X14817605Y-14483357D02*
X14808081Y-14492881D01*
X14808081Y-14492881D02*
X14798557Y-14511928D01*
X15150938Y-14597643D02*
X15150938Y-14397643D01*
X15236652Y-14597643D02*
X15236652Y-14492881D01*
X15236652Y-14492881D02*
X15227129Y-14473833D01*
X15227129Y-14473833D02*
X15208081Y-14464309D01*
X15208081Y-14464309D02*
X15179509Y-14464309D01*
X15179509Y-14464309D02*
X15160462Y-14473833D01*
X15160462Y-14473833D02*
X15150938Y-14483357D01*
X15360462Y-14597643D02*
X15341414Y-14588119D01*
X15341414Y-14588119D02*
X15331890Y-14578595D01*
X15331890Y-14578595D02*
X15322367Y-14559547D01*
X15322367Y-14559547D02*
X15322367Y-14502404D01*
X15322367Y-14502404D02*
X15331890Y-14483357D01*
X15331890Y-14483357D02*
X15341414Y-14473833D01*
X15341414Y-14473833D02*
X15360462Y-14464309D01*
X15360462Y-14464309D02*
X15389033Y-14464309D01*
X15389033Y-14464309D02*
X15408081Y-14473833D01*
X15408081Y-14473833D02*
X15417605Y-14483357D01*
X15417605Y-14483357D02*
X15427129Y-14502404D01*
X15427129Y-14502404D02*
X15427129Y-14559547D01*
X15427129Y-14559547D02*
X15417605Y-14578595D01*
X15417605Y-14578595D02*
X15408081Y-14588119D01*
X15408081Y-14588119D02*
X15389033Y-14597643D01*
X15389033Y-14597643D02*
X15360462Y-14597643D01*
X15541414Y-14597643D02*
X15522367Y-14588119D01*
X15522367Y-14588119D02*
X15512843Y-14569071D01*
X15512843Y-14569071D02*
X15512843Y-14397643D01*
X15693795Y-14588119D02*
X15674748Y-14597643D01*
X15674748Y-14597643D02*
X15636652Y-14597643D01*
X15636652Y-14597643D02*
X15617605Y-14588119D01*
X15617605Y-14588119D02*
X15608081Y-14569071D01*
X15608081Y-14569071D02*
X15608081Y-14492881D01*
X15608081Y-14492881D02*
X15617605Y-14473833D01*
X15617605Y-14473833D02*
X15636652Y-14464309D01*
X15636652Y-14464309D02*
X15674748Y-14464309D01*
X15674748Y-14464309D02*
X15693795Y-14473833D01*
X15693795Y-14473833D02*
X15703319Y-14492881D01*
X15703319Y-14492881D02*
X15703319Y-14511928D01*
X15703319Y-14511928D02*
X15608081Y-14530976D01*
X15779510Y-14588119D02*
X15798557Y-14597643D01*
X15798557Y-14597643D02*
X15836652Y-14597643D01*
X15836652Y-14597643D02*
X15855700Y-14588119D01*
X15855700Y-14588119D02*
X15865224Y-14569071D01*
X15865224Y-14569071D02*
X15865224Y-14559547D01*
X15865224Y-14559547D02*
X15855700Y-14540500D01*
X15855700Y-14540500D02*
X15836652Y-14530976D01*
X15836652Y-14530976D02*
X15808081Y-14530976D01*
X15808081Y-14530976D02*
X15789033Y-14521452D01*
X15789033Y-14521452D02*
X15779510Y-14502404D01*
X15779510Y-14502404D02*
X15779510Y-14492881D01*
X15779510Y-14492881D02*
X15789033Y-14473833D01*
X15789033Y-14473833D02*
X15808081Y-14464309D01*
X15808081Y-14464309D02*
X15836652Y-14464309D01*
X15836652Y-14464309D02*
X15855700Y-14473833D01*
X15931891Y-14673833D02*
X15941414Y-14664309D01*
X15941414Y-14664309D02*
X15960462Y-14635738D01*
X15960462Y-14635738D02*
X15969986Y-14616690D01*
X15969986Y-14616690D02*
X15979510Y-14588119D01*
X15979510Y-14588119D02*
X15989033Y-14540500D01*
X15989033Y-14540500D02*
X15989033Y-14502404D01*
X15989033Y-14502404D02*
X15979510Y-14454785D01*
X15979510Y-14454785D02*
X15969986Y-14426214D01*
X15969986Y-14426214D02*
X15960462Y-14407166D01*
X15960462Y-14407166D02*
X15941414Y-14378595D01*
X15941414Y-14378595D02*
X15931891Y-14369071D01*
X16293795Y-14673833D02*
X16284271Y-14664309D01*
X16284271Y-14664309D02*
X16265224Y-14635738D01*
X16265224Y-14635738D02*
X16255700Y-14616690D01*
X16255700Y-14616690D02*
X16246176Y-14588119D01*
X16246176Y-14588119D02*
X16236652Y-14540500D01*
X16236652Y-14540500D02*
X16236652Y-14502404D01*
X16236652Y-14502404D02*
X16246176Y-14454785D01*
X16246176Y-14454785D02*
X16255700Y-14426214D01*
X16255700Y-14426214D02*
X16265224Y-14407166D01*
X16265224Y-14407166D02*
X16284271Y-14378595D01*
X16284271Y-14378595D02*
X16293795Y-14369071D01*
X16369986Y-14464309D02*
X16369986Y-14597643D01*
X16369986Y-14483357D02*
X16379510Y-14473833D01*
X16379510Y-14473833D02*
X16398557Y-14464309D01*
X16398557Y-14464309D02*
X16427129Y-14464309D01*
X16427129Y-14464309D02*
X16446176Y-14473833D01*
X16446176Y-14473833D02*
X16455700Y-14492881D01*
X16455700Y-14492881D02*
X16455700Y-14597643D01*
X16579510Y-14597643D02*
X16560462Y-14588119D01*
X16560462Y-14588119D02*
X16550938Y-14578595D01*
X16550938Y-14578595D02*
X16541414Y-14559547D01*
X16541414Y-14559547D02*
X16541414Y-14502404D01*
X16541414Y-14502404D02*
X16550938Y-14483357D01*
X16550938Y-14483357D02*
X16560462Y-14473833D01*
X16560462Y-14473833D02*
X16579510Y-14464309D01*
X16579510Y-14464309D02*
X16608081Y-14464309D01*
X16608081Y-14464309D02*
X16627129Y-14473833D01*
X16627129Y-14473833D02*
X16636652Y-14483357D01*
X16636652Y-14483357D02*
X16646176Y-14502404D01*
X16646176Y-14502404D02*
X16646176Y-14559547D01*
X16646176Y-14559547D02*
X16636652Y-14578595D01*
X16636652Y-14578595D02*
X16627129Y-14588119D01*
X16627129Y-14588119D02*
X16608081Y-14597643D01*
X16608081Y-14597643D02*
X16579510Y-14597643D01*
X16703319Y-14464309D02*
X16779510Y-14464309D01*
X16731891Y-14397643D02*
X16731891Y-14569071D01*
X16731891Y-14569071D02*
X16741414Y-14588119D01*
X16741414Y-14588119D02*
X16760462Y-14597643D01*
X16760462Y-14597643D02*
X16779510Y-14597643D01*
X16998557Y-14464309D02*
X16998557Y-14664309D01*
X16998557Y-14473833D02*
X17017605Y-14464309D01*
X17017605Y-14464309D02*
X17055700Y-14464309D01*
X17055700Y-14464309D02*
X17074748Y-14473833D01*
X17074748Y-14473833D02*
X17084272Y-14483357D01*
X17084272Y-14483357D02*
X17093795Y-14502404D01*
X17093795Y-14502404D02*
X17093795Y-14559547D01*
X17093795Y-14559547D02*
X17084272Y-14578595D01*
X17084272Y-14578595D02*
X17074748Y-14588119D01*
X17074748Y-14588119D02*
X17055700Y-14597643D01*
X17055700Y-14597643D02*
X17017605Y-14597643D01*
X17017605Y-14597643D02*
X16998557Y-14588119D01*
X17208081Y-14597643D02*
X17189034Y-14588119D01*
X17189034Y-14588119D02*
X17179510Y-14569071D01*
X17179510Y-14569071D02*
X17179510Y-14397643D01*
X17369986Y-14597643D02*
X17369986Y-14492881D01*
X17369986Y-14492881D02*
X17360462Y-14473833D01*
X17360462Y-14473833D02*
X17341415Y-14464309D01*
X17341415Y-14464309D02*
X17303319Y-14464309D01*
X17303319Y-14464309D02*
X17284272Y-14473833D01*
X17369986Y-14588119D02*
X17350938Y-14597643D01*
X17350938Y-14597643D02*
X17303319Y-14597643D01*
X17303319Y-14597643D02*
X17284272Y-14588119D01*
X17284272Y-14588119D02*
X17274748Y-14569071D01*
X17274748Y-14569071D02*
X17274748Y-14550023D01*
X17274748Y-14550023D02*
X17284272Y-14530976D01*
X17284272Y-14530976D02*
X17303319Y-14521452D01*
X17303319Y-14521452D02*
X17350938Y-14521452D01*
X17350938Y-14521452D02*
X17369986Y-14511928D01*
X17436653Y-14464309D02*
X17512843Y-14464309D01*
X17465224Y-14397643D02*
X17465224Y-14569071D01*
X17465224Y-14569071D02*
X17474748Y-14588119D01*
X17474748Y-14588119D02*
X17493795Y-14597643D01*
X17493795Y-14597643D02*
X17512843Y-14597643D01*
X17655700Y-14588119D02*
X17636653Y-14597643D01*
X17636653Y-14597643D02*
X17598557Y-14597643D01*
X17598557Y-14597643D02*
X17579510Y-14588119D01*
X17579510Y-14588119D02*
X17569986Y-14569071D01*
X17569986Y-14569071D02*
X17569986Y-14492881D01*
X17569986Y-14492881D02*
X17579510Y-14473833D01*
X17579510Y-14473833D02*
X17598557Y-14464309D01*
X17598557Y-14464309D02*
X17636653Y-14464309D01*
X17636653Y-14464309D02*
X17655700Y-14473833D01*
X17655700Y-14473833D02*
X17665224Y-14492881D01*
X17665224Y-14492881D02*
X17665224Y-14511928D01*
X17665224Y-14511928D02*
X17569986Y-14530976D01*
X17836653Y-14597643D02*
X17836653Y-14397643D01*
X17836653Y-14588119D02*
X17817605Y-14597643D01*
X17817605Y-14597643D02*
X17779510Y-14597643D01*
X17779510Y-14597643D02*
X17760462Y-14588119D01*
X17760462Y-14588119D02*
X17750938Y-14578595D01*
X17750938Y-14578595D02*
X17741415Y-14559547D01*
X17741415Y-14559547D02*
X17741415Y-14502404D01*
X17741415Y-14502404D02*
X17750938Y-14483357D01*
X17750938Y-14483357D02*
X17760462Y-14473833D01*
X17760462Y-14473833D02*
X17779510Y-14464309D01*
X17779510Y-14464309D02*
X17817605Y-14464309D01*
X17817605Y-14464309D02*
X17836653Y-14473833D01*
X17912843Y-14673833D02*
X17922367Y-14664309D01*
X17922367Y-14664309D02*
X17941415Y-14635738D01*
X17941415Y-14635738D02*
X17950938Y-14616690D01*
X17950938Y-14616690D02*
X17960462Y-14588119D01*
X17960462Y-14588119D02*
X17969986Y-14540500D01*
X17969986Y-14540500D02*
X17969986Y-14502404D01*
X17969986Y-14502404D02*
X17960462Y-14454785D01*
X17960462Y-14454785D02*
X17950938Y-14426214D01*
X17950938Y-14426214D02*
X17941415Y-14407166D01*
X17941415Y-14407166D02*
X17922367Y-14378595D01*
X17922367Y-14378595D02*
X17912843Y-14369071D01*
X10966351Y-14796159D02*
G75*
G02*
X10766351Y-14796159I-100000J0D01*
G01*
X10766351Y-14796159D02*
G75*
G02*
X10966351Y-14796159I100000J0D01*
G01*
X11312842Y-14754309D02*
X11312842Y-14887643D01*
X11265223Y-14678119D02*
X11217604Y-14820976D01*
X11217604Y-14820976D02*
X11341414Y-14820976D01*
X11417604Y-14868595D02*
X11427128Y-14878119D01*
X11427128Y-14878119D02*
X11417604Y-14887643D01*
X11417604Y-14887643D02*
X11408081Y-14878119D01*
X11408081Y-14878119D02*
X11417604Y-14868595D01*
X11417604Y-14868595D02*
X11417604Y-14887643D01*
X11550938Y-14687643D02*
X11569985Y-14687643D01*
X11569985Y-14687643D02*
X11589033Y-14697166D01*
X11589033Y-14697166D02*
X11598557Y-14706690D01*
X11598557Y-14706690D02*
X11608081Y-14725738D01*
X11608081Y-14725738D02*
X11617604Y-14763833D01*
X11617604Y-14763833D02*
X11617604Y-14811452D01*
X11617604Y-14811452D02*
X11608081Y-14849547D01*
X11608081Y-14849547D02*
X11598557Y-14868595D01*
X11598557Y-14868595D02*
X11589033Y-14878119D01*
X11589033Y-14878119D02*
X11569985Y-14887643D01*
X11569985Y-14887643D02*
X11550938Y-14887643D01*
X11550938Y-14887643D02*
X11531890Y-14878119D01*
X11531890Y-14878119D02*
X11522366Y-14868595D01*
X11522366Y-14868595D02*
X11512842Y-14849547D01*
X11512842Y-14849547D02*
X11503319Y-14811452D01*
X11503319Y-14811452D02*
X11503319Y-14763833D01*
X11503319Y-14763833D02*
X11512842Y-14725738D01*
X11512842Y-14725738D02*
X11522366Y-14706690D01*
X11522366Y-14706690D02*
X11531890Y-14697166D01*
X11531890Y-14697166D02*
X11550938Y-14687643D01*
X11741414Y-14687643D02*
X11760462Y-14687643D01*
X11760462Y-14687643D02*
X11779509Y-14697166D01*
X11779509Y-14697166D02*
X11789033Y-14706690D01*
X11789033Y-14706690D02*
X11798557Y-14725738D01*
X11798557Y-14725738D02*
X11808081Y-14763833D01*
X11808081Y-14763833D02*
X11808081Y-14811452D01*
X11808081Y-14811452D02*
X11798557Y-14849547D01*
X11798557Y-14849547D02*
X11789033Y-14868595D01*
X11789033Y-14868595D02*
X11779509Y-14878119D01*
X11779509Y-14878119D02*
X11760462Y-14887643D01*
X11760462Y-14887643D02*
X11741414Y-14887643D01*
X11741414Y-14887643D02*
X11722366Y-14878119D01*
X11722366Y-14878119D02*
X11712842Y-14868595D01*
X11712842Y-14868595D02*
X11703319Y-14849547D01*
X11703319Y-14849547D02*
X11693795Y-14811452D01*
X11693795Y-14811452D02*
X11693795Y-14763833D01*
X11693795Y-14763833D02*
X11703319Y-14725738D01*
X11703319Y-14725738D02*
X11712842Y-14706690D01*
X11712842Y-14706690D02*
X11722366Y-14697166D01*
X11722366Y-14697166D02*
X11741414Y-14687643D01*
X11931890Y-14687643D02*
X11950938Y-14687643D01*
X11950938Y-14687643D02*
X11969985Y-14697166D01*
X11969985Y-14697166D02*
X11979509Y-14706690D01*
X11979509Y-14706690D02*
X11989033Y-14725738D01*
X11989033Y-14725738D02*
X11998557Y-14763833D01*
X11998557Y-14763833D02*
X11998557Y-14811452D01*
X11998557Y-14811452D02*
X11989033Y-14849547D01*
X11989033Y-14849547D02*
X11979509Y-14868595D01*
X11979509Y-14868595D02*
X11969985Y-14878119D01*
X11969985Y-14878119D02*
X11950938Y-14887643D01*
X11950938Y-14887643D02*
X11931890Y-14887643D01*
X11931890Y-14887643D02*
X11912842Y-14878119D01*
X11912842Y-14878119D02*
X11903319Y-14868595D01*
X11903319Y-14868595D02*
X11893795Y-14849547D01*
X11893795Y-14849547D02*
X11884271Y-14811452D01*
X11884271Y-14811452D02*
X11884271Y-14763833D01*
X11884271Y-14763833D02*
X11893795Y-14725738D01*
X11893795Y-14725738D02*
X11903319Y-14706690D01*
X11903319Y-14706690D02*
X11912842Y-14697166D01*
X11912842Y-14697166D02*
X11931890Y-14687643D01*
X12084271Y-14887643D02*
X12084271Y-14754309D01*
X12084271Y-14773357D02*
X12093795Y-14763833D01*
X12093795Y-14763833D02*
X12112842Y-14754309D01*
X12112842Y-14754309D02*
X12141414Y-14754309D01*
X12141414Y-14754309D02*
X12160462Y-14763833D01*
X12160462Y-14763833D02*
X12169985Y-14782881D01*
X12169985Y-14782881D02*
X12169985Y-14887643D01*
X12169985Y-14782881D02*
X12179509Y-14763833D01*
X12179509Y-14763833D02*
X12198557Y-14754309D01*
X12198557Y-14754309D02*
X12227128Y-14754309D01*
X12227128Y-14754309D02*
X12246176Y-14763833D01*
X12246176Y-14763833D02*
X12255700Y-14782881D01*
X12255700Y-14782881D02*
X12255700Y-14887643D01*
X12350938Y-14887643D02*
X12350938Y-14754309D01*
X12350938Y-14773357D02*
X12360462Y-14763833D01*
X12360462Y-14763833D02*
X12379509Y-14754309D01*
X12379509Y-14754309D02*
X12408081Y-14754309D01*
X12408081Y-14754309D02*
X12427128Y-14763833D01*
X12427128Y-14763833D02*
X12436652Y-14782881D01*
X12436652Y-14782881D02*
X12436652Y-14887643D01*
X12436652Y-14782881D02*
X12446176Y-14763833D01*
X12446176Y-14763833D02*
X12465223Y-14754309D01*
X12465223Y-14754309D02*
X12493795Y-14754309D01*
X12493795Y-14754309D02*
X12512843Y-14763833D01*
X12512843Y-14763833D02*
X12522366Y-14782881D01*
X12522366Y-14782881D02*
X12522366Y-14887643D01*
X12912843Y-14678119D02*
X12741414Y-14935262D01*
X13169985Y-14687643D02*
X13189033Y-14687643D01*
X13189033Y-14687643D02*
X13208081Y-14697166D01*
X13208081Y-14697166D02*
X13217605Y-14706690D01*
X13217605Y-14706690D02*
X13227128Y-14725738D01*
X13227128Y-14725738D02*
X13236652Y-14763833D01*
X13236652Y-14763833D02*
X13236652Y-14811452D01*
X13236652Y-14811452D02*
X13227128Y-14849547D01*
X13227128Y-14849547D02*
X13217605Y-14868595D01*
X13217605Y-14868595D02*
X13208081Y-14878119D01*
X13208081Y-14878119D02*
X13189033Y-14887643D01*
X13189033Y-14887643D02*
X13169985Y-14887643D01*
X13169985Y-14887643D02*
X13150938Y-14878119D01*
X13150938Y-14878119D02*
X13141414Y-14868595D01*
X13141414Y-14868595D02*
X13131890Y-14849547D01*
X13131890Y-14849547D02*
X13122366Y-14811452D01*
X13122366Y-14811452D02*
X13122366Y-14763833D01*
X13122366Y-14763833D02*
X13131890Y-14725738D01*
X13131890Y-14725738D02*
X13141414Y-14706690D01*
X13141414Y-14706690D02*
X13150938Y-14697166D01*
X13150938Y-14697166D02*
X13169985Y-14687643D01*
X13322366Y-14868595D02*
X13331890Y-14878119D01*
X13331890Y-14878119D02*
X13322366Y-14887643D01*
X13322366Y-14887643D02*
X13312843Y-14878119D01*
X13312843Y-14878119D02*
X13322366Y-14868595D01*
X13322366Y-14868595D02*
X13322366Y-14887643D01*
X13522366Y-14887643D02*
X13408081Y-14887643D01*
X13465224Y-14887643D02*
X13465224Y-14687643D01*
X13465224Y-14687643D02*
X13446176Y-14716214D01*
X13446176Y-14716214D02*
X13427128Y-14735262D01*
X13427128Y-14735262D02*
X13408081Y-14744785D01*
X13703319Y-14687643D02*
X13608081Y-14687643D01*
X13608081Y-14687643D02*
X13598557Y-14782881D01*
X13598557Y-14782881D02*
X13608081Y-14773357D01*
X13608081Y-14773357D02*
X13627128Y-14763833D01*
X13627128Y-14763833D02*
X13674747Y-14763833D01*
X13674747Y-14763833D02*
X13693795Y-14773357D01*
X13693795Y-14773357D02*
X13703319Y-14782881D01*
X13703319Y-14782881D02*
X13712843Y-14801928D01*
X13712843Y-14801928D02*
X13712843Y-14849547D01*
X13712843Y-14849547D02*
X13703319Y-14868595D01*
X13703319Y-14868595D02*
X13693795Y-14878119D01*
X13693795Y-14878119D02*
X13674747Y-14887643D01*
X13674747Y-14887643D02*
X13627128Y-14887643D01*
X13627128Y-14887643D02*
X13608081Y-14878119D01*
X13608081Y-14878119D02*
X13598557Y-14868595D01*
X13779509Y-14687643D02*
X13912843Y-14687643D01*
X13912843Y-14687643D02*
X13827128Y-14887643D01*
X14084271Y-14687643D02*
X13989033Y-14687643D01*
X13989033Y-14687643D02*
X13979509Y-14782881D01*
X13979509Y-14782881D02*
X13989033Y-14773357D01*
X13989033Y-14773357D02*
X14008081Y-14763833D01*
X14008081Y-14763833D02*
X14055700Y-14763833D01*
X14055700Y-14763833D02*
X14074747Y-14773357D01*
X14074747Y-14773357D02*
X14084271Y-14782881D01*
X14084271Y-14782881D02*
X14093795Y-14801928D01*
X14093795Y-14801928D02*
X14093795Y-14849547D01*
X14093795Y-14849547D02*
X14084271Y-14868595D01*
X14084271Y-14868595D02*
X14074747Y-14878119D01*
X14074747Y-14878119D02*
X14055700Y-14887643D01*
X14055700Y-14887643D02*
X14008081Y-14887643D01*
X14008081Y-14887643D02*
X13989033Y-14878119D01*
X13989033Y-14878119D02*
X13979509Y-14868595D01*
X14169986Y-14687643D02*
X14169986Y-14725738D01*
X14246176Y-14687643D02*
X14246176Y-14725738D01*
X14541414Y-14963833D02*
X14531890Y-14954309D01*
X14531890Y-14954309D02*
X14512843Y-14925738D01*
X14512843Y-14925738D02*
X14503319Y-14906690D01*
X14503319Y-14906690D02*
X14493795Y-14878119D01*
X14493795Y-14878119D02*
X14484271Y-14830500D01*
X14484271Y-14830500D02*
X14484271Y-14792404D01*
X14484271Y-14792404D02*
X14493795Y-14744785D01*
X14493795Y-14744785D02*
X14503319Y-14716214D01*
X14503319Y-14716214D02*
X14512843Y-14697166D01*
X14512843Y-14697166D02*
X14531890Y-14668595D01*
X14531890Y-14668595D02*
X14541414Y-14659071D01*
X14646176Y-14773357D02*
X14627128Y-14763833D01*
X14627128Y-14763833D02*
X14617605Y-14754309D01*
X14617605Y-14754309D02*
X14608081Y-14735262D01*
X14608081Y-14735262D02*
X14608081Y-14725738D01*
X14608081Y-14725738D02*
X14617605Y-14706690D01*
X14617605Y-14706690D02*
X14627128Y-14697166D01*
X14627128Y-14697166D02*
X14646176Y-14687643D01*
X14646176Y-14687643D02*
X14684271Y-14687643D01*
X14684271Y-14687643D02*
X14703319Y-14697166D01*
X14703319Y-14697166D02*
X14712843Y-14706690D01*
X14712843Y-14706690D02*
X14722367Y-14725738D01*
X14722367Y-14725738D02*
X14722367Y-14735262D01*
X14722367Y-14735262D02*
X14712843Y-14754309D01*
X14712843Y-14754309D02*
X14703319Y-14763833D01*
X14703319Y-14763833D02*
X14684271Y-14773357D01*
X14684271Y-14773357D02*
X14646176Y-14773357D01*
X14646176Y-14773357D02*
X14627128Y-14782881D01*
X14627128Y-14782881D02*
X14617605Y-14792404D01*
X14617605Y-14792404D02*
X14608081Y-14811452D01*
X14608081Y-14811452D02*
X14608081Y-14849547D01*
X14608081Y-14849547D02*
X14617605Y-14868595D01*
X14617605Y-14868595D02*
X14627128Y-14878119D01*
X14627128Y-14878119D02*
X14646176Y-14887643D01*
X14646176Y-14887643D02*
X14684271Y-14887643D01*
X14684271Y-14887643D02*
X14703319Y-14878119D01*
X14703319Y-14878119D02*
X14712843Y-14868595D01*
X14712843Y-14868595D02*
X14722367Y-14849547D01*
X14722367Y-14849547D02*
X14722367Y-14811452D01*
X14722367Y-14811452D02*
X14712843Y-14792404D01*
X14712843Y-14792404D02*
X14703319Y-14782881D01*
X14703319Y-14782881D02*
X14684271Y-14773357D01*
X14960462Y-14887643D02*
X14960462Y-14687643D01*
X15046176Y-14887643D02*
X15046176Y-14782881D01*
X15046176Y-14782881D02*
X15036652Y-14763833D01*
X15036652Y-14763833D02*
X15017605Y-14754309D01*
X15017605Y-14754309D02*
X14989033Y-14754309D01*
X14989033Y-14754309D02*
X14969986Y-14763833D01*
X14969986Y-14763833D02*
X14960462Y-14773357D01*
X15169986Y-14887643D02*
X15150938Y-14878119D01*
X15150938Y-14878119D02*
X15141414Y-14868595D01*
X15141414Y-14868595D02*
X15131890Y-14849547D01*
X15131890Y-14849547D02*
X15131890Y-14792404D01*
X15131890Y-14792404D02*
X15141414Y-14773357D01*
X15141414Y-14773357D02*
X15150938Y-14763833D01*
X15150938Y-14763833D02*
X15169986Y-14754309D01*
X15169986Y-14754309D02*
X15198557Y-14754309D01*
X15198557Y-14754309D02*
X15217605Y-14763833D01*
X15217605Y-14763833D02*
X15227129Y-14773357D01*
X15227129Y-14773357D02*
X15236652Y-14792404D01*
X15236652Y-14792404D02*
X15236652Y-14849547D01*
X15236652Y-14849547D02*
X15227129Y-14868595D01*
X15227129Y-14868595D02*
X15217605Y-14878119D01*
X15217605Y-14878119D02*
X15198557Y-14887643D01*
X15198557Y-14887643D02*
X15169986Y-14887643D01*
X15350938Y-14887643D02*
X15331890Y-14878119D01*
X15331890Y-14878119D02*
X15322367Y-14859071D01*
X15322367Y-14859071D02*
X15322367Y-14687643D01*
X15503319Y-14878119D02*
X15484271Y-14887643D01*
X15484271Y-14887643D02*
X15446176Y-14887643D01*
X15446176Y-14887643D02*
X15427129Y-14878119D01*
X15427129Y-14878119D02*
X15417605Y-14859071D01*
X15417605Y-14859071D02*
X15417605Y-14782881D01*
X15417605Y-14782881D02*
X15427129Y-14763833D01*
X15427129Y-14763833D02*
X15446176Y-14754309D01*
X15446176Y-14754309D02*
X15484271Y-14754309D01*
X15484271Y-14754309D02*
X15503319Y-14763833D01*
X15503319Y-14763833D02*
X15512843Y-14782881D01*
X15512843Y-14782881D02*
X15512843Y-14801928D01*
X15512843Y-14801928D02*
X15417605Y-14820976D01*
X15589033Y-14878119D02*
X15608081Y-14887643D01*
X15608081Y-14887643D02*
X15646176Y-14887643D01*
X15646176Y-14887643D02*
X15665224Y-14878119D01*
X15665224Y-14878119D02*
X15674748Y-14859071D01*
X15674748Y-14859071D02*
X15674748Y-14849547D01*
X15674748Y-14849547D02*
X15665224Y-14830500D01*
X15665224Y-14830500D02*
X15646176Y-14820976D01*
X15646176Y-14820976D02*
X15617605Y-14820976D01*
X15617605Y-14820976D02*
X15598557Y-14811452D01*
X15598557Y-14811452D02*
X15589033Y-14792404D01*
X15589033Y-14792404D02*
X15589033Y-14782881D01*
X15589033Y-14782881D02*
X15598557Y-14763833D01*
X15598557Y-14763833D02*
X15617605Y-14754309D01*
X15617605Y-14754309D02*
X15646176Y-14754309D01*
X15646176Y-14754309D02*
X15665224Y-14763833D01*
X15741414Y-14963833D02*
X15750938Y-14954309D01*
X15750938Y-14954309D02*
X15769986Y-14925738D01*
X15769986Y-14925738D02*
X15779510Y-14906690D01*
X15779510Y-14906690D02*
X15789033Y-14878119D01*
X15789033Y-14878119D02*
X15798557Y-14830500D01*
X15798557Y-14830500D02*
X15798557Y-14792404D01*
X15798557Y-14792404D02*
X15789033Y-14744785D01*
X15789033Y-14744785D02*
X15779510Y-14716214D01*
X15779510Y-14716214D02*
X15769986Y-14697166D01*
X15769986Y-14697166D02*
X15750938Y-14668595D01*
X15750938Y-14668595D02*
X15741414Y-14659071D01*
X16103319Y-14963833D02*
X16093795Y-14954309D01*
X16093795Y-14954309D02*
X16074748Y-14925738D01*
X16074748Y-14925738D02*
X16065224Y-14906690D01*
X16065224Y-14906690D02*
X16055700Y-14878119D01*
X16055700Y-14878119D02*
X16046176Y-14830500D01*
X16046176Y-14830500D02*
X16046176Y-14792404D01*
X16046176Y-14792404D02*
X16055700Y-14744785D01*
X16055700Y-14744785D02*
X16065224Y-14716214D01*
X16065224Y-14716214D02*
X16074748Y-14697166D01*
X16074748Y-14697166D02*
X16093795Y-14668595D01*
X16093795Y-14668595D02*
X16103319Y-14659071D01*
X16179510Y-14754309D02*
X16179510Y-14887643D01*
X16179510Y-14773357D02*
X16189033Y-14763833D01*
X16189033Y-14763833D02*
X16208081Y-14754309D01*
X16208081Y-14754309D02*
X16236652Y-14754309D01*
X16236652Y-14754309D02*
X16255700Y-14763833D01*
X16255700Y-14763833D02*
X16265224Y-14782881D01*
X16265224Y-14782881D02*
X16265224Y-14887643D01*
X16389033Y-14887643D02*
X16369986Y-14878119D01*
X16369986Y-14878119D02*
X16360462Y-14868595D01*
X16360462Y-14868595D02*
X16350938Y-14849547D01*
X16350938Y-14849547D02*
X16350938Y-14792404D01*
X16350938Y-14792404D02*
X16360462Y-14773357D01*
X16360462Y-14773357D02*
X16369986Y-14763833D01*
X16369986Y-14763833D02*
X16389033Y-14754309D01*
X16389033Y-14754309D02*
X16417605Y-14754309D01*
X16417605Y-14754309D02*
X16436652Y-14763833D01*
X16436652Y-14763833D02*
X16446176Y-14773357D01*
X16446176Y-14773357D02*
X16455700Y-14792404D01*
X16455700Y-14792404D02*
X16455700Y-14849547D01*
X16455700Y-14849547D02*
X16446176Y-14868595D01*
X16446176Y-14868595D02*
X16436652Y-14878119D01*
X16436652Y-14878119D02*
X16417605Y-14887643D01*
X16417605Y-14887643D02*
X16389033Y-14887643D01*
X16512843Y-14754309D02*
X16589033Y-14754309D01*
X16541414Y-14687643D02*
X16541414Y-14859071D01*
X16541414Y-14859071D02*
X16550938Y-14878119D01*
X16550938Y-14878119D02*
X16569986Y-14887643D01*
X16569986Y-14887643D02*
X16589033Y-14887643D01*
X16808081Y-14754309D02*
X16808081Y-14954309D01*
X16808081Y-14763833D02*
X16827129Y-14754309D01*
X16827129Y-14754309D02*
X16865224Y-14754309D01*
X16865224Y-14754309D02*
X16884272Y-14763833D01*
X16884272Y-14763833D02*
X16893795Y-14773357D01*
X16893795Y-14773357D02*
X16903319Y-14792404D01*
X16903319Y-14792404D02*
X16903319Y-14849547D01*
X16903319Y-14849547D02*
X16893795Y-14868595D01*
X16893795Y-14868595D02*
X16884272Y-14878119D01*
X16884272Y-14878119D02*
X16865224Y-14887643D01*
X16865224Y-14887643D02*
X16827129Y-14887643D01*
X16827129Y-14887643D02*
X16808081Y-14878119D01*
X17017605Y-14887643D02*
X16998557Y-14878119D01*
X16998557Y-14878119D02*
X16989034Y-14859071D01*
X16989034Y-14859071D02*
X16989034Y-14687643D01*
X17179510Y-14887643D02*
X17179510Y-14782881D01*
X17179510Y-14782881D02*
X17169986Y-14763833D01*
X17169986Y-14763833D02*
X17150938Y-14754309D01*
X17150938Y-14754309D02*
X17112843Y-14754309D01*
X17112843Y-14754309D02*
X17093795Y-14763833D01*
X17179510Y-14878119D02*
X17160462Y-14887643D01*
X17160462Y-14887643D02*
X17112843Y-14887643D01*
X17112843Y-14887643D02*
X17093795Y-14878119D01*
X17093795Y-14878119D02*
X17084272Y-14859071D01*
X17084272Y-14859071D02*
X17084272Y-14840023D01*
X17084272Y-14840023D02*
X17093795Y-14820976D01*
X17093795Y-14820976D02*
X17112843Y-14811452D01*
X17112843Y-14811452D02*
X17160462Y-14811452D01*
X17160462Y-14811452D02*
X17179510Y-14801928D01*
X17246176Y-14754309D02*
X17322367Y-14754309D01*
X17274748Y-14687643D02*
X17274748Y-14859071D01*
X17274748Y-14859071D02*
X17284272Y-14878119D01*
X17284272Y-14878119D02*
X17303319Y-14887643D01*
X17303319Y-14887643D02*
X17322367Y-14887643D01*
X17465224Y-14878119D02*
X17446176Y-14887643D01*
X17446176Y-14887643D02*
X17408081Y-14887643D01*
X17408081Y-14887643D02*
X17389034Y-14878119D01*
X17389034Y-14878119D02*
X17379510Y-14859071D01*
X17379510Y-14859071D02*
X17379510Y-14782881D01*
X17379510Y-14782881D02*
X17389034Y-14763833D01*
X17389034Y-14763833D02*
X17408081Y-14754309D01*
X17408081Y-14754309D02*
X17446176Y-14754309D01*
X17446176Y-14754309D02*
X17465224Y-14763833D01*
X17465224Y-14763833D02*
X17474748Y-14782881D01*
X17474748Y-14782881D02*
X17474748Y-14801928D01*
X17474748Y-14801928D02*
X17379510Y-14820976D01*
X17646176Y-14887643D02*
X17646176Y-14687643D01*
X17646176Y-14878119D02*
X17627129Y-14887643D01*
X17627129Y-14887643D02*
X17589034Y-14887643D01*
X17589034Y-14887643D02*
X17569986Y-14878119D01*
X17569986Y-14878119D02*
X17560462Y-14868595D01*
X17560462Y-14868595D02*
X17550938Y-14849547D01*
X17550938Y-14849547D02*
X17550938Y-14792404D01*
X17550938Y-14792404D02*
X17560462Y-14773357D01*
X17560462Y-14773357D02*
X17569986Y-14763833D01*
X17569986Y-14763833D02*
X17589034Y-14754309D01*
X17589034Y-14754309D02*
X17627129Y-14754309D01*
X17627129Y-14754309D02*
X17646176Y-14763833D01*
X17722367Y-14963833D02*
X17731891Y-14954309D01*
X17731891Y-14954309D02*
X17750938Y-14925738D01*
X17750938Y-14925738D02*
X17760462Y-14906690D01*
X17760462Y-14906690D02*
X17769986Y-14878119D01*
X17769986Y-14878119D02*
X17779510Y-14830500D01*
X17779510Y-14830500D02*
X17779510Y-14792404D01*
X17779510Y-14792404D02*
X17769986Y-14744785D01*
X17769986Y-14744785D02*
X17760462Y-14716214D01*
X17760462Y-14716214D02*
X17750938Y-14697166D01*
X17750938Y-14697166D02*
X17731891Y-14668595D01*
X17731891Y-14668595D02*
X17722367Y-14659071D01*
M02*
