G04 #@! TF.GenerationSoftware,KiCad,Pcbnew,9.0.1*
G04 #@! TF.CreationDate,2025-06-18T17:33:09-04:00*
G04 #@! TF.ProjectId,chop up the soul kanye,63686f70-2075-4702-9074-686520736f75,rev?*
G04 #@! TF.SameCoordinates,Original*
G04 #@! TF.FileFunction,Legend,Top*
G04 #@! TF.FilePolarity,Positive*
%FSLAX46Y46*%
G04 Gerber Fmt 4.6, Leading zero omitted, Abs format (unit mm)*
G04 Created by KiCad (PCBNEW 9.0.1) date 2025-06-18 17:33:09*
%MOMM*%
%LPD*%
G01*
G04 APERTURE LIST*
G04 Aperture macros list*
%AMRoundRect*
0 Rectangle with rounded corners*
0 $1 Rounding radius*
0 $2 $3 $4 $5 $6 $7 $8 $9 X,Y pos of 4 corners*
0 Add a 4 corners polygon primitive as box body*
4,1,4,$2,$3,$4,$5,$6,$7,$8,$9,$2,$3,0*
0 Add four circle primitives for the rounded corners*
1,1,$1+$1,$2,$3*
1,1,$1+$1,$4,$5*
1,1,$1+$1,$6,$7*
1,1,$1+$1,$8,$9*
0 Add four rect primitives between the rounded corners*
20,1,$1+$1,$2,$3,$4,$5,0*
20,1,$1+$1,$4,$5,$6,$7,0*
20,1,$1+$1,$6,$7,$8,$9,0*
20,1,$1+$1,$8,$9,$2,$3,0*%
G04 Aperture macros list end*
%ADD10C,0.100000*%
%ADD11C,0.150000*%
%ADD12C,0.101600*%
%ADD13C,0.120000*%
%ADD14C,0.040000*%
%ADD15C,0.127000*%
%ADD16C,0.504000*%
%ADD17R,1.600000X1.600000*%
%ADD18O,1.600000X1.600000*%
%ADD19C,1.700000*%
%ADD20C,4.000000*%
%ADD21C,2.200000*%
%ADD22C,1.500000*%
%ADD23R,2.000000X2.000000*%
%ADD24C,2.000000*%
%ADD25R,3.200000X2.000000*%
%ADD26R,1.700000X1.700000*%
%ADD27O,1.700000X1.700000*%
%ADD28RoundRect,0.152400X0.609600X-1.063600X0.609600X1.063600X-0.609600X1.063600X-0.609600X-1.063600X0*%
%ADD29C,1.524000*%
%ADD30RoundRect,0.152400X-0.609600X1.063600X-0.609600X-1.063600X0.609600X-1.063600X0.609600X1.063600X0*%
G04 APERTURE END LIST*
D10*
X180311487Y-126000000D02*
X180311487Y-123500000D01*
X180311487Y-88500000D02*
X175311487Y-88500000D01*
X175311487Y-93500000D02*
X180311487Y-93500000D01*
X180311487Y-86500000D02*
X180311487Y-83500000D01*
X175311487Y-123500000D02*
X175311487Y-126000000D01*
X175311487Y-96000000D02*
X180311487Y-96000000D01*
X175311487Y-126000000D02*
X180311487Y-126000000D01*
X175311487Y-86500000D02*
X180311487Y-86500000D01*
X180311487Y-128500000D02*
X175311487Y-128500000D01*
X175311487Y-98500000D02*
X180311487Y-98500000D01*
X175311487Y-93500000D02*
X175311487Y-98500000D01*
X180311487Y-103500000D02*
X175311487Y-103500000D01*
X175311487Y-118500000D02*
X180311487Y-118500000D01*
X180311487Y-126000000D02*
X180311487Y-128500000D01*
X175311487Y-106000000D02*
X180311487Y-106000000D01*
X175311487Y-108500000D02*
X180311487Y-108500000D01*
X175311487Y-83500000D02*
X175311487Y-86500000D01*
X180311487Y-113500000D02*
X175311487Y-118500000D01*
X175311487Y-103500000D02*
X175311487Y-108500000D01*
X180311487Y-86500000D02*
X180311487Y-88500000D01*
X175311487Y-113500000D02*
X180311487Y-113500000D01*
D11*
X121787201Y-85834819D02*
X121787201Y-84834819D01*
X121787201Y-84834819D02*
X122025296Y-84834819D01*
X122025296Y-84834819D02*
X122168153Y-84882438D01*
X122168153Y-84882438D02*
X122263391Y-84977676D01*
X122263391Y-84977676D02*
X122311010Y-85072914D01*
X122311010Y-85072914D02*
X122358629Y-85263390D01*
X122358629Y-85263390D02*
X122358629Y-85406247D01*
X122358629Y-85406247D02*
X122311010Y-85596723D01*
X122311010Y-85596723D02*
X122263391Y-85691961D01*
X122263391Y-85691961D02*
X122168153Y-85787200D01*
X122168153Y-85787200D02*
X122025296Y-85834819D01*
X122025296Y-85834819D02*
X121787201Y-85834819D01*
X123311010Y-85834819D02*
X122739582Y-85834819D01*
X123025296Y-85834819D02*
X123025296Y-84834819D01*
X123025296Y-84834819D02*
X122930058Y-84977676D01*
X122930058Y-84977676D02*
X122834820Y-85072914D01*
X122834820Y-85072914D02*
X122739582Y-85120533D01*
X123930058Y-84834819D02*
X124025296Y-84834819D01*
X124025296Y-84834819D02*
X124120534Y-84882438D01*
X124120534Y-84882438D02*
X124168153Y-84930057D01*
X124168153Y-84930057D02*
X124215772Y-85025295D01*
X124215772Y-85025295D02*
X124263391Y-85215771D01*
X124263391Y-85215771D02*
X124263391Y-85453866D01*
X124263391Y-85453866D02*
X124215772Y-85644342D01*
X124215772Y-85644342D02*
X124168153Y-85739580D01*
X124168153Y-85739580D02*
X124120534Y-85787200D01*
X124120534Y-85787200D02*
X124025296Y-85834819D01*
X124025296Y-85834819D02*
X123930058Y-85834819D01*
X123930058Y-85834819D02*
X123834820Y-85787200D01*
X123834820Y-85787200D02*
X123787201Y-85739580D01*
X123787201Y-85739580D02*
X123739582Y-85644342D01*
X123739582Y-85644342D02*
X123691963Y-85453866D01*
X123691963Y-85453866D02*
X123691963Y-85215771D01*
X123691963Y-85215771D02*
X123739582Y-85025295D01*
X123739582Y-85025295D02*
X123787201Y-84930057D01*
X123787201Y-84930057D02*
X123834820Y-84882438D01*
X123834820Y-84882438D02*
X123930058Y-84834819D01*
X118929582Y-86154819D02*
X118929582Y-85154819D01*
X119501010Y-86154819D02*
X119072439Y-85583390D01*
X119501010Y-85154819D02*
X118929582Y-85726247D01*
X142263392Y-132334819D02*
X142263392Y-131334819D01*
X142263392Y-131334819D02*
X142501487Y-131334819D01*
X142501487Y-131334819D02*
X142644344Y-131382438D01*
X142644344Y-131382438D02*
X142739582Y-131477676D01*
X142739582Y-131477676D02*
X142787201Y-131572914D01*
X142787201Y-131572914D02*
X142834820Y-131763390D01*
X142834820Y-131763390D02*
X142834820Y-131906247D01*
X142834820Y-131906247D02*
X142787201Y-132096723D01*
X142787201Y-132096723D02*
X142739582Y-132191961D01*
X142739582Y-132191961D02*
X142644344Y-132287200D01*
X142644344Y-132287200D02*
X142501487Y-132334819D01*
X142501487Y-132334819D02*
X142263392Y-132334819D01*
X143691963Y-131334819D02*
X143501487Y-131334819D01*
X143501487Y-131334819D02*
X143406249Y-131382438D01*
X143406249Y-131382438D02*
X143358630Y-131430057D01*
X143358630Y-131430057D02*
X143263392Y-131572914D01*
X143263392Y-131572914D02*
X143215773Y-131763390D01*
X143215773Y-131763390D02*
X143215773Y-132144342D01*
X143215773Y-132144342D02*
X143263392Y-132239580D01*
X143263392Y-132239580D02*
X143311011Y-132287200D01*
X143311011Y-132287200D02*
X143406249Y-132334819D01*
X143406249Y-132334819D02*
X143596725Y-132334819D01*
X143596725Y-132334819D02*
X143691963Y-132287200D01*
X143691963Y-132287200D02*
X143739582Y-132239580D01*
X143739582Y-132239580D02*
X143787201Y-132144342D01*
X143787201Y-132144342D02*
X143787201Y-131906247D01*
X143787201Y-131906247D02*
X143739582Y-131811009D01*
X143739582Y-131811009D02*
X143691963Y-131763390D01*
X143691963Y-131763390D02*
X143596725Y-131715771D01*
X143596725Y-131715771D02*
X143406249Y-131715771D01*
X143406249Y-131715771D02*
X143311011Y-131763390D01*
X143311011Y-131763390D02*
X143263392Y-131811009D01*
X143263392Y-131811009D02*
X143215773Y-131906247D01*
X138929582Y-132654819D02*
X138929582Y-131654819D01*
X139501010Y-132654819D02*
X139072439Y-132083390D01*
X139501010Y-131654819D02*
X138929582Y-132226247D01*
X120763392Y-132834819D02*
X120763392Y-131834819D01*
X120763392Y-131834819D02*
X121001487Y-131834819D01*
X121001487Y-131834819D02*
X121144344Y-131882438D01*
X121144344Y-131882438D02*
X121239582Y-131977676D01*
X121239582Y-131977676D02*
X121287201Y-132072914D01*
X121287201Y-132072914D02*
X121334820Y-132263390D01*
X121334820Y-132263390D02*
X121334820Y-132406247D01*
X121334820Y-132406247D02*
X121287201Y-132596723D01*
X121287201Y-132596723D02*
X121239582Y-132691961D01*
X121239582Y-132691961D02*
X121144344Y-132787200D01*
X121144344Y-132787200D02*
X121001487Y-132834819D01*
X121001487Y-132834819D02*
X120763392Y-132834819D01*
X122191963Y-132168152D02*
X122191963Y-132834819D01*
X121953868Y-131787200D02*
X121715773Y-132501485D01*
X121715773Y-132501485D02*
X122334820Y-132501485D01*
X117429582Y-133154819D02*
X117429582Y-132154819D01*
X118001010Y-133154819D02*
X117572439Y-132583390D01*
X118001010Y-132154819D02*
X117429582Y-132726247D01*
X158938154Y-115123200D02*
X159081011Y-115170819D01*
X159081011Y-115170819D02*
X159319106Y-115170819D01*
X159319106Y-115170819D02*
X159414344Y-115123200D01*
X159414344Y-115123200D02*
X159461963Y-115075580D01*
X159461963Y-115075580D02*
X159509582Y-114980342D01*
X159509582Y-114980342D02*
X159509582Y-114885104D01*
X159509582Y-114885104D02*
X159461963Y-114789866D01*
X159461963Y-114789866D02*
X159414344Y-114742247D01*
X159414344Y-114742247D02*
X159319106Y-114694628D01*
X159319106Y-114694628D02*
X159128630Y-114647009D01*
X159128630Y-114647009D02*
X159033392Y-114599390D01*
X159033392Y-114599390D02*
X158985773Y-114551771D01*
X158985773Y-114551771D02*
X158938154Y-114456533D01*
X158938154Y-114456533D02*
X158938154Y-114361295D01*
X158938154Y-114361295D02*
X158985773Y-114266057D01*
X158985773Y-114266057D02*
X159033392Y-114218438D01*
X159033392Y-114218438D02*
X159128630Y-114170819D01*
X159128630Y-114170819D02*
X159366725Y-114170819D01*
X159366725Y-114170819D02*
X159509582Y-114218438D01*
X159842916Y-114170819D02*
X160081011Y-115170819D01*
X160081011Y-115170819D02*
X160271487Y-114456533D01*
X160271487Y-114456533D02*
X160461963Y-115170819D01*
X160461963Y-115170819D02*
X160700059Y-114170819D01*
X161128630Y-115170819D02*
X161319106Y-115170819D01*
X161319106Y-115170819D02*
X161414344Y-115123200D01*
X161414344Y-115123200D02*
X161461963Y-115075580D01*
X161461963Y-115075580D02*
X161557201Y-114932723D01*
X161557201Y-114932723D02*
X161604820Y-114742247D01*
X161604820Y-114742247D02*
X161604820Y-114361295D01*
X161604820Y-114361295D02*
X161557201Y-114266057D01*
X161557201Y-114266057D02*
X161509582Y-114218438D01*
X161509582Y-114218438D02*
X161414344Y-114170819D01*
X161414344Y-114170819D02*
X161223868Y-114170819D01*
X161223868Y-114170819D02*
X161128630Y-114218438D01*
X161128630Y-114218438D02*
X161081011Y-114266057D01*
X161081011Y-114266057D02*
X161033392Y-114361295D01*
X161033392Y-114361295D02*
X161033392Y-114599390D01*
X161033392Y-114599390D02*
X161081011Y-114694628D01*
X161081011Y-114694628D02*
X161128630Y-114742247D01*
X161128630Y-114742247D02*
X161223868Y-114789866D01*
X161223868Y-114789866D02*
X161414344Y-114789866D01*
X161414344Y-114789866D02*
X161509582Y-114742247D01*
X161509582Y-114742247D02*
X161557201Y-114694628D01*
X161557201Y-114694628D02*
X161604820Y-114599390D01*
X139938154Y-115033200D02*
X140081011Y-115080819D01*
X140081011Y-115080819D02*
X140319106Y-115080819D01*
X140319106Y-115080819D02*
X140414344Y-115033200D01*
X140414344Y-115033200D02*
X140461963Y-114985580D01*
X140461963Y-114985580D02*
X140509582Y-114890342D01*
X140509582Y-114890342D02*
X140509582Y-114795104D01*
X140509582Y-114795104D02*
X140461963Y-114699866D01*
X140461963Y-114699866D02*
X140414344Y-114652247D01*
X140414344Y-114652247D02*
X140319106Y-114604628D01*
X140319106Y-114604628D02*
X140128630Y-114557009D01*
X140128630Y-114557009D02*
X140033392Y-114509390D01*
X140033392Y-114509390D02*
X139985773Y-114461771D01*
X139985773Y-114461771D02*
X139938154Y-114366533D01*
X139938154Y-114366533D02*
X139938154Y-114271295D01*
X139938154Y-114271295D02*
X139985773Y-114176057D01*
X139985773Y-114176057D02*
X140033392Y-114128438D01*
X140033392Y-114128438D02*
X140128630Y-114080819D01*
X140128630Y-114080819D02*
X140366725Y-114080819D01*
X140366725Y-114080819D02*
X140509582Y-114128438D01*
X140842916Y-114080819D02*
X141081011Y-115080819D01*
X141081011Y-115080819D02*
X141271487Y-114366533D01*
X141271487Y-114366533D02*
X141461963Y-115080819D01*
X141461963Y-115080819D02*
X141700059Y-114080819D01*
X141985773Y-114080819D02*
X142652439Y-114080819D01*
X142652439Y-114080819D02*
X142223868Y-115080819D01*
X161653154Y-65877200D02*
X161796011Y-65924819D01*
X161796011Y-65924819D02*
X162034106Y-65924819D01*
X162034106Y-65924819D02*
X162129344Y-65877200D01*
X162129344Y-65877200D02*
X162176963Y-65829580D01*
X162176963Y-65829580D02*
X162224582Y-65734342D01*
X162224582Y-65734342D02*
X162224582Y-65639104D01*
X162224582Y-65639104D02*
X162176963Y-65543866D01*
X162176963Y-65543866D02*
X162129344Y-65496247D01*
X162129344Y-65496247D02*
X162034106Y-65448628D01*
X162034106Y-65448628D02*
X161843630Y-65401009D01*
X161843630Y-65401009D02*
X161748392Y-65353390D01*
X161748392Y-65353390D02*
X161700773Y-65305771D01*
X161700773Y-65305771D02*
X161653154Y-65210533D01*
X161653154Y-65210533D02*
X161653154Y-65115295D01*
X161653154Y-65115295D02*
X161700773Y-65020057D01*
X161700773Y-65020057D02*
X161748392Y-64972438D01*
X161748392Y-64972438D02*
X161843630Y-64924819D01*
X161843630Y-64924819D02*
X162081725Y-64924819D01*
X162081725Y-64924819D02*
X162224582Y-64972438D01*
X162557916Y-64924819D02*
X162796011Y-65924819D01*
X162796011Y-65924819D02*
X162986487Y-65210533D01*
X162986487Y-65210533D02*
X163176963Y-65924819D01*
X163176963Y-65924819D02*
X163415059Y-64924819D01*
X164319820Y-65924819D02*
X163748392Y-65924819D01*
X164034106Y-65924819D02*
X164034106Y-64924819D01*
X164034106Y-64924819D02*
X163938868Y-65067676D01*
X163938868Y-65067676D02*
X163843630Y-65162914D01*
X163843630Y-65162914D02*
X163748392Y-65210533D01*
X142263392Y-86334819D02*
X142263392Y-85334819D01*
X142263392Y-85334819D02*
X142501487Y-85334819D01*
X142501487Y-85334819D02*
X142644344Y-85382438D01*
X142644344Y-85382438D02*
X142739582Y-85477676D01*
X142739582Y-85477676D02*
X142787201Y-85572914D01*
X142787201Y-85572914D02*
X142834820Y-85763390D01*
X142834820Y-85763390D02*
X142834820Y-85906247D01*
X142834820Y-85906247D02*
X142787201Y-86096723D01*
X142787201Y-86096723D02*
X142739582Y-86191961D01*
X142739582Y-86191961D02*
X142644344Y-86287200D01*
X142644344Y-86287200D02*
X142501487Y-86334819D01*
X142501487Y-86334819D02*
X142263392Y-86334819D01*
X143311011Y-86334819D02*
X143501487Y-86334819D01*
X143501487Y-86334819D02*
X143596725Y-86287200D01*
X143596725Y-86287200D02*
X143644344Y-86239580D01*
X143644344Y-86239580D02*
X143739582Y-86096723D01*
X143739582Y-86096723D02*
X143787201Y-85906247D01*
X143787201Y-85906247D02*
X143787201Y-85525295D01*
X143787201Y-85525295D02*
X143739582Y-85430057D01*
X143739582Y-85430057D02*
X143691963Y-85382438D01*
X143691963Y-85382438D02*
X143596725Y-85334819D01*
X143596725Y-85334819D02*
X143406249Y-85334819D01*
X143406249Y-85334819D02*
X143311011Y-85382438D01*
X143311011Y-85382438D02*
X143263392Y-85430057D01*
X143263392Y-85430057D02*
X143215773Y-85525295D01*
X143215773Y-85525295D02*
X143215773Y-85763390D01*
X143215773Y-85763390D02*
X143263392Y-85858628D01*
X143263392Y-85858628D02*
X143311011Y-85906247D01*
X143311011Y-85906247D02*
X143406249Y-85953866D01*
X143406249Y-85953866D02*
X143596725Y-85953866D01*
X143596725Y-85953866D02*
X143691963Y-85906247D01*
X143691963Y-85906247D02*
X143739582Y-85858628D01*
X143739582Y-85858628D02*
X143787201Y-85763390D01*
X138929582Y-86654819D02*
X138929582Y-85654819D01*
X139501010Y-86654819D02*
X139072439Y-86083390D01*
X139501010Y-85654819D02*
X138929582Y-86226247D01*
X139978154Y-91613200D02*
X140121011Y-91660819D01*
X140121011Y-91660819D02*
X140359106Y-91660819D01*
X140359106Y-91660819D02*
X140454344Y-91613200D01*
X140454344Y-91613200D02*
X140501963Y-91565580D01*
X140501963Y-91565580D02*
X140549582Y-91470342D01*
X140549582Y-91470342D02*
X140549582Y-91375104D01*
X140549582Y-91375104D02*
X140501963Y-91279866D01*
X140501963Y-91279866D02*
X140454344Y-91232247D01*
X140454344Y-91232247D02*
X140359106Y-91184628D01*
X140359106Y-91184628D02*
X140168630Y-91137009D01*
X140168630Y-91137009D02*
X140073392Y-91089390D01*
X140073392Y-91089390D02*
X140025773Y-91041771D01*
X140025773Y-91041771D02*
X139978154Y-90946533D01*
X139978154Y-90946533D02*
X139978154Y-90851295D01*
X139978154Y-90851295D02*
X140025773Y-90756057D01*
X140025773Y-90756057D02*
X140073392Y-90708438D01*
X140073392Y-90708438D02*
X140168630Y-90660819D01*
X140168630Y-90660819D02*
X140406725Y-90660819D01*
X140406725Y-90660819D02*
X140549582Y-90708438D01*
X140882916Y-90660819D02*
X141121011Y-91660819D01*
X141121011Y-91660819D02*
X141311487Y-90946533D01*
X141311487Y-90946533D02*
X141501963Y-91660819D01*
X141501963Y-91660819D02*
X141740059Y-90660819D01*
X142549582Y-90660819D02*
X142359106Y-90660819D01*
X142359106Y-90660819D02*
X142263868Y-90708438D01*
X142263868Y-90708438D02*
X142216249Y-90756057D01*
X142216249Y-90756057D02*
X142121011Y-90898914D01*
X142121011Y-90898914D02*
X142073392Y-91089390D01*
X142073392Y-91089390D02*
X142073392Y-91470342D01*
X142073392Y-91470342D02*
X142121011Y-91565580D01*
X142121011Y-91565580D02*
X142168630Y-91613200D01*
X142168630Y-91613200D02*
X142263868Y-91660819D01*
X142263868Y-91660819D02*
X142454344Y-91660819D01*
X142454344Y-91660819D02*
X142549582Y-91613200D01*
X142549582Y-91613200D02*
X142597201Y-91565580D01*
X142597201Y-91565580D02*
X142644820Y-91470342D01*
X142644820Y-91470342D02*
X142644820Y-91232247D01*
X142644820Y-91232247D02*
X142597201Y-91137009D01*
X142597201Y-91137009D02*
X142549582Y-91089390D01*
X142549582Y-91089390D02*
X142454344Y-91041771D01*
X142454344Y-91041771D02*
X142263868Y-91041771D01*
X142263868Y-91041771D02*
X142168630Y-91089390D01*
X142168630Y-91089390D02*
X142121011Y-91137009D01*
X142121011Y-91137009D02*
X142073392Y-91232247D01*
X158978154Y-91703200D02*
X159121011Y-91750819D01*
X159121011Y-91750819D02*
X159359106Y-91750819D01*
X159359106Y-91750819D02*
X159454344Y-91703200D01*
X159454344Y-91703200D02*
X159501963Y-91655580D01*
X159501963Y-91655580D02*
X159549582Y-91560342D01*
X159549582Y-91560342D02*
X159549582Y-91465104D01*
X159549582Y-91465104D02*
X159501963Y-91369866D01*
X159501963Y-91369866D02*
X159454344Y-91322247D01*
X159454344Y-91322247D02*
X159359106Y-91274628D01*
X159359106Y-91274628D02*
X159168630Y-91227009D01*
X159168630Y-91227009D02*
X159073392Y-91179390D01*
X159073392Y-91179390D02*
X159025773Y-91131771D01*
X159025773Y-91131771D02*
X158978154Y-91036533D01*
X158978154Y-91036533D02*
X158978154Y-90941295D01*
X158978154Y-90941295D02*
X159025773Y-90846057D01*
X159025773Y-90846057D02*
X159073392Y-90798438D01*
X159073392Y-90798438D02*
X159168630Y-90750819D01*
X159168630Y-90750819D02*
X159406725Y-90750819D01*
X159406725Y-90750819D02*
X159549582Y-90798438D01*
X159882916Y-90750819D02*
X160121011Y-91750819D01*
X160121011Y-91750819D02*
X160311487Y-91036533D01*
X160311487Y-91036533D02*
X160501963Y-91750819D01*
X160501963Y-91750819D02*
X160740059Y-90750819D01*
X161263868Y-91179390D02*
X161168630Y-91131771D01*
X161168630Y-91131771D02*
X161121011Y-91084152D01*
X161121011Y-91084152D02*
X161073392Y-90988914D01*
X161073392Y-90988914D02*
X161073392Y-90941295D01*
X161073392Y-90941295D02*
X161121011Y-90846057D01*
X161121011Y-90846057D02*
X161168630Y-90798438D01*
X161168630Y-90798438D02*
X161263868Y-90750819D01*
X161263868Y-90750819D02*
X161454344Y-90750819D01*
X161454344Y-90750819D02*
X161549582Y-90798438D01*
X161549582Y-90798438D02*
X161597201Y-90846057D01*
X161597201Y-90846057D02*
X161644820Y-90941295D01*
X161644820Y-90941295D02*
X161644820Y-90988914D01*
X161644820Y-90988914D02*
X161597201Y-91084152D01*
X161597201Y-91084152D02*
X161549582Y-91131771D01*
X161549582Y-91131771D02*
X161454344Y-91179390D01*
X161454344Y-91179390D02*
X161263868Y-91179390D01*
X161263868Y-91179390D02*
X161168630Y-91227009D01*
X161168630Y-91227009D02*
X161121011Y-91274628D01*
X161121011Y-91274628D02*
X161073392Y-91369866D01*
X161073392Y-91369866D02*
X161073392Y-91560342D01*
X161073392Y-91560342D02*
X161121011Y-91655580D01*
X161121011Y-91655580D02*
X161168630Y-91703200D01*
X161168630Y-91703200D02*
X161263868Y-91750819D01*
X161263868Y-91750819D02*
X161454344Y-91750819D01*
X161454344Y-91750819D02*
X161549582Y-91703200D01*
X161549582Y-91703200D02*
X161597201Y-91655580D01*
X161597201Y-91655580D02*
X161644820Y-91560342D01*
X161644820Y-91560342D02*
X161644820Y-91369866D01*
X161644820Y-91369866D02*
X161597201Y-91274628D01*
X161597201Y-91274628D02*
X161549582Y-91227009D01*
X161549582Y-91227009D02*
X161454344Y-91179390D01*
X120628154Y-91613200D02*
X120771011Y-91660819D01*
X120771011Y-91660819D02*
X121009106Y-91660819D01*
X121009106Y-91660819D02*
X121104344Y-91613200D01*
X121104344Y-91613200D02*
X121151963Y-91565580D01*
X121151963Y-91565580D02*
X121199582Y-91470342D01*
X121199582Y-91470342D02*
X121199582Y-91375104D01*
X121199582Y-91375104D02*
X121151963Y-91279866D01*
X121151963Y-91279866D02*
X121104344Y-91232247D01*
X121104344Y-91232247D02*
X121009106Y-91184628D01*
X121009106Y-91184628D02*
X120818630Y-91137009D01*
X120818630Y-91137009D02*
X120723392Y-91089390D01*
X120723392Y-91089390D02*
X120675773Y-91041771D01*
X120675773Y-91041771D02*
X120628154Y-90946533D01*
X120628154Y-90946533D02*
X120628154Y-90851295D01*
X120628154Y-90851295D02*
X120675773Y-90756057D01*
X120675773Y-90756057D02*
X120723392Y-90708438D01*
X120723392Y-90708438D02*
X120818630Y-90660819D01*
X120818630Y-90660819D02*
X121056725Y-90660819D01*
X121056725Y-90660819D02*
X121199582Y-90708438D01*
X121532916Y-90660819D02*
X121771011Y-91660819D01*
X121771011Y-91660819D02*
X121961487Y-90946533D01*
X121961487Y-90946533D02*
X122151963Y-91660819D01*
X122151963Y-91660819D02*
X122390059Y-90660819D01*
X122675773Y-90660819D02*
X123294820Y-90660819D01*
X123294820Y-90660819D02*
X122961487Y-91041771D01*
X122961487Y-91041771D02*
X123104344Y-91041771D01*
X123104344Y-91041771D02*
X123199582Y-91089390D01*
X123199582Y-91089390D02*
X123247201Y-91137009D01*
X123247201Y-91137009D02*
X123294820Y-91232247D01*
X123294820Y-91232247D02*
X123294820Y-91470342D01*
X123294820Y-91470342D02*
X123247201Y-91565580D01*
X123247201Y-91565580D02*
X123199582Y-91613200D01*
X123199582Y-91613200D02*
X123104344Y-91660819D01*
X123104344Y-91660819D02*
X122818630Y-91660819D01*
X122818630Y-91660819D02*
X122723392Y-91613200D01*
X122723392Y-91613200D02*
X122675773Y-91565580D01*
X121763392Y-109334819D02*
X121763392Y-108334819D01*
X121763392Y-108334819D02*
X122001487Y-108334819D01*
X122001487Y-108334819D02*
X122144344Y-108382438D01*
X122144344Y-108382438D02*
X122239582Y-108477676D01*
X122239582Y-108477676D02*
X122287201Y-108572914D01*
X122287201Y-108572914D02*
X122334820Y-108763390D01*
X122334820Y-108763390D02*
X122334820Y-108906247D01*
X122334820Y-108906247D02*
X122287201Y-109096723D01*
X122287201Y-109096723D02*
X122239582Y-109191961D01*
X122239582Y-109191961D02*
X122144344Y-109287200D01*
X122144344Y-109287200D02*
X122001487Y-109334819D01*
X122001487Y-109334819D02*
X121763392Y-109334819D01*
X122715773Y-108430057D02*
X122763392Y-108382438D01*
X122763392Y-108382438D02*
X122858630Y-108334819D01*
X122858630Y-108334819D02*
X123096725Y-108334819D01*
X123096725Y-108334819D02*
X123191963Y-108382438D01*
X123191963Y-108382438D02*
X123239582Y-108430057D01*
X123239582Y-108430057D02*
X123287201Y-108525295D01*
X123287201Y-108525295D02*
X123287201Y-108620533D01*
X123287201Y-108620533D02*
X123239582Y-108763390D01*
X123239582Y-108763390D02*
X122668154Y-109334819D01*
X122668154Y-109334819D02*
X123287201Y-109334819D01*
X118429582Y-109654819D02*
X118429582Y-108654819D01*
X119001010Y-109654819D02*
X118572439Y-109083390D01*
X119001010Y-108654819D02*
X118429582Y-109226247D01*
X160763392Y-132334819D02*
X160763392Y-131334819D01*
X160763392Y-131334819D02*
X161001487Y-131334819D01*
X161001487Y-131334819D02*
X161144344Y-131382438D01*
X161144344Y-131382438D02*
X161239582Y-131477676D01*
X161239582Y-131477676D02*
X161287201Y-131572914D01*
X161287201Y-131572914D02*
X161334820Y-131763390D01*
X161334820Y-131763390D02*
X161334820Y-131906247D01*
X161334820Y-131906247D02*
X161287201Y-132096723D01*
X161287201Y-132096723D02*
X161239582Y-132191961D01*
X161239582Y-132191961D02*
X161144344Y-132287200D01*
X161144344Y-132287200D02*
X161001487Y-132334819D01*
X161001487Y-132334819D02*
X160763392Y-132334819D01*
X161906249Y-131763390D02*
X161811011Y-131715771D01*
X161811011Y-131715771D02*
X161763392Y-131668152D01*
X161763392Y-131668152D02*
X161715773Y-131572914D01*
X161715773Y-131572914D02*
X161715773Y-131525295D01*
X161715773Y-131525295D02*
X161763392Y-131430057D01*
X161763392Y-131430057D02*
X161811011Y-131382438D01*
X161811011Y-131382438D02*
X161906249Y-131334819D01*
X161906249Y-131334819D02*
X162096725Y-131334819D01*
X162096725Y-131334819D02*
X162191963Y-131382438D01*
X162191963Y-131382438D02*
X162239582Y-131430057D01*
X162239582Y-131430057D02*
X162287201Y-131525295D01*
X162287201Y-131525295D02*
X162287201Y-131572914D01*
X162287201Y-131572914D02*
X162239582Y-131668152D01*
X162239582Y-131668152D02*
X162191963Y-131715771D01*
X162191963Y-131715771D02*
X162096725Y-131763390D01*
X162096725Y-131763390D02*
X161906249Y-131763390D01*
X161906249Y-131763390D02*
X161811011Y-131811009D01*
X161811011Y-131811009D02*
X161763392Y-131858628D01*
X161763392Y-131858628D02*
X161715773Y-131953866D01*
X161715773Y-131953866D02*
X161715773Y-132144342D01*
X161715773Y-132144342D02*
X161763392Y-132239580D01*
X161763392Y-132239580D02*
X161811011Y-132287200D01*
X161811011Y-132287200D02*
X161906249Y-132334819D01*
X161906249Y-132334819D02*
X162096725Y-132334819D01*
X162096725Y-132334819D02*
X162191963Y-132287200D01*
X162191963Y-132287200D02*
X162239582Y-132239580D01*
X162239582Y-132239580D02*
X162287201Y-132144342D01*
X162287201Y-132144342D02*
X162287201Y-131953866D01*
X162287201Y-131953866D02*
X162239582Y-131858628D01*
X162239582Y-131858628D02*
X162191963Y-131811009D01*
X162191963Y-131811009D02*
X162096725Y-131763390D01*
X157429582Y-132654819D02*
X157429582Y-131654819D01*
X158001010Y-132654819D02*
X157572439Y-132083390D01*
X158001010Y-131654819D02*
X157429582Y-132226247D01*
X160263392Y-108834819D02*
X160263392Y-107834819D01*
X160263392Y-107834819D02*
X160501487Y-107834819D01*
X160501487Y-107834819D02*
X160644344Y-107882438D01*
X160644344Y-107882438D02*
X160739582Y-107977676D01*
X160739582Y-107977676D02*
X160787201Y-108072914D01*
X160787201Y-108072914D02*
X160834820Y-108263390D01*
X160834820Y-108263390D02*
X160834820Y-108406247D01*
X160834820Y-108406247D02*
X160787201Y-108596723D01*
X160787201Y-108596723D02*
X160739582Y-108691961D01*
X160739582Y-108691961D02*
X160644344Y-108787200D01*
X160644344Y-108787200D02*
X160501487Y-108834819D01*
X160501487Y-108834819D02*
X160263392Y-108834819D01*
X161168154Y-107834819D02*
X161834820Y-107834819D01*
X161834820Y-107834819D02*
X161406249Y-108834819D01*
X156929582Y-109154819D02*
X156929582Y-108154819D01*
X157501010Y-109154819D02*
X157072439Y-108583390D01*
X157501010Y-108154819D02*
X156929582Y-108726247D01*
X120111963Y-68533200D02*
X120254820Y-68580819D01*
X120254820Y-68580819D02*
X120492915Y-68580819D01*
X120492915Y-68580819D02*
X120588153Y-68533200D01*
X120588153Y-68533200D02*
X120635772Y-68485580D01*
X120635772Y-68485580D02*
X120683391Y-68390342D01*
X120683391Y-68390342D02*
X120683391Y-68295104D01*
X120683391Y-68295104D02*
X120635772Y-68199866D01*
X120635772Y-68199866D02*
X120588153Y-68152247D01*
X120588153Y-68152247D02*
X120492915Y-68104628D01*
X120492915Y-68104628D02*
X120302439Y-68057009D01*
X120302439Y-68057009D02*
X120207201Y-68009390D01*
X120207201Y-68009390D02*
X120159582Y-67961771D01*
X120159582Y-67961771D02*
X120111963Y-67866533D01*
X120111963Y-67866533D02*
X120111963Y-67771295D01*
X120111963Y-67771295D02*
X120159582Y-67676057D01*
X120159582Y-67676057D02*
X120207201Y-67628438D01*
X120207201Y-67628438D02*
X120302439Y-67580819D01*
X120302439Y-67580819D02*
X120540534Y-67580819D01*
X120540534Y-67580819D02*
X120683391Y-67628438D01*
X121016725Y-67580819D02*
X121254820Y-68580819D01*
X121254820Y-68580819D02*
X121445296Y-67866533D01*
X121445296Y-67866533D02*
X121635772Y-68580819D01*
X121635772Y-68580819D02*
X121873868Y-67580819D01*
X122778629Y-68580819D02*
X122207201Y-68580819D01*
X122492915Y-68580819D02*
X122492915Y-67580819D01*
X122492915Y-67580819D02*
X122397677Y-67723676D01*
X122397677Y-67723676D02*
X122302439Y-67818914D01*
X122302439Y-67818914D02*
X122207201Y-67866533D01*
X123731010Y-68580819D02*
X123159582Y-68580819D01*
X123445296Y-68580819D02*
X123445296Y-67580819D01*
X123445296Y-67580819D02*
X123350058Y-67723676D01*
X123350058Y-67723676D02*
X123254820Y-67818914D01*
X123254820Y-67818914D02*
X123159582Y-67866533D01*
X123166306Y-53013333D02*
X123880591Y-53013333D01*
X123880591Y-53013333D02*
X124023448Y-53060952D01*
X124023448Y-53060952D02*
X124118687Y-53156190D01*
X124118687Y-53156190D02*
X124166306Y-53299047D01*
X124166306Y-53299047D02*
X124166306Y-53394285D01*
X124166306Y-52013333D02*
X124166306Y-52584761D01*
X124166306Y-52299047D02*
X123166306Y-52299047D01*
X123166306Y-52299047D02*
X123309163Y-52394285D01*
X123309163Y-52394285D02*
X123404401Y-52489523D01*
X123404401Y-52489523D02*
X123452020Y-52584761D01*
X136882915Y-52224819D02*
X137073391Y-52224819D01*
X137073391Y-52224819D02*
X137168629Y-52272438D01*
X137168629Y-52272438D02*
X137263867Y-52367676D01*
X137263867Y-52367676D02*
X137311486Y-52558152D01*
X137311486Y-52558152D02*
X137311486Y-52891485D01*
X137311486Y-52891485D02*
X137263867Y-53081961D01*
X137263867Y-53081961D02*
X137168629Y-53177200D01*
X137168629Y-53177200D02*
X137073391Y-53224819D01*
X137073391Y-53224819D02*
X136882915Y-53224819D01*
X136882915Y-53224819D02*
X136787677Y-53177200D01*
X136787677Y-53177200D02*
X136692439Y-53081961D01*
X136692439Y-53081961D02*
X136644820Y-52891485D01*
X136644820Y-52891485D02*
X136644820Y-52558152D01*
X136644820Y-52558152D02*
X136692439Y-52367676D01*
X136692439Y-52367676D02*
X136787677Y-52272438D01*
X136787677Y-52272438D02*
X136882915Y-52224819D01*
X138216248Y-53224819D02*
X137740058Y-53224819D01*
X137740058Y-53224819D02*
X137740058Y-52224819D01*
X138549582Y-52701009D02*
X138882915Y-52701009D01*
X139025772Y-53224819D02*
X138549582Y-53224819D01*
X138549582Y-53224819D02*
X138549582Y-52224819D01*
X138549582Y-52224819D02*
X139025772Y-52224819D01*
X139454344Y-53224819D02*
X139454344Y-52224819D01*
X139454344Y-52224819D02*
X139692439Y-52224819D01*
X139692439Y-52224819D02*
X139835296Y-52272438D01*
X139835296Y-52272438D02*
X139930534Y-52367676D01*
X139930534Y-52367676D02*
X139978153Y-52462914D01*
X139978153Y-52462914D02*
X140025772Y-52653390D01*
X140025772Y-52653390D02*
X140025772Y-52796247D01*
X140025772Y-52796247D02*
X139978153Y-52986723D01*
X139978153Y-52986723D02*
X139930534Y-53081961D01*
X139930534Y-53081961D02*
X139835296Y-53177200D01*
X139835296Y-53177200D02*
X139692439Y-53224819D01*
X139692439Y-53224819D02*
X139454344Y-53224819D01*
X141216249Y-53224819D02*
X141216249Y-52224819D01*
X141216249Y-52224819D02*
X141597201Y-52224819D01*
X141597201Y-52224819D02*
X141692439Y-52272438D01*
X141692439Y-52272438D02*
X141740058Y-52320057D01*
X141740058Y-52320057D02*
X141787677Y-52415295D01*
X141787677Y-52415295D02*
X141787677Y-52558152D01*
X141787677Y-52558152D02*
X141740058Y-52653390D01*
X141740058Y-52653390D02*
X141692439Y-52701009D01*
X141692439Y-52701009D02*
X141597201Y-52748628D01*
X141597201Y-52748628D02*
X141216249Y-52748628D01*
X142644820Y-53224819D02*
X142644820Y-52701009D01*
X142644820Y-52701009D02*
X142597201Y-52605771D01*
X142597201Y-52605771D02*
X142501963Y-52558152D01*
X142501963Y-52558152D02*
X142311487Y-52558152D01*
X142311487Y-52558152D02*
X142216249Y-52605771D01*
X142644820Y-53177200D02*
X142549582Y-53224819D01*
X142549582Y-53224819D02*
X142311487Y-53224819D01*
X142311487Y-53224819D02*
X142216249Y-53177200D01*
X142216249Y-53177200D02*
X142168630Y-53081961D01*
X142168630Y-53081961D02*
X142168630Y-52986723D01*
X142168630Y-52986723D02*
X142216249Y-52891485D01*
X142216249Y-52891485D02*
X142311487Y-52843866D01*
X142311487Y-52843866D02*
X142549582Y-52843866D01*
X142549582Y-52843866D02*
X142644820Y-52796247D01*
X143121011Y-52558152D02*
X143121011Y-53224819D01*
X143121011Y-52653390D02*
X143168630Y-52605771D01*
X143168630Y-52605771D02*
X143263868Y-52558152D01*
X143263868Y-52558152D02*
X143406725Y-52558152D01*
X143406725Y-52558152D02*
X143501963Y-52605771D01*
X143501963Y-52605771D02*
X143549582Y-52701009D01*
X143549582Y-52701009D02*
X143549582Y-53224819D01*
X144406725Y-53177200D02*
X144311487Y-53224819D01*
X144311487Y-53224819D02*
X144121011Y-53224819D01*
X144121011Y-53224819D02*
X144025773Y-53177200D01*
X144025773Y-53177200D02*
X143978154Y-53081961D01*
X143978154Y-53081961D02*
X143978154Y-52701009D01*
X143978154Y-52701009D02*
X144025773Y-52605771D01*
X144025773Y-52605771D02*
X144121011Y-52558152D01*
X144121011Y-52558152D02*
X144311487Y-52558152D01*
X144311487Y-52558152D02*
X144406725Y-52605771D01*
X144406725Y-52605771D02*
X144454344Y-52701009D01*
X144454344Y-52701009D02*
X144454344Y-52796247D01*
X144454344Y-52796247D02*
X143978154Y-52891485D01*
X145025773Y-53224819D02*
X144930535Y-53177200D01*
X144930535Y-53177200D02*
X144882916Y-53081961D01*
X144882916Y-53081961D02*
X144882916Y-52224819D01*
X156614937Y-54932856D02*
X156650651Y-54825714D01*
X156650651Y-54825714D02*
X156650651Y-54647142D01*
X156650651Y-54647142D02*
X156614937Y-54575714D01*
X156614937Y-54575714D02*
X156579222Y-54539999D01*
X156579222Y-54539999D02*
X156507794Y-54504285D01*
X156507794Y-54504285D02*
X156436365Y-54504285D01*
X156436365Y-54504285D02*
X156364937Y-54539999D01*
X156364937Y-54539999D02*
X156329222Y-54575714D01*
X156329222Y-54575714D02*
X156293508Y-54647142D01*
X156293508Y-54647142D02*
X156257794Y-54789999D01*
X156257794Y-54789999D02*
X156222079Y-54861428D01*
X156222079Y-54861428D02*
X156186365Y-54897142D01*
X156186365Y-54897142D02*
X156114937Y-54932856D01*
X156114937Y-54932856D02*
X156043508Y-54932856D01*
X156043508Y-54932856D02*
X155972079Y-54897142D01*
X155972079Y-54897142D02*
X155936365Y-54861428D01*
X155936365Y-54861428D02*
X155900651Y-54789999D01*
X155900651Y-54789999D02*
X155900651Y-54611428D01*
X155900651Y-54611428D02*
X155936365Y-54504285D01*
X156579222Y-53754285D02*
X156614937Y-53789999D01*
X156614937Y-53789999D02*
X156650651Y-53897142D01*
X156650651Y-53897142D02*
X156650651Y-53968570D01*
X156650651Y-53968570D02*
X156614937Y-54075713D01*
X156614937Y-54075713D02*
X156543508Y-54147142D01*
X156543508Y-54147142D02*
X156472079Y-54182856D01*
X156472079Y-54182856D02*
X156329222Y-54218570D01*
X156329222Y-54218570D02*
X156222079Y-54218570D01*
X156222079Y-54218570D02*
X156079222Y-54182856D01*
X156079222Y-54182856D02*
X156007794Y-54147142D01*
X156007794Y-54147142D02*
X155936365Y-54075713D01*
X155936365Y-54075713D02*
X155900651Y-53968570D01*
X155900651Y-53968570D02*
X155900651Y-53897142D01*
X155900651Y-53897142D02*
X155936365Y-53789999D01*
X155936365Y-53789999D02*
X155972079Y-53754285D01*
X156650651Y-53075713D02*
X156650651Y-53432856D01*
X156650651Y-53432856D02*
X155900651Y-53432856D01*
X155936365Y-49531428D02*
X155900651Y-49602857D01*
X155900651Y-49602857D02*
X155900651Y-49709999D01*
X155900651Y-49709999D02*
X155936365Y-49817142D01*
X155936365Y-49817142D02*
X156007794Y-49888571D01*
X156007794Y-49888571D02*
X156079222Y-49924285D01*
X156079222Y-49924285D02*
X156222079Y-49959999D01*
X156222079Y-49959999D02*
X156329222Y-49959999D01*
X156329222Y-49959999D02*
X156472079Y-49924285D01*
X156472079Y-49924285D02*
X156543508Y-49888571D01*
X156543508Y-49888571D02*
X156614937Y-49817142D01*
X156614937Y-49817142D02*
X156650651Y-49709999D01*
X156650651Y-49709999D02*
X156650651Y-49638571D01*
X156650651Y-49638571D02*
X156614937Y-49531428D01*
X156614937Y-49531428D02*
X156579222Y-49495714D01*
X156579222Y-49495714D02*
X156329222Y-49495714D01*
X156329222Y-49495714D02*
X156329222Y-49638571D01*
X156650651Y-49174285D02*
X155900651Y-49174285D01*
X155900651Y-49174285D02*
X156650651Y-48745714D01*
X156650651Y-48745714D02*
X155900651Y-48745714D01*
X156650651Y-48388571D02*
X155900651Y-48388571D01*
X155900651Y-48388571D02*
X155900651Y-48210000D01*
X155900651Y-48210000D02*
X155936365Y-48102857D01*
X155936365Y-48102857D02*
X156007794Y-48031428D01*
X156007794Y-48031428D02*
X156079222Y-47995714D01*
X156079222Y-47995714D02*
X156222079Y-47960000D01*
X156222079Y-47960000D02*
X156329222Y-47960000D01*
X156329222Y-47960000D02*
X156472079Y-47995714D01*
X156472079Y-47995714D02*
X156543508Y-48031428D01*
X156543508Y-48031428D02*
X156614937Y-48102857D01*
X156614937Y-48102857D02*
X156650651Y-48210000D01*
X156650651Y-48210000D02*
X156650651Y-48388571D01*
X156614937Y-57490713D02*
X156650651Y-57383571D01*
X156650651Y-57383571D02*
X156650651Y-57204999D01*
X156650651Y-57204999D02*
X156614937Y-57133571D01*
X156614937Y-57133571D02*
X156579222Y-57097856D01*
X156579222Y-57097856D02*
X156507794Y-57062142D01*
X156507794Y-57062142D02*
X156436365Y-57062142D01*
X156436365Y-57062142D02*
X156364937Y-57097856D01*
X156364937Y-57097856D02*
X156329222Y-57133571D01*
X156329222Y-57133571D02*
X156293508Y-57204999D01*
X156293508Y-57204999D02*
X156257794Y-57347856D01*
X156257794Y-57347856D02*
X156222079Y-57419285D01*
X156222079Y-57419285D02*
X156186365Y-57454999D01*
X156186365Y-57454999D02*
X156114937Y-57490713D01*
X156114937Y-57490713D02*
X156043508Y-57490713D01*
X156043508Y-57490713D02*
X155972079Y-57454999D01*
X155972079Y-57454999D02*
X155936365Y-57419285D01*
X155936365Y-57419285D02*
X155900651Y-57347856D01*
X155900651Y-57347856D02*
X155900651Y-57169285D01*
X155900651Y-57169285D02*
X155936365Y-57062142D01*
X156650651Y-56740713D02*
X155900651Y-56740713D01*
X155900651Y-56740713D02*
X155900651Y-56562142D01*
X155900651Y-56562142D02*
X155936365Y-56454999D01*
X155936365Y-56454999D02*
X156007794Y-56383570D01*
X156007794Y-56383570D02*
X156079222Y-56347856D01*
X156079222Y-56347856D02*
X156222079Y-56312142D01*
X156222079Y-56312142D02*
X156329222Y-56312142D01*
X156329222Y-56312142D02*
X156472079Y-56347856D01*
X156472079Y-56347856D02*
X156543508Y-56383570D01*
X156543508Y-56383570D02*
X156614937Y-56454999D01*
X156614937Y-56454999D02*
X156650651Y-56562142D01*
X156650651Y-56562142D02*
X156650651Y-56740713D01*
X156436365Y-56026427D02*
X156436365Y-55669285D01*
X156650651Y-56097856D02*
X155900651Y-55847856D01*
X155900651Y-55847856D02*
X156650651Y-55597856D01*
X155900651Y-52499999D02*
X156650651Y-52249999D01*
X156650651Y-52249999D02*
X155900651Y-51999999D01*
X156579222Y-51321428D02*
X156614937Y-51357142D01*
X156614937Y-51357142D02*
X156650651Y-51464285D01*
X156650651Y-51464285D02*
X156650651Y-51535713D01*
X156650651Y-51535713D02*
X156614937Y-51642856D01*
X156614937Y-51642856D02*
X156543508Y-51714285D01*
X156543508Y-51714285D02*
X156472079Y-51749999D01*
X156472079Y-51749999D02*
X156329222Y-51785713D01*
X156329222Y-51785713D02*
X156222079Y-51785713D01*
X156222079Y-51785713D02*
X156079222Y-51749999D01*
X156079222Y-51749999D02*
X156007794Y-51714285D01*
X156007794Y-51714285D02*
X155936365Y-51642856D01*
X155936365Y-51642856D02*
X155900651Y-51535713D01*
X155900651Y-51535713D02*
X155900651Y-51464285D01*
X155900651Y-51464285D02*
X155936365Y-51357142D01*
X155936365Y-51357142D02*
X155972079Y-51321428D01*
X156579222Y-50571428D02*
X156614937Y-50607142D01*
X156614937Y-50607142D02*
X156650651Y-50714285D01*
X156650651Y-50714285D02*
X156650651Y-50785713D01*
X156650651Y-50785713D02*
X156614937Y-50892856D01*
X156614937Y-50892856D02*
X156543508Y-50964285D01*
X156543508Y-50964285D02*
X156472079Y-50999999D01*
X156472079Y-50999999D02*
X156329222Y-51035713D01*
X156329222Y-51035713D02*
X156222079Y-51035713D01*
X156222079Y-51035713D02*
X156079222Y-50999999D01*
X156079222Y-50999999D02*
X156007794Y-50964285D01*
X156007794Y-50964285D02*
X155936365Y-50892856D01*
X155936365Y-50892856D02*
X155900651Y-50785713D01*
X155900651Y-50785713D02*
X155900651Y-50714285D01*
X155900651Y-50714285D02*
X155936365Y-50607142D01*
X155936365Y-50607142D02*
X155972079Y-50571428D01*
D12*
X187038007Y-41396190D02*
X186523960Y-41396190D01*
X186523960Y-41396190D02*
X186463484Y-41426428D01*
X186463484Y-41426428D02*
X186433246Y-41456666D01*
X186433246Y-41456666D02*
X186403007Y-41517142D01*
X186403007Y-41517142D02*
X186403007Y-41638095D01*
X186403007Y-41638095D02*
X186433246Y-41698571D01*
X186433246Y-41698571D02*
X186463484Y-41728809D01*
X186463484Y-41728809D02*
X186523960Y-41759047D01*
X186523960Y-41759047D02*
X187038007Y-41759047D01*
X186403007Y-42394047D02*
X186403007Y-42031190D01*
X186403007Y-42212618D02*
X187038007Y-42212618D01*
X187038007Y-42212618D02*
X186947293Y-42152142D01*
X186947293Y-42152142D02*
X186886817Y-42091666D01*
X186886817Y-42091666D02*
X186856579Y-42031190D01*
D11*
X120588154Y-115033200D02*
X120731011Y-115080819D01*
X120731011Y-115080819D02*
X120969106Y-115080819D01*
X120969106Y-115080819D02*
X121064344Y-115033200D01*
X121064344Y-115033200D02*
X121111963Y-114985580D01*
X121111963Y-114985580D02*
X121159582Y-114890342D01*
X121159582Y-114890342D02*
X121159582Y-114795104D01*
X121159582Y-114795104D02*
X121111963Y-114699866D01*
X121111963Y-114699866D02*
X121064344Y-114652247D01*
X121064344Y-114652247D02*
X120969106Y-114604628D01*
X120969106Y-114604628D02*
X120778630Y-114557009D01*
X120778630Y-114557009D02*
X120683392Y-114509390D01*
X120683392Y-114509390D02*
X120635773Y-114461771D01*
X120635773Y-114461771D02*
X120588154Y-114366533D01*
X120588154Y-114366533D02*
X120588154Y-114271295D01*
X120588154Y-114271295D02*
X120635773Y-114176057D01*
X120635773Y-114176057D02*
X120683392Y-114128438D01*
X120683392Y-114128438D02*
X120778630Y-114080819D01*
X120778630Y-114080819D02*
X121016725Y-114080819D01*
X121016725Y-114080819D02*
X121159582Y-114128438D01*
X121492916Y-114080819D02*
X121731011Y-115080819D01*
X121731011Y-115080819D02*
X121921487Y-114366533D01*
X121921487Y-114366533D02*
X122111963Y-115080819D01*
X122111963Y-115080819D02*
X122350059Y-114080819D01*
X123207201Y-114080819D02*
X122731011Y-114080819D01*
X122731011Y-114080819D02*
X122683392Y-114557009D01*
X122683392Y-114557009D02*
X122731011Y-114509390D01*
X122731011Y-114509390D02*
X122826249Y-114461771D01*
X122826249Y-114461771D02*
X123064344Y-114461771D01*
X123064344Y-114461771D02*
X123159582Y-114509390D01*
X123159582Y-114509390D02*
X123207201Y-114557009D01*
X123207201Y-114557009D02*
X123254820Y-114652247D01*
X123254820Y-114652247D02*
X123254820Y-114890342D01*
X123254820Y-114890342D02*
X123207201Y-114985580D01*
X123207201Y-114985580D02*
X123159582Y-115033200D01*
X123159582Y-115033200D02*
X123064344Y-115080819D01*
X123064344Y-115080819D02*
X122826249Y-115080819D01*
X122826249Y-115080819D02*
X122731011Y-115033200D01*
X122731011Y-115033200D02*
X122683392Y-114985580D01*
X141763392Y-108834819D02*
X141763392Y-107834819D01*
X141763392Y-107834819D02*
X142001487Y-107834819D01*
X142001487Y-107834819D02*
X142144344Y-107882438D01*
X142144344Y-107882438D02*
X142239582Y-107977676D01*
X142239582Y-107977676D02*
X142287201Y-108072914D01*
X142287201Y-108072914D02*
X142334820Y-108263390D01*
X142334820Y-108263390D02*
X142334820Y-108406247D01*
X142334820Y-108406247D02*
X142287201Y-108596723D01*
X142287201Y-108596723D02*
X142239582Y-108691961D01*
X142239582Y-108691961D02*
X142144344Y-108787200D01*
X142144344Y-108787200D02*
X142001487Y-108834819D01*
X142001487Y-108834819D02*
X141763392Y-108834819D01*
X143239582Y-107834819D02*
X142763392Y-107834819D01*
X142763392Y-107834819D02*
X142715773Y-108311009D01*
X142715773Y-108311009D02*
X142763392Y-108263390D01*
X142763392Y-108263390D02*
X142858630Y-108215771D01*
X142858630Y-108215771D02*
X143096725Y-108215771D01*
X143096725Y-108215771D02*
X143191963Y-108263390D01*
X143191963Y-108263390D02*
X143239582Y-108311009D01*
X143239582Y-108311009D02*
X143287201Y-108406247D01*
X143287201Y-108406247D02*
X143287201Y-108644342D01*
X143287201Y-108644342D02*
X143239582Y-108739580D01*
X143239582Y-108739580D02*
X143191963Y-108787200D01*
X143191963Y-108787200D02*
X143096725Y-108834819D01*
X143096725Y-108834819D02*
X142858630Y-108834819D01*
X142858630Y-108834819D02*
X142763392Y-108787200D01*
X142763392Y-108787200D02*
X142715773Y-108739580D01*
X138429582Y-109154819D02*
X138429582Y-108154819D01*
X139001010Y-109154819D02*
X138572439Y-108583390D01*
X139001010Y-108154819D02*
X138429582Y-108726247D01*
X139111963Y-68533200D02*
X139254820Y-68580819D01*
X139254820Y-68580819D02*
X139492915Y-68580819D01*
X139492915Y-68580819D02*
X139588153Y-68533200D01*
X139588153Y-68533200D02*
X139635772Y-68485580D01*
X139635772Y-68485580D02*
X139683391Y-68390342D01*
X139683391Y-68390342D02*
X139683391Y-68295104D01*
X139683391Y-68295104D02*
X139635772Y-68199866D01*
X139635772Y-68199866D02*
X139588153Y-68152247D01*
X139588153Y-68152247D02*
X139492915Y-68104628D01*
X139492915Y-68104628D02*
X139302439Y-68057009D01*
X139302439Y-68057009D02*
X139207201Y-68009390D01*
X139207201Y-68009390D02*
X139159582Y-67961771D01*
X139159582Y-67961771D02*
X139111963Y-67866533D01*
X139111963Y-67866533D02*
X139111963Y-67771295D01*
X139111963Y-67771295D02*
X139159582Y-67676057D01*
X139159582Y-67676057D02*
X139207201Y-67628438D01*
X139207201Y-67628438D02*
X139302439Y-67580819D01*
X139302439Y-67580819D02*
X139540534Y-67580819D01*
X139540534Y-67580819D02*
X139683391Y-67628438D01*
X140016725Y-67580819D02*
X140254820Y-68580819D01*
X140254820Y-68580819D02*
X140445296Y-67866533D01*
X140445296Y-67866533D02*
X140635772Y-68580819D01*
X140635772Y-68580819D02*
X140873868Y-67580819D01*
X141778629Y-68580819D02*
X141207201Y-68580819D01*
X141492915Y-68580819D02*
X141492915Y-67580819D01*
X141492915Y-67580819D02*
X141397677Y-67723676D01*
X141397677Y-67723676D02*
X141302439Y-67818914D01*
X141302439Y-67818914D02*
X141207201Y-67866533D01*
X142397677Y-67580819D02*
X142492915Y-67580819D01*
X142492915Y-67580819D02*
X142588153Y-67628438D01*
X142588153Y-67628438D02*
X142635772Y-67676057D01*
X142635772Y-67676057D02*
X142683391Y-67771295D01*
X142683391Y-67771295D02*
X142731010Y-67961771D01*
X142731010Y-67961771D02*
X142731010Y-68199866D01*
X142731010Y-68199866D02*
X142683391Y-68390342D01*
X142683391Y-68390342D02*
X142635772Y-68485580D01*
X142635772Y-68485580D02*
X142588153Y-68533200D01*
X142588153Y-68533200D02*
X142492915Y-68580819D01*
X142492915Y-68580819D02*
X142397677Y-68580819D01*
X142397677Y-68580819D02*
X142302439Y-68533200D01*
X142302439Y-68533200D02*
X142254820Y-68485580D01*
X142254820Y-68485580D02*
X142207201Y-68390342D01*
X142207201Y-68390342D02*
X142159582Y-68199866D01*
X142159582Y-68199866D02*
X142159582Y-67961771D01*
X142159582Y-67961771D02*
X142207201Y-67771295D01*
X142207201Y-67771295D02*
X142254820Y-67676057D01*
X142254820Y-67676057D02*
X142302439Y-67628438D01*
X142302439Y-67628438D02*
X142397677Y-67580819D01*
D13*
G04 #@! TO.C,D10*
X120231487Y-87500000D02*
X120881487Y-87500000D01*
X120881487Y-86380000D02*
X120881487Y-88620000D01*
X120881487Y-88620000D02*
X125121487Y-88620000D01*
X121481487Y-86380000D02*
X121481487Y-88620000D01*
X121601487Y-86380000D02*
X121601487Y-88620000D01*
X121721487Y-86380000D02*
X121721487Y-88620000D01*
X125121487Y-86380000D02*
X120881487Y-86380000D01*
X125121487Y-88620000D02*
X125121487Y-86380000D01*
X125771487Y-87500000D02*
X125121487Y-87500000D01*
G04 #@! TO.C,D6*
X140231487Y-134000000D02*
X140881487Y-134000000D01*
X140881487Y-132880000D02*
X140881487Y-135120000D01*
X140881487Y-135120000D02*
X145121487Y-135120000D01*
X141481487Y-132880000D02*
X141481487Y-135120000D01*
X141601487Y-132880000D02*
X141601487Y-135120000D01*
X141721487Y-132880000D02*
X141721487Y-135120000D01*
X145121487Y-132880000D02*
X140881487Y-132880000D01*
X145121487Y-135120000D02*
X145121487Y-132880000D01*
X145771487Y-134000000D02*
X145121487Y-134000000D01*
G04 #@! TO.C,D4*
X118731487Y-134500000D02*
X119381487Y-134500000D01*
X119381487Y-133380000D02*
X119381487Y-135620000D01*
X119381487Y-135620000D02*
X123621487Y-135620000D01*
X119981487Y-133380000D02*
X119981487Y-135620000D01*
X120101487Y-133380000D02*
X120101487Y-135620000D01*
X120221487Y-133380000D02*
X120221487Y-135620000D01*
X123621487Y-133380000D02*
X119381487Y-133380000D01*
X123621487Y-135620000D02*
X123621487Y-133380000D01*
X124271487Y-134500000D02*
X123621487Y-134500000D01*
G04 #@! TO.C,SW9*
X153286487Y-115605000D02*
X167256487Y-115605000D01*
X153286487Y-129575000D02*
X153286487Y-115605000D01*
X167256487Y-115605000D02*
X167256487Y-129575000D01*
X167256487Y-129575000D02*
X153286487Y-129575000D01*
G04 #@! TO.C,SW7*
X134286487Y-115515000D02*
X148256487Y-115515000D01*
X134286487Y-129485000D02*
X134286487Y-115515000D01*
X148256487Y-115515000D02*
X148256487Y-129485000D01*
X148256487Y-129485000D02*
X134286487Y-129485000D01*
G04 #@! TO.C,SW1*
X159886487Y-68570000D02*
X160486487Y-68570000D01*
X160186487Y-68870000D02*
X159886487Y-68570000D01*
X160486487Y-68570000D02*
X160186487Y-68870000D01*
X161586487Y-66870000D02*
X161586487Y-78570000D01*
X165686487Y-66870000D02*
X161586487Y-66870000D01*
X165686487Y-78570000D02*
X161586487Y-78570000D01*
X167186487Y-72670000D02*
X168186487Y-72670000D01*
X167686487Y-72170000D02*
X167686487Y-73170000D01*
X169686487Y-66770000D02*
X173786487Y-66770000D01*
X173786487Y-66770000D02*
X173786487Y-69370000D01*
X173786487Y-71370000D02*
X173786487Y-73970000D01*
X173786487Y-75970000D02*
X173786487Y-78570000D01*
X173786487Y-78570000D02*
X169686487Y-78570000D01*
X170686487Y-72670000D02*
G75*
G02*
X164686487Y-72670000I-3000000J0D01*
G01*
X164686487Y-72670000D02*
G75*
G02*
X170686487Y-72670000I3000000J0D01*
G01*
G04 #@! TO.C,D9*
X140231487Y-88000000D02*
X140881487Y-88000000D01*
X140881487Y-86880000D02*
X140881487Y-89120000D01*
X140881487Y-89120000D02*
X145121487Y-89120000D01*
X141481487Y-86880000D02*
X141481487Y-89120000D01*
X141601487Y-86880000D02*
X141601487Y-89120000D01*
X141721487Y-86880000D02*
X141721487Y-89120000D01*
X145121487Y-86880000D02*
X140881487Y-86880000D01*
X145121487Y-89120000D02*
X145121487Y-86880000D01*
X145771487Y-88000000D02*
X145121487Y-88000000D01*
G04 #@! TO.C,SW6*
X134326487Y-92095000D02*
X148296487Y-92095000D01*
X134326487Y-106065000D02*
X134326487Y-92095000D01*
X148296487Y-92095000D02*
X148296487Y-106065000D01*
X148296487Y-106065000D02*
X134326487Y-106065000D01*
G04 #@! TO.C,SW8*
X153326487Y-92185000D02*
X167296487Y-92185000D01*
X153326487Y-106155000D02*
X153326487Y-92185000D01*
X167296487Y-92185000D02*
X167296487Y-106155000D01*
X167296487Y-106155000D02*
X153326487Y-106155000D01*
G04 #@! TO.C,SW3*
X114976487Y-92095000D02*
X128946487Y-92095000D01*
X114976487Y-106065000D02*
X114976487Y-92095000D01*
X128946487Y-92095000D02*
X128946487Y-106065000D01*
X128946487Y-106065000D02*
X114976487Y-106065000D01*
G04 #@! TO.C,D2*
X119731487Y-111000000D02*
X120381487Y-111000000D01*
X120381487Y-109880000D02*
X120381487Y-112120000D01*
X120381487Y-112120000D02*
X124621487Y-112120000D01*
X120981487Y-109880000D02*
X120981487Y-112120000D01*
X121101487Y-109880000D02*
X121101487Y-112120000D01*
X121221487Y-109880000D02*
X121221487Y-112120000D01*
X124621487Y-109880000D02*
X120381487Y-109880000D01*
X124621487Y-112120000D02*
X124621487Y-109880000D01*
X125271487Y-111000000D02*
X124621487Y-111000000D01*
G04 #@! TO.C,D8*
X158731487Y-134000000D02*
X159381487Y-134000000D01*
X159381487Y-132880000D02*
X159381487Y-135120000D01*
X159381487Y-135120000D02*
X163621487Y-135120000D01*
X159981487Y-132880000D02*
X159981487Y-135120000D01*
X160101487Y-132880000D02*
X160101487Y-135120000D01*
X160221487Y-132880000D02*
X160221487Y-135120000D01*
X163621487Y-132880000D02*
X159381487Y-132880000D01*
X163621487Y-135120000D02*
X163621487Y-132880000D01*
X164271487Y-134000000D02*
X163621487Y-134000000D01*
G04 #@! TO.C,D7*
X158231487Y-110500000D02*
X158881487Y-110500000D01*
X158881487Y-109380000D02*
X158881487Y-111620000D01*
X158881487Y-111620000D02*
X163121487Y-111620000D01*
X159481487Y-109380000D02*
X159481487Y-111620000D01*
X159601487Y-109380000D02*
X159601487Y-111620000D01*
X159721487Y-109380000D02*
X159721487Y-111620000D01*
X163121487Y-109380000D02*
X158881487Y-109380000D01*
X163121487Y-111620000D02*
X163121487Y-109380000D01*
X163771487Y-110500000D02*
X163121487Y-110500000D01*
G04 #@! TO.C,SW11*
X114936487Y-69015000D02*
X128906487Y-69015000D01*
X114936487Y-82985000D02*
X114936487Y-69015000D01*
X128906487Y-69015000D02*
X128906487Y-82985000D01*
X128906487Y-82985000D02*
X114936487Y-82985000D01*
D14*
G04 #@! TO.C,J1*
X121811487Y-46770000D02*
X121811487Y-58770000D01*
X121811487Y-58770000D02*
X159811487Y-58770000D01*
X125311487Y-46770000D02*
X125311487Y-58770000D01*
X154811487Y-46770000D02*
X154811487Y-58770000D01*
X159811487Y-46770000D02*
X121811487Y-46770000D01*
X159811487Y-58770000D02*
X159811487Y-46770000D01*
D15*
G04 #@! TO.C,U1*
X164277487Y-43395000D02*
X164277487Y-57365000D01*
X166182487Y-41490000D02*
X183327487Y-41490000D01*
X166182487Y-59270000D02*
X183327487Y-59270000D01*
X185232487Y-45885000D02*
X186142759Y-45888728D01*
D10*
X185232487Y-57365000D02*
X185232487Y-43395000D01*
D15*
X185232487Y-57365000D02*
X185232487Y-43395000D01*
X186142487Y-54884000D02*
X185232487Y-54884000D01*
X186642487Y-46388728D02*
X186642487Y-54384000D01*
X164277487Y-43395000D02*
G75*
G02*
X166182487Y-41490000I1905001J-1D01*
G01*
X166182487Y-59270000D02*
G75*
G02*
X164277487Y-57365000I0J1905000D01*
G01*
X183327487Y-41490000D02*
G75*
G02*
X185232487Y-43395000I-1J-1905001D01*
G01*
X185232487Y-57365000D02*
G75*
G02*
X183327487Y-59270000I-1905000J0D01*
G01*
X186142759Y-45888728D02*
G75*
G02*
X186642486Y-46388728I-291J-500018D01*
G01*
X186642487Y-54384000D02*
G75*
G02*
X186142487Y-54884000I-500000J0D01*
G01*
D16*
X184363487Y-42573000D02*
G75*
G02*
X183859487Y-42573000I-252000J0D01*
G01*
X183859487Y-42573000D02*
G75*
G02*
X184363487Y-42573000I252000J0D01*
G01*
X185243487Y-41430000D02*
G75*
G02*
X184739487Y-41430000I-252000J0D01*
G01*
X184739487Y-41430000D02*
G75*
G02*
X185243487Y-41430000I252000J0D01*
G01*
D13*
G04 #@! TO.C,SW5*
X114936487Y-115515000D02*
X128906487Y-115515000D01*
X114936487Y-129485000D02*
X114936487Y-115515000D01*
X128906487Y-115515000D02*
X128906487Y-129485000D01*
X128906487Y-129485000D02*
X114936487Y-129485000D01*
G04 #@! TO.C,D5*
X139731487Y-110500000D02*
X140381487Y-110500000D01*
X140381487Y-109380000D02*
X140381487Y-111620000D01*
X140381487Y-111620000D02*
X144621487Y-111620000D01*
X140981487Y-109380000D02*
X140981487Y-111620000D01*
X141101487Y-109380000D02*
X141101487Y-111620000D01*
X141221487Y-109380000D02*
X141221487Y-111620000D01*
X144621487Y-109380000D02*
X140381487Y-109380000D01*
X144621487Y-111620000D02*
X144621487Y-109380000D01*
X145271487Y-110500000D02*
X144621487Y-110500000D01*
G04 #@! TO.C,SW10*
X133936487Y-69015000D02*
X147906487Y-69015000D01*
X133936487Y-82985000D02*
X133936487Y-69015000D01*
X147906487Y-69015000D02*
X147906487Y-82985000D01*
X147906487Y-82985000D02*
X133936487Y-82985000D01*
G04 #@! TD*
%LPC*%
D17*
G04 #@! TO.C,D10*
X119191487Y-87500000D03*
D18*
X126811487Y-87500000D03*
G04 #@! TD*
D17*
G04 #@! TO.C,D6*
X139191487Y-134000000D03*
D18*
X146811487Y-134000000D03*
G04 #@! TD*
D17*
G04 #@! TO.C,D4*
X117691487Y-134500000D03*
D18*
X125311487Y-134500000D03*
G04 #@! TD*
D19*
G04 #@! TO.C,SW9*
X155191487Y-122590000D03*
D20*
X160271487Y-122590000D03*
D19*
X165351487Y-122590000D03*
D21*
X162811487Y-117510000D03*
X156461487Y-120050000D03*
G04 #@! TD*
D19*
G04 #@! TO.C,SW7*
X136191487Y-122500000D03*
D20*
X141271487Y-122500000D03*
D19*
X146351487Y-122500000D03*
D21*
X143811487Y-117420000D03*
X137461487Y-119960000D03*
G04 #@! TD*
D22*
G04 #@! TO.C,SW1*
X174686487Y-70170000D03*
X174686487Y-75170000D03*
D23*
X160186487Y-70170000D03*
D24*
X160186487Y-75170000D03*
X160186487Y-72670000D03*
D25*
X167686487Y-67070000D03*
X167686487Y-78270000D03*
G04 #@! TD*
D17*
G04 #@! TO.C,D9*
X139191487Y-88000000D03*
D18*
X146811487Y-88000000D03*
G04 #@! TD*
D19*
G04 #@! TO.C,SW6*
X136231487Y-99080000D03*
D20*
X141311487Y-99080000D03*
D19*
X146391487Y-99080000D03*
D21*
X143851487Y-94000000D03*
X137501487Y-96540000D03*
G04 #@! TD*
D19*
G04 #@! TO.C,SW8*
X155231487Y-99170000D03*
D20*
X160311487Y-99170000D03*
D19*
X165391487Y-99170000D03*
D21*
X162851487Y-94090000D03*
X156501487Y-96630000D03*
G04 #@! TD*
D19*
G04 #@! TO.C,SW3*
X116881487Y-99080000D03*
D20*
X121961487Y-99080000D03*
D19*
X127041487Y-99080000D03*
D21*
X124501487Y-94000000D03*
X118151487Y-96540000D03*
G04 #@! TD*
D17*
G04 #@! TO.C,D2*
X118691487Y-111000000D03*
D18*
X126311487Y-111000000D03*
G04 #@! TD*
D17*
G04 #@! TO.C,D8*
X157691487Y-134000000D03*
D18*
X165311487Y-134000000D03*
G04 #@! TD*
D17*
G04 #@! TO.C,D7*
X157191487Y-110500000D03*
D18*
X164811487Y-110500000D03*
G04 #@! TD*
D19*
G04 #@! TO.C,SW11*
X116841487Y-76000000D03*
D20*
X121921487Y-76000000D03*
D19*
X127001487Y-76000000D03*
D21*
X124461487Y-70920000D03*
X118111487Y-73460000D03*
G04 #@! TD*
D26*
G04 #@! TO.C,J1*
X158311487Y-48960000D03*
D27*
X158311487Y-51500000D03*
X158311487Y-54040000D03*
X158311487Y-56580000D03*
G04 #@! TD*
D28*
G04 #@! TO.C,U1*
X182311487Y-41925000D03*
D29*
X182311487Y-42760000D03*
D28*
X179771487Y-41925000D03*
D29*
X179771487Y-42760000D03*
D28*
X177231487Y-41925000D03*
D29*
X177231487Y-42760000D03*
D28*
X174691487Y-41925000D03*
D29*
X174691487Y-42760000D03*
D28*
X172151487Y-41925000D03*
D29*
X172151487Y-42760000D03*
D28*
X169611487Y-41925000D03*
D29*
X169611487Y-42760000D03*
D28*
X167071487Y-41925000D03*
D29*
X167071487Y-42760000D03*
X167071487Y-58000000D03*
D30*
X167071487Y-58835000D03*
D29*
X169611487Y-58000000D03*
D30*
X169611487Y-58835000D03*
D29*
X172151487Y-58000000D03*
D30*
X172151487Y-58835000D03*
D29*
X174691487Y-58000000D03*
D30*
X174691487Y-58835000D03*
D29*
X177231487Y-58000000D03*
D30*
X177231487Y-58835000D03*
D29*
X179771487Y-58000000D03*
D30*
X179771487Y-58835000D03*
D29*
X182311487Y-58000000D03*
D30*
X182311487Y-58835000D03*
G04 #@! TD*
D19*
G04 #@! TO.C,SW5*
X116841487Y-122500000D03*
D20*
X121921487Y-122500000D03*
D19*
X127001487Y-122500000D03*
D21*
X124461487Y-117420000D03*
X118111487Y-119960000D03*
G04 #@! TD*
D17*
G04 #@! TO.C,D5*
X138691487Y-110500000D03*
D18*
X146311487Y-110500000D03*
G04 #@! TD*
D19*
G04 #@! TO.C,SW10*
X135841487Y-76000000D03*
D20*
X140921487Y-76000000D03*
D19*
X146001487Y-76000000D03*
D21*
X143461487Y-70920000D03*
X137111487Y-73460000D03*
G04 #@! TD*
%LPD*%
M02*
