G04 #@! TF.GenerationSoftware,KiCad,Pcbnew,9.0.1*
G04 #@! TF.CreationDate,2025-06-18T17:33:08-04:00*
G04 #@! TF.ProjectId,chop up the soul kanye,63686f70-2075-4702-9074-686520736f75,rev?*
G04 #@! TF.SameCoordinates,Original*
G04 #@! TF.FileFunction,Copper,L2,Bot*
G04 #@! TF.FilePolarity,Positive*
%FSLAX46Y46*%
G04 Gerber Fmt 4.6, Leading zero omitted, Abs format (unit mm)*
G04 Created by KiCad (PCBNEW 9.0.1) date 2025-06-18 17:33:08*
%MOMM*%
%LPD*%
G01*
G04 APERTURE LIST*
G04 #@! TA.AperFunction,ComponentPad*
%ADD10R,1.600000X1.600000*%
G04 #@! TD*
G04 #@! TA.AperFunction,ComponentPad*
%ADD11O,1.600000X1.600000*%
G04 #@! TD*
G04 #@! TA.AperFunction,ComponentPad*
%ADD12C,2.200000*%
G04 #@! TD*
G04 #@! TA.AperFunction,ComponentPad*
%ADD13C,1.500000*%
G04 #@! TD*
G04 #@! TA.AperFunction,ComponentPad*
%ADD14R,2.000000X2.000000*%
G04 #@! TD*
G04 #@! TA.AperFunction,ComponentPad*
%ADD15C,2.000000*%
G04 #@! TD*
G04 #@! TA.AperFunction,ComponentPad*
%ADD16R,3.200000X2.000000*%
G04 #@! TD*
G04 #@! TA.AperFunction,ComponentPad*
%ADD17R,1.700000X1.700000*%
G04 #@! TD*
G04 #@! TA.AperFunction,ComponentPad*
%ADD18O,1.700000X1.700000*%
G04 #@! TD*
G04 #@! TA.AperFunction,ComponentPad*
%ADD19C,1.524000*%
G04 #@! TD*
G04 #@! TA.AperFunction,ViaPad*
%ADD20C,0.600000*%
G04 #@! TD*
G04 #@! TA.AperFunction,Conductor*
%ADD21C,0.200000*%
G04 #@! TD*
G04 APERTURE END LIST*
D10*
G04 #@! TO.P,D10,1,K*
G04 #@! TO.N,row 2*
X119191487Y-87500000D03*
D11*
G04 #@! TO.P,D10,2,A*
G04 #@! TO.N,Net-(D10-A)*
X126811487Y-87500000D03*
G04 #@! TD*
D10*
G04 #@! TO.P,D6,1,K*
G04 #@! TO.N,row 2*
X139191487Y-134000000D03*
D11*
G04 #@! TO.P,D6,2,A*
G04 #@! TO.N,Net-(D6-A)*
X146811487Y-134000000D03*
G04 #@! TD*
D10*
G04 #@! TO.P,D4,1,K*
G04 #@! TO.N,row 1*
X117691487Y-134500000D03*
D11*
G04 #@! TO.P,D4,2,A*
G04 #@! TO.N,Net-(D4-A)*
X125311487Y-134500000D03*
G04 #@! TD*
D12*
G04 #@! TO.P,SW9,1,1*
G04 #@! TO.N,column 0*
X162811487Y-117510000D03*
G04 #@! TO.P,SW9,2,2*
G04 #@! TO.N,Net-(D8-A)*
X156461487Y-120050000D03*
G04 #@! TD*
G04 #@! TO.P,SW7,1,1*
G04 #@! TO.N,column 1*
X143811487Y-117420000D03*
G04 #@! TO.P,SW7,2,2*
G04 #@! TO.N,Net-(D6-A)*
X137461487Y-119960000D03*
G04 #@! TD*
D13*
G04 #@! TO.P,SW1,*
G04 #@! TO.N,*
X174686487Y-70170000D03*
X174686487Y-75170000D03*
D14*
G04 #@! TO.P,SW1,A,A*
G04 #@! TO.N,ENC_A*
X160186487Y-70170000D03*
D15*
G04 #@! TO.P,SW1,B,B*
G04 #@! TO.N,ENC_B*
X160186487Y-75170000D03*
G04 #@! TO.P,SW1,C,C*
G04 #@! TO.N,gnd*
X160186487Y-72670000D03*
D16*
G04 #@! TO.P,SW1,MP*
G04 #@! TO.N,N/C*
X167686487Y-67070000D03*
X167686487Y-78270000D03*
G04 #@! TD*
D10*
G04 #@! TO.P,D9,1,K*
G04 #@! TO.N,row 1*
X139191487Y-88000000D03*
D11*
G04 #@! TO.P,D9,2,A*
G04 #@! TO.N,Net-(D9-A)*
X146811487Y-88000000D03*
G04 #@! TD*
D12*
G04 #@! TO.P,SW6,1,1*
G04 #@! TO.N,column 2*
X143851487Y-94000000D03*
G04 #@! TO.P,SW6,2,2*
G04 #@! TO.N,Net-(D5-A)*
X137501487Y-96540000D03*
G04 #@! TD*
G04 #@! TO.P,SW8,1,1*
G04 #@! TO.N,column 2*
X162851487Y-94090000D03*
G04 #@! TO.P,SW8,2,2*
G04 #@! TO.N,Net-(D7-A)*
X156501487Y-96630000D03*
G04 #@! TD*
G04 #@! TO.P,SW3,1,1*
G04 #@! TO.N,column 1*
X124501487Y-94000000D03*
G04 #@! TO.P,SW3,2,2*
G04 #@! TO.N,Net-(D2-A)*
X118151487Y-96540000D03*
G04 #@! TD*
D10*
G04 #@! TO.P,D2,1,K*
G04 #@! TO.N,row 0*
X118691487Y-111000000D03*
D11*
G04 #@! TO.P,D2,2,A*
G04 #@! TO.N,Net-(D2-A)*
X126311487Y-111000000D03*
G04 #@! TD*
D10*
G04 #@! TO.P,D8,1,K*
G04 #@! TO.N,row 0*
X157691487Y-134000000D03*
D11*
G04 #@! TO.P,D8,2,A*
G04 #@! TO.N,Net-(D8-A)*
X165311487Y-134000000D03*
G04 #@! TD*
D10*
G04 #@! TO.P,D7,1,K*
G04 #@! TO.N,row 2*
X157191487Y-110500000D03*
D11*
G04 #@! TO.P,D7,2,A*
G04 #@! TO.N,Net-(D7-A)*
X164811487Y-110500000D03*
G04 #@! TD*
D12*
G04 #@! TO.P,SW11,1,1*
G04 #@! TO.N,column 0*
X124461487Y-70920000D03*
G04 #@! TO.P,SW11,2,2*
G04 #@! TO.N,Net-(D10-A)*
X118111487Y-73460000D03*
G04 #@! TD*
D17*
G04 #@! TO.P,J1,1,Pin_1*
G04 #@! TO.N,gnd*
X158311487Y-48960000D03*
D18*
G04 #@! TO.P,J1,2,Pin_2*
G04 #@! TO.N,power*
X158311487Y-51500000D03*
G04 #@! TO.P,J1,3,Pin_3*
G04 #@! TO.N,scl*
X158311487Y-54040000D03*
G04 #@! TO.P,J1,4,Pin_4*
G04 #@! TO.N,sda*
X158311487Y-56580000D03*
G04 #@! TD*
D19*
G04 #@! TO.P,U1,1,GPIO26/ADC0/A0*
G04 #@! TO.N,unconnected-(U1-GPIO26{slash}ADC0{slash}A0-Pad1)*
X182311487Y-42760000D03*
G04 #@! TO.P,U1,2,GPIO27/ADC1/A1*
G04 #@! TO.N,column 0*
X179771487Y-42760000D03*
G04 #@! TO.P,U1,3,GPIO28/ADC2/A2*
G04 #@! TO.N,column 1*
X177231487Y-42760000D03*
G04 #@! TO.P,U1,4,GPIO29/ADC3/A3*
G04 #@! TO.N,column 2*
X174691487Y-42760000D03*
G04 #@! TO.P,U1,5,GPIO6/SDA*
G04 #@! TO.N,sda*
X172151487Y-42760000D03*
G04 #@! TO.P,U1,6,GPIO7/SCL*
G04 #@! TO.N,scl*
X169611487Y-42760000D03*
G04 #@! TO.P,U1,7,GPIO0/TX*
G04 #@! TO.N,ENC_A*
X167071487Y-42760000D03*
G04 #@! TO.P,U1,8,GPIO1/RX*
G04 #@! TO.N,ENC_B*
X167071487Y-58000000D03*
G04 #@! TO.P,U1,9,GPIO2/SCK*
G04 #@! TO.N,row 2*
X169611487Y-58000000D03*
G04 #@! TO.P,U1,10,GPIO4/MISO*
G04 #@! TO.N,row 1*
X172151487Y-58000000D03*
G04 #@! TO.P,U1,11,GPIO3/MOSI*
G04 #@! TO.N,row 0*
X174691487Y-58000000D03*
G04 #@! TO.P,U1,12,3V3*
G04 #@! TO.N,unconnected-(U1-3V3-Pad12)*
X177231487Y-58000000D03*
G04 #@! TO.P,U1,13,GND*
G04 #@! TO.N,gnd*
X179771487Y-58000000D03*
G04 #@! TO.P,U1,14,VBUS*
G04 #@! TO.N,power*
X182311487Y-58000000D03*
G04 #@! TD*
D12*
G04 #@! TO.P,SW5,1,1*
G04 #@! TO.N,column 1*
X124461487Y-117420000D03*
G04 #@! TO.P,SW5,2,2*
G04 #@! TO.N,Net-(D4-A)*
X118111487Y-119960000D03*
G04 #@! TD*
D10*
G04 #@! TO.P,D5,1,K*
G04 #@! TO.N,row 1*
X138691487Y-110500000D03*
D11*
G04 #@! TO.P,D5,2,A*
G04 #@! TO.N,Net-(D5-A)*
X146311487Y-110500000D03*
G04 #@! TD*
D12*
G04 #@! TO.P,SW10,1,1*
G04 #@! TO.N,column 0*
X143461487Y-70920000D03*
G04 #@! TO.P,SW10,2,2*
G04 #@! TO.N,Net-(D9-A)*
X137111487Y-73460000D03*
G04 #@! TD*
D20*
G04 #@! TO.N,row 1*
X140493750Y-92868750D03*
G04 #@! TO.N,column 2*
X176212500Y-45243750D03*
G04 #@! TD*
D21*
G04 #@! TO.N,Net-(D2-A)*
X126311487Y-111000000D02*
X118151487Y-102840000D01*
X118151487Y-102840000D02*
X118151487Y-96540000D01*
G04 #@! TO.N,row 1*
X123642750Y-112101000D02*
X137090487Y-112101000D01*
X140493750Y-92868750D02*
X140493750Y-90487500D01*
X115640487Y-132449000D02*
X115640487Y-120103263D01*
X137090487Y-112101000D02*
X138691487Y-110500000D01*
X117691487Y-134500000D02*
X115640487Y-132449000D01*
X140493750Y-90487500D02*
X139191487Y-89185237D01*
X115640487Y-120103263D02*
X123642750Y-112101000D01*
X139191487Y-89185237D02*
X139191487Y-88000000D01*
G04 #@! TO.N,Net-(D4-A)*
X125311487Y-134500000D02*
X118111487Y-127300000D01*
X118111487Y-127300000D02*
X118111487Y-119960000D01*
G04 #@! TO.N,Net-(D5-A)*
X137501487Y-101690000D02*
X137501487Y-96540000D01*
X146311487Y-110500000D02*
X137501487Y-101690000D01*
G04 #@! TO.N,row 2*
X153990487Y-128378050D02*
X153990487Y-113701000D01*
X169611487Y-107257050D02*
X169611487Y-58000000D01*
X153990487Y-113701000D02*
X157191487Y-110500000D01*
X147267537Y-135101000D02*
X153990487Y-128378050D01*
X156113017Y-110500000D02*
X157191487Y-110500000D01*
X140292487Y-135101000D02*
X147267537Y-135101000D01*
X165267537Y-111601000D02*
X169611487Y-107257050D01*
X120292487Y-88601000D02*
X134214017Y-88601000D01*
X119191487Y-87500000D02*
X120292487Y-88601000D01*
X134214017Y-88601000D02*
X156113017Y-110500000D01*
X157191487Y-110500000D02*
X158292487Y-111601000D01*
X139191487Y-134000000D02*
X140292487Y-135101000D01*
X158292487Y-111601000D02*
X165267537Y-111601000D01*
G04 #@! TO.N,Net-(D6-A)*
X146811487Y-134000000D02*
X137461487Y-124650000D01*
X137461487Y-124650000D02*
X137461487Y-119960000D01*
G04 #@! TO.N,Net-(D7-A)*
X156501487Y-102190000D02*
X156501487Y-96630000D01*
X164811487Y-110500000D02*
X156501487Y-102190000D01*
G04 #@! TO.N,Net-(D8-A)*
X156461487Y-125150000D02*
X156461487Y-120050000D01*
X165311487Y-134000000D02*
X156461487Y-125150000D01*
G04 #@! TO.N,Net-(D9-A)*
X146811487Y-88000000D02*
X137111487Y-78300000D01*
X137111487Y-78300000D02*
X137111487Y-73460000D01*
G04 #@! TO.N,Net-(D10-A)*
X126811487Y-87500000D02*
X118111487Y-78800000D01*
X118111487Y-78800000D02*
X118111487Y-73460000D01*
G04 #@! TO.N,power*
X157160487Y-47809000D02*
X170809000Y-47809000D01*
X157160487Y-50349000D02*
X157160487Y-47809000D01*
X180211797Y-56937000D02*
X180834487Y-57559690D01*
X180834487Y-57834487D02*
X181000000Y-58000000D01*
X180834487Y-57559690D02*
X180834487Y-57834487D01*
X170809000Y-47809000D02*
X179937000Y-56937000D01*
X179937000Y-56937000D02*
X180211797Y-56937000D01*
X158311487Y-51500000D02*
X157160487Y-50349000D01*
X181000000Y-58000000D02*
X182311487Y-58000000D01*
G04 #@! TO.N,sda*
X163354037Y-40481250D02*
X169872737Y-40481250D01*
X169872737Y-40481250D02*
X172151487Y-42760000D01*
X156358487Y-47476800D02*
X163354037Y-40481250D01*
X156358487Y-54627000D02*
X156358487Y-47476800D01*
X158311487Y-56580000D02*
X156358487Y-54627000D01*
G04 #@! TO.N,gnd*
X159647595Y-76471000D02*
X160725379Y-76471000D01*
X158885487Y-75708892D02*
X159647595Y-76471000D01*
X158311487Y-48960000D02*
X170731487Y-48960000D01*
X168134487Y-57559690D02*
X159534797Y-48960000D01*
X160186487Y-72670000D02*
X158885487Y-73971000D01*
X161925000Y-75271379D02*
X161925000Y-66675000D01*
X161925000Y-66675000D02*
X168134487Y-60465513D01*
X168134487Y-60465513D02*
X168134487Y-57559690D01*
X159534797Y-48960000D02*
X158311487Y-48960000D01*
X160725379Y-76471000D02*
X161925000Y-75271379D01*
X158885487Y-73971000D02*
X158885487Y-75708892D01*
X170731487Y-48960000D02*
X179771487Y-58000000D01*
G04 #@! TO.N,scl*
X168548487Y-43823000D02*
X169611487Y-42760000D01*
X156759487Y-52488000D02*
X156759487Y-47642900D01*
X160579387Y-43823000D02*
X168548487Y-43823000D01*
X156759487Y-47642900D02*
X160579387Y-43823000D01*
X158311487Y-54040000D02*
X156759487Y-52488000D01*
G04 #@! TO.N,ENC_B*
X161487487Y-73869000D02*
X161487487Y-63584000D01*
X161487487Y-63584000D02*
X167071487Y-58000000D01*
X160186487Y-75170000D02*
X161487487Y-73869000D01*
G04 #@! TO.N,ENC_A*
X173214487Y-43200310D02*
X173214487Y-42319690D01*
X169651047Y-40882250D02*
X171088487Y-42319690D01*
X171088487Y-42319690D02*
X171088487Y-43200310D01*
X155957487Y-47310700D02*
X155957487Y-65941000D01*
X170975047Y-40080250D02*
X163187937Y-40080250D01*
X167071487Y-42760000D02*
X168949237Y-40882250D01*
X163187937Y-40080250D02*
X155957487Y-47310700D01*
X171088487Y-43200310D02*
X171711177Y-43823000D01*
X172591797Y-43823000D02*
X173214487Y-43200310D01*
X171711177Y-43823000D02*
X172591797Y-43823000D01*
X155957487Y-65941000D02*
X160186487Y-70170000D01*
X173214487Y-42319690D02*
X170975047Y-40080250D01*
X168949237Y-40882250D02*
X169651047Y-40882250D01*
G04 #@! TO.N,column 1*
X124461487Y-117420000D02*
X143811487Y-117420000D01*
G04 #@! TO.N,column 2*
X176212500Y-44281013D02*
X174691487Y-42760000D01*
X176212500Y-45243750D02*
X176212500Y-44281013D01*
G04 #@! TD*
M02*
