M48
; DRILL file {KiCad 9.0.1} date 2025-06-18T17:33:09-0400
; FORMAT={-:-/ absolute / metric / decimal}
; #@! TF.CreationDate,2025-06-18T17:33:09-04:00
; #@! TF.GenerationSoftware,Kicad,Pcbnew,9.0.1
; #@! TF.FileFunction,Plated,1,2,PTH
FMAT,2
METRIC
; #@! TA.AperFunction,Plated,PTH,ViaDrill
T1C0.300
; #@! TA.AperFunction,Plated,PTH,ComponentDrill
T2C0.800
; #@! TA.AperFunction,Plated,PTH,ComponentDrill
T3C0.889
; #@! TA.AperFunction,Plated,PTH,ComponentDrill
T4C1.000
; #@! TA.AperFunction,Plated,PTH,ComponentDrill
T5C1.500
%
G90
G05
T1
X140.494Y-92.869
X176.213Y-45.244
T2
X117.691Y-134.5
X118.691Y-111.0
X119.191Y-87.5
X125.311Y-134.5
X126.311Y-111.0
X126.811Y-87.5
X138.691Y-110.5
X139.191Y-88.0
X139.191Y-134.0
X146.311Y-110.5
X146.811Y-88.0
X146.811Y-134.0
X157.191Y-110.5
X157.691Y-134.0
X164.811Y-110.5
X165.311Y-134.0
T3
X167.071Y-42.76
X167.071Y-58.0
X169.611Y-42.76
X169.611Y-58.0
X172.151Y-42.76
X172.151Y-58.0
X174.691Y-42.76
X174.691Y-58.0
X177.231Y-42.76
X177.231Y-58.0
X179.771Y-42.76
X179.771Y-58.0
X182.311Y-42.76
X182.311Y-58.0
T4
X158.311Y-48.96
X158.311Y-51.5
X158.311Y-54.04
X158.311Y-56.58
X160.186Y-70.17
X160.186Y-72.67
X160.186Y-75.17
X174.686Y-70.17
X174.686Y-75.17
T5
X118.111Y-73.46
X118.111Y-119.96
X118.151Y-96.54
X124.461Y-70.92
X124.461Y-117.42
X124.501Y-94.0
X137.111Y-73.46
X137.461Y-119.96
X137.501Y-96.54
X143.461Y-70.92
X143.811Y-117.42
X143.851Y-94.0
X156.461Y-120.05
X156.501Y-96.63
X162.811Y-117.51
X162.851Y-94.09
T5
G00X167.036Y-67.07
M15
G01X168.336Y-67.07
M16
G05
G00X167.036Y-78.27
M15
G01X168.336Y-78.27
M16
G05
M30
