%TF.GenerationSoftware,KiCad,Pcbnew,9.0.1*%
%TF.CreationDate,2025-06-18T17:33:09-04:00*%
%TF.ProjectId,chop up the soul kanye,63686f70-2075-4702-9074-686520736f75,rev?*%
%TF.SameCoordinates,Original*%
%TF.FileFunction,Drillmap*%
%TF.FilePolarity,Positive*%
%FSLAX45Y45*%
G04 Gerber Fmt 4.5, Leading zero omitted, Abs format (unit mm)*
G04 Created by KiCad (PCBNEW 9.0.1) date 2025-06-18 17:33:09*
%MOMM*%
%LPD*%
G01*
G04 APERTURE LIST*
%ADD10C,0.050000*%
%ADD11C,0.200000*%
%ADD12C,0.100000*%
%ADD13C,0.150000*%
G04 APERTURE END LIST*
D10*
X10968851Y-3936341D02*
X18531149Y-3936341D01*
X18531149Y-13863659D01*
X10968851Y-13863659D01*
X10968851Y-3936341D01*
D11*
D12*
X14034375Y-9271875D02*
X14064375Y-9301875D01*
X14064375Y-9271875D02*
X14034375Y-9301875D01*
X17606250Y-4509375D02*
X17636250Y-4539375D01*
X17636250Y-4509375D02*
X17606250Y-4539375D01*
X11809149Y-13450000D02*
G75*
G02*
X11729149Y-13450000I-40000J0D01*
G01*
X11729149Y-13450000D02*
G75*
G02*
X11809149Y-13450000I40000J0D01*
G01*
X11909149Y-11100000D02*
G75*
G02*
X11829149Y-11100000I-40000J0D01*
G01*
X11829149Y-11100000D02*
G75*
G02*
X11909149Y-11100000I40000J0D01*
G01*
X11959149Y-8750000D02*
G75*
G02*
X11879149Y-8750000I-40000J0D01*
G01*
X11879149Y-8750000D02*
G75*
G02*
X11959149Y-8750000I40000J0D01*
G01*
X12571149Y-13450000D02*
G75*
G02*
X12491149Y-13450000I-40000J0D01*
G01*
X12491149Y-13450000D02*
G75*
G02*
X12571149Y-13450000I40000J0D01*
G01*
X12671149Y-11100000D02*
G75*
G02*
X12591149Y-11100000I-40000J0D01*
G01*
X12591149Y-11100000D02*
G75*
G02*
X12671149Y-11100000I40000J0D01*
G01*
X12721149Y-8750000D02*
G75*
G02*
X12641149Y-8750000I-40000J0D01*
G01*
X12641149Y-8750000D02*
G75*
G02*
X12721149Y-8750000I40000J0D01*
G01*
X13909149Y-11050000D02*
G75*
G02*
X13829149Y-11050000I-40000J0D01*
G01*
X13829149Y-11050000D02*
G75*
G02*
X13909149Y-11050000I40000J0D01*
G01*
X13959149Y-8800000D02*
G75*
G02*
X13879149Y-8800000I-40000J0D01*
G01*
X13879149Y-8800000D02*
G75*
G02*
X13959149Y-8800000I40000J0D01*
G01*
X13959149Y-13400000D02*
G75*
G02*
X13879149Y-13400000I-40000J0D01*
G01*
X13879149Y-13400000D02*
G75*
G02*
X13959149Y-13400000I40000J0D01*
G01*
X14671149Y-11050000D02*
G75*
G02*
X14591149Y-11050000I-40000J0D01*
G01*
X14591149Y-11050000D02*
G75*
G02*
X14671149Y-11050000I40000J0D01*
G01*
X14721149Y-8800000D02*
G75*
G02*
X14641149Y-8800000I-40000J0D01*
G01*
X14641149Y-8800000D02*
G75*
G02*
X14721149Y-8800000I40000J0D01*
G01*
X14721149Y-13400000D02*
G75*
G02*
X14641149Y-13400000I-40000J0D01*
G01*
X14641149Y-13400000D02*
G75*
G02*
X14721149Y-13400000I40000J0D01*
G01*
X15759149Y-11050000D02*
G75*
G02*
X15679149Y-11050000I-40000J0D01*
G01*
X15679149Y-11050000D02*
G75*
G02*
X15759149Y-11050000I40000J0D01*
G01*
X15809149Y-13400000D02*
G75*
G02*
X15729149Y-13400000I-40000J0D01*
G01*
X15729149Y-13400000D02*
G75*
G02*
X15809149Y-13400000I40000J0D01*
G01*
X16521149Y-11050000D02*
G75*
G02*
X16441149Y-11050000I-40000J0D01*
G01*
X16441149Y-11050000D02*
G75*
G02*
X16521149Y-11050000I40000J0D01*
G01*
X16571149Y-13400000D02*
G75*
G02*
X16491149Y-13400000I-40000J0D01*
G01*
X16491149Y-13400000D02*
G75*
G02*
X16571149Y-13400000I40000J0D01*
G01*
X16707149Y-4231550D02*
X16707149Y-4320450D01*
X16662699Y-4276000D02*
X16751599Y-4276000D01*
X16707149Y-5755550D02*
X16707149Y-5844450D01*
X16662699Y-5800000D02*
X16751599Y-5800000D01*
X16961149Y-4231550D02*
X16961149Y-4320450D01*
X16916699Y-4276000D02*
X17005599Y-4276000D01*
X16961149Y-5755550D02*
X16961149Y-5844450D01*
X16916699Y-5800000D02*
X17005599Y-5800000D01*
X17215149Y-4231550D02*
X17215149Y-4320450D01*
X17170699Y-4276000D02*
X17259599Y-4276000D01*
X17215149Y-5755550D02*
X17215149Y-5844450D01*
X17170699Y-5800000D02*
X17259599Y-5800000D01*
X17469149Y-4231550D02*
X17469149Y-4320450D01*
X17424699Y-4276000D02*
X17513599Y-4276000D01*
X17469149Y-5755550D02*
X17469149Y-5844450D01*
X17424699Y-5800000D02*
X17513599Y-5800000D01*
X17723149Y-4231550D02*
X17723149Y-4320450D01*
X17678699Y-4276000D02*
X17767599Y-4276000D01*
X17723149Y-5755550D02*
X17723149Y-5844450D01*
X17678699Y-5800000D02*
X17767599Y-5800000D01*
X17977149Y-4231550D02*
X17977149Y-4320450D01*
X17932699Y-4276000D02*
X18021599Y-4276000D01*
X17977149Y-5755550D02*
X17977149Y-5844450D01*
X17932699Y-5800000D02*
X18021599Y-5800000D01*
X18231149Y-4231550D02*
X18231149Y-4320450D01*
X18186699Y-4276000D02*
X18275599Y-4276000D01*
X18231149Y-5755550D02*
X18231149Y-5844450D01*
X18186699Y-5800000D02*
X18275599Y-5800000D01*
X15866504Y-4931356D02*
X15866504Y-4860644D01*
X15795793Y-4860644D01*
X15795793Y-4931356D01*
X15866504Y-4931356D01*
X15866504Y-5185356D02*
X15866504Y-5114644D01*
X15795793Y-5114644D01*
X15795793Y-5185356D01*
X15866504Y-5185356D01*
X15866504Y-5439356D02*
X15866504Y-5368644D01*
X15795793Y-5368644D01*
X15795793Y-5439356D01*
X15866504Y-5439356D01*
X15866504Y-5693356D02*
X15866504Y-5622644D01*
X15795793Y-5622644D01*
X15795793Y-5693356D01*
X15866504Y-5693356D01*
X16054004Y-7052356D02*
X16054004Y-6981644D01*
X15983293Y-6981644D01*
X15983293Y-7052356D01*
X16054004Y-7052356D01*
X16054004Y-7302356D02*
X16054004Y-7231644D01*
X15983293Y-7231644D01*
X15983293Y-7302356D01*
X16054004Y-7302356D01*
X16054004Y-7552356D02*
X16054004Y-7481644D01*
X15983293Y-7481644D01*
X15983293Y-7552356D01*
X16054004Y-7552356D01*
X17504004Y-7052356D02*
X17504004Y-6981644D01*
X17433293Y-6981644D01*
X17433293Y-7052356D01*
X17504004Y-7052356D01*
X17504004Y-7552356D02*
X17504004Y-7481644D01*
X17433293Y-7481644D01*
X17433293Y-7552356D01*
X17504004Y-7552356D01*
D13*
X11811149Y-7421000D02*
X11886149Y-7346000D01*
X11811149Y-7271000D01*
X11736149Y-7346000D01*
X11811149Y-7421000D01*
X11811149Y-12071000D02*
X11886149Y-11996000D01*
X11811149Y-11921000D01*
X11736149Y-11996000D01*
X11811149Y-12071000D01*
X11815149Y-9729000D02*
X11890149Y-9654000D01*
X11815149Y-9579000D01*
X11740149Y-9654000D01*
X11815149Y-9729000D01*
X12446149Y-7167000D02*
X12521149Y-7092000D01*
X12446149Y-7017000D01*
X12371149Y-7092000D01*
X12446149Y-7167000D01*
X12446149Y-11817000D02*
X12521149Y-11742000D01*
X12446149Y-11667000D01*
X12371149Y-11742000D01*
X12446149Y-11817000D01*
X12450149Y-9475000D02*
X12525149Y-9400000D01*
X12450149Y-9325000D01*
X12375149Y-9400000D01*
X12450149Y-9475000D01*
X13711149Y-7421000D02*
X13786149Y-7346000D01*
X13711149Y-7271000D01*
X13636149Y-7346000D01*
X13711149Y-7421000D01*
X13746149Y-12071000D02*
X13821149Y-11996000D01*
X13746149Y-11921000D01*
X13671149Y-11996000D01*
X13746149Y-12071000D01*
X13750149Y-9729000D02*
X13825149Y-9654000D01*
X13750149Y-9579000D01*
X13675149Y-9654000D01*
X13750149Y-9729000D01*
X14346149Y-7167000D02*
X14421149Y-7092000D01*
X14346149Y-7017000D01*
X14271149Y-7092000D01*
X14346149Y-7167000D01*
X14381149Y-11817000D02*
X14456149Y-11742000D01*
X14381149Y-11667000D01*
X14306149Y-11742000D01*
X14381149Y-11817000D01*
X14385149Y-9475000D02*
X14460149Y-9400000D01*
X14385149Y-9325000D01*
X14310149Y-9400000D01*
X14385149Y-9475000D01*
X15646149Y-12080000D02*
X15721149Y-12005000D01*
X15646149Y-11930000D01*
X15571149Y-12005000D01*
X15646149Y-12080000D01*
X15650149Y-9738000D02*
X15725149Y-9663000D01*
X15650149Y-9588000D01*
X15575149Y-9663000D01*
X15650149Y-9738000D01*
X16281149Y-11826000D02*
X16356149Y-11751000D01*
X16281149Y-11676000D01*
X16206149Y-11751000D01*
X16281149Y-11826000D01*
X16285149Y-9484000D02*
X16360149Y-9409000D01*
X16285149Y-9334000D01*
X16210149Y-9409000D01*
X16285149Y-9484000D01*
X16768649Y-6782000D02*
X16843649Y-6707000D01*
X16768649Y-6632000D01*
X16693649Y-6707000D01*
X16768649Y-6782000D01*
D12*
X16703649Y-6782000D02*
X16833649Y-6782000D01*
X16833649Y-6632000D02*
G75*
G02*
X16833649Y-6782000I0J-75000D01*
G01*
X16833649Y-6632000D02*
X16703649Y-6632000D01*
X16703649Y-6632000D02*
G75*
G03*
X16703649Y-6782000I0J-75000D01*
G01*
D13*
X16768649Y-7902000D02*
X16843649Y-7827000D01*
X16768649Y-7752000D01*
X16693649Y-7827000D01*
X16768649Y-7902000D01*
D12*
X16703649Y-7902000D02*
X16833649Y-7902000D01*
X16833649Y-7752000D02*
G75*
G02*
X16833649Y-7902000I0J-75000D01*
G01*
X16833649Y-7752000D02*
X16703649Y-7752000D01*
X16703649Y-7752000D02*
G75*
G03*
X16703649Y-7902000I0J-75000D01*
G01*
D11*
X11227128Y-14177643D02*
X11227128Y-13977643D01*
X11227128Y-13977643D02*
X11274747Y-13977643D01*
X11274747Y-13977643D02*
X11303319Y-13987166D01*
X11303319Y-13987166D02*
X11322366Y-14006214D01*
X11322366Y-14006214D02*
X11331890Y-14025262D01*
X11331890Y-14025262D02*
X11341414Y-14063357D01*
X11341414Y-14063357D02*
X11341414Y-14091928D01*
X11341414Y-14091928D02*
X11331890Y-14130023D01*
X11331890Y-14130023D02*
X11322366Y-14149071D01*
X11322366Y-14149071D02*
X11303319Y-14168119D01*
X11303319Y-14168119D02*
X11274747Y-14177643D01*
X11274747Y-14177643D02*
X11227128Y-14177643D01*
X11427128Y-14177643D02*
X11427128Y-14044309D01*
X11427128Y-14082404D02*
X11436652Y-14063357D01*
X11436652Y-14063357D02*
X11446176Y-14053833D01*
X11446176Y-14053833D02*
X11465223Y-14044309D01*
X11465223Y-14044309D02*
X11484271Y-14044309D01*
X11550938Y-14177643D02*
X11550938Y-14044309D01*
X11550938Y-13977643D02*
X11541414Y-13987166D01*
X11541414Y-13987166D02*
X11550938Y-13996690D01*
X11550938Y-13996690D02*
X11560461Y-13987166D01*
X11560461Y-13987166D02*
X11550938Y-13977643D01*
X11550938Y-13977643D02*
X11550938Y-13996690D01*
X11674747Y-14177643D02*
X11655700Y-14168119D01*
X11655700Y-14168119D02*
X11646176Y-14149071D01*
X11646176Y-14149071D02*
X11646176Y-13977643D01*
X11779509Y-14177643D02*
X11760461Y-14168119D01*
X11760461Y-14168119D02*
X11750938Y-14149071D01*
X11750938Y-14149071D02*
X11750938Y-13977643D01*
X12008081Y-14177643D02*
X12008081Y-13977643D01*
X12008081Y-13977643D02*
X12074747Y-14120500D01*
X12074747Y-14120500D02*
X12141414Y-13977643D01*
X12141414Y-13977643D02*
X12141414Y-14177643D01*
X12322366Y-14177643D02*
X12322366Y-14072881D01*
X12322366Y-14072881D02*
X12312842Y-14053833D01*
X12312842Y-14053833D02*
X12293795Y-14044309D01*
X12293795Y-14044309D02*
X12255700Y-14044309D01*
X12255700Y-14044309D02*
X12236652Y-14053833D01*
X12322366Y-14168119D02*
X12303319Y-14177643D01*
X12303319Y-14177643D02*
X12255700Y-14177643D01*
X12255700Y-14177643D02*
X12236652Y-14168119D01*
X12236652Y-14168119D02*
X12227128Y-14149071D01*
X12227128Y-14149071D02*
X12227128Y-14130023D01*
X12227128Y-14130023D02*
X12236652Y-14110976D01*
X12236652Y-14110976D02*
X12255700Y-14101452D01*
X12255700Y-14101452D02*
X12303319Y-14101452D01*
X12303319Y-14101452D02*
X12322366Y-14091928D01*
X12417604Y-14044309D02*
X12417604Y-14244309D01*
X12417604Y-14053833D02*
X12436652Y-14044309D01*
X12436652Y-14044309D02*
X12474747Y-14044309D01*
X12474747Y-14044309D02*
X12493795Y-14053833D01*
X12493795Y-14053833D02*
X12503319Y-14063357D01*
X12503319Y-14063357D02*
X12512842Y-14082404D01*
X12512842Y-14082404D02*
X12512842Y-14139547D01*
X12512842Y-14139547D02*
X12503319Y-14158595D01*
X12503319Y-14158595D02*
X12493795Y-14168119D01*
X12493795Y-14168119D02*
X12474747Y-14177643D01*
X12474747Y-14177643D02*
X12436652Y-14177643D01*
X12436652Y-14177643D02*
X12417604Y-14168119D01*
X12598557Y-14158595D02*
X12608081Y-14168119D01*
X12608081Y-14168119D02*
X12598557Y-14177643D01*
X12598557Y-14177643D02*
X12589033Y-14168119D01*
X12589033Y-14168119D02*
X12598557Y-14158595D01*
X12598557Y-14158595D02*
X12598557Y-14177643D01*
X12598557Y-14053833D02*
X12608081Y-14063357D01*
X12608081Y-14063357D02*
X12598557Y-14072881D01*
X12598557Y-14072881D02*
X12589033Y-14063357D01*
X12589033Y-14063357D02*
X12598557Y-14053833D01*
X12598557Y-14053833D02*
X12598557Y-14072881D01*
D12*
X10936351Y-14491159D02*
X10966351Y-14521159D01*
X10966351Y-14491159D02*
X10936351Y-14521159D01*
D11*
X11265223Y-14397643D02*
X11284271Y-14397643D01*
X11284271Y-14397643D02*
X11303319Y-14407166D01*
X11303319Y-14407166D02*
X11312842Y-14416690D01*
X11312842Y-14416690D02*
X11322366Y-14435738D01*
X11322366Y-14435738D02*
X11331890Y-14473833D01*
X11331890Y-14473833D02*
X11331890Y-14521452D01*
X11331890Y-14521452D02*
X11322366Y-14559547D01*
X11322366Y-14559547D02*
X11312842Y-14578595D01*
X11312842Y-14578595D02*
X11303319Y-14588119D01*
X11303319Y-14588119D02*
X11284271Y-14597643D01*
X11284271Y-14597643D02*
X11265223Y-14597643D01*
X11265223Y-14597643D02*
X11246176Y-14588119D01*
X11246176Y-14588119D02*
X11236652Y-14578595D01*
X11236652Y-14578595D02*
X11227128Y-14559547D01*
X11227128Y-14559547D02*
X11217604Y-14521452D01*
X11217604Y-14521452D02*
X11217604Y-14473833D01*
X11217604Y-14473833D02*
X11227128Y-14435738D01*
X11227128Y-14435738D02*
X11236652Y-14416690D01*
X11236652Y-14416690D02*
X11246176Y-14407166D01*
X11246176Y-14407166D02*
X11265223Y-14397643D01*
X11417604Y-14578595D02*
X11427128Y-14588119D01*
X11427128Y-14588119D02*
X11417604Y-14597643D01*
X11417604Y-14597643D02*
X11408081Y-14588119D01*
X11408081Y-14588119D02*
X11417604Y-14578595D01*
X11417604Y-14578595D02*
X11417604Y-14597643D01*
X11493795Y-14397643D02*
X11617604Y-14397643D01*
X11617604Y-14397643D02*
X11550938Y-14473833D01*
X11550938Y-14473833D02*
X11579509Y-14473833D01*
X11579509Y-14473833D02*
X11598557Y-14483357D01*
X11598557Y-14483357D02*
X11608081Y-14492881D01*
X11608081Y-14492881D02*
X11617604Y-14511928D01*
X11617604Y-14511928D02*
X11617604Y-14559547D01*
X11617604Y-14559547D02*
X11608081Y-14578595D01*
X11608081Y-14578595D02*
X11598557Y-14588119D01*
X11598557Y-14588119D02*
X11579509Y-14597643D01*
X11579509Y-14597643D02*
X11522366Y-14597643D01*
X11522366Y-14597643D02*
X11503319Y-14588119D01*
X11503319Y-14588119D02*
X11493795Y-14578595D01*
X11741414Y-14397643D02*
X11760462Y-14397643D01*
X11760462Y-14397643D02*
X11779509Y-14407166D01*
X11779509Y-14407166D02*
X11789033Y-14416690D01*
X11789033Y-14416690D02*
X11798557Y-14435738D01*
X11798557Y-14435738D02*
X11808081Y-14473833D01*
X11808081Y-14473833D02*
X11808081Y-14521452D01*
X11808081Y-14521452D02*
X11798557Y-14559547D01*
X11798557Y-14559547D02*
X11789033Y-14578595D01*
X11789033Y-14578595D02*
X11779509Y-14588119D01*
X11779509Y-14588119D02*
X11760462Y-14597643D01*
X11760462Y-14597643D02*
X11741414Y-14597643D01*
X11741414Y-14597643D02*
X11722366Y-14588119D01*
X11722366Y-14588119D02*
X11712842Y-14578595D01*
X11712842Y-14578595D02*
X11703319Y-14559547D01*
X11703319Y-14559547D02*
X11693795Y-14521452D01*
X11693795Y-14521452D02*
X11693795Y-14473833D01*
X11693795Y-14473833D02*
X11703319Y-14435738D01*
X11703319Y-14435738D02*
X11712842Y-14416690D01*
X11712842Y-14416690D02*
X11722366Y-14407166D01*
X11722366Y-14407166D02*
X11741414Y-14397643D01*
X11931890Y-14397643D02*
X11950938Y-14397643D01*
X11950938Y-14397643D02*
X11969985Y-14407166D01*
X11969985Y-14407166D02*
X11979509Y-14416690D01*
X11979509Y-14416690D02*
X11989033Y-14435738D01*
X11989033Y-14435738D02*
X11998557Y-14473833D01*
X11998557Y-14473833D02*
X11998557Y-14521452D01*
X11998557Y-14521452D02*
X11989033Y-14559547D01*
X11989033Y-14559547D02*
X11979509Y-14578595D01*
X11979509Y-14578595D02*
X11969985Y-14588119D01*
X11969985Y-14588119D02*
X11950938Y-14597643D01*
X11950938Y-14597643D02*
X11931890Y-14597643D01*
X11931890Y-14597643D02*
X11912842Y-14588119D01*
X11912842Y-14588119D02*
X11903319Y-14578595D01*
X11903319Y-14578595D02*
X11893795Y-14559547D01*
X11893795Y-14559547D02*
X11884271Y-14521452D01*
X11884271Y-14521452D02*
X11884271Y-14473833D01*
X11884271Y-14473833D02*
X11893795Y-14435738D01*
X11893795Y-14435738D02*
X11903319Y-14416690D01*
X11903319Y-14416690D02*
X11912842Y-14407166D01*
X11912842Y-14407166D02*
X11931890Y-14397643D01*
X12084271Y-14597643D02*
X12084271Y-14464309D01*
X12084271Y-14483357D02*
X12093795Y-14473833D01*
X12093795Y-14473833D02*
X12112842Y-14464309D01*
X12112842Y-14464309D02*
X12141414Y-14464309D01*
X12141414Y-14464309D02*
X12160462Y-14473833D01*
X12160462Y-14473833D02*
X12169985Y-14492881D01*
X12169985Y-14492881D02*
X12169985Y-14597643D01*
X12169985Y-14492881D02*
X12179509Y-14473833D01*
X12179509Y-14473833D02*
X12198557Y-14464309D01*
X12198557Y-14464309D02*
X12227128Y-14464309D01*
X12227128Y-14464309D02*
X12246176Y-14473833D01*
X12246176Y-14473833D02*
X12255700Y-14492881D01*
X12255700Y-14492881D02*
X12255700Y-14597643D01*
X12350938Y-14597643D02*
X12350938Y-14464309D01*
X12350938Y-14483357D02*
X12360462Y-14473833D01*
X12360462Y-14473833D02*
X12379509Y-14464309D01*
X12379509Y-14464309D02*
X12408081Y-14464309D01*
X12408081Y-14464309D02*
X12427128Y-14473833D01*
X12427128Y-14473833D02*
X12436652Y-14492881D01*
X12436652Y-14492881D02*
X12436652Y-14597643D01*
X12436652Y-14492881D02*
X12446176Y-14473833D01*
X12446176Y-14473833D02*
X12465223Y-14464309D01*
X12465223Y-14464309D02*
X12493795Y-14464309D01*
X12493795Y-14464309D02*
X12512843Y-14473833D01*
X12512843Y-14473833D02*
X12522366Y-14492881D01*
X12522366Y-14492881D02*
X12522366Y-14597643D01*
X12912843Y-14388119D02*
X12741414Y-14645262D01*
X13169985Y-14397643D02*
X13189033Y-14397643D01*
X13189033Y-14397643D02*
X13208081Y-14407166D01*
X13208081Y-14407166D02*
X13217605Y-14416690D01*
X13217605Y-14416690D02*
X13227128Y-14435738D01*
X13227128Y-14435738D02*
X13236652Y-14473833D01*
X13236652Y-14473833D02*
X13236652Y-14521452D01*
X13236652Y-14521452D02*
X13227128Y-14559547D01*
X13227128Y-14559547D02*
X13217605Y-14578595D01*
X13217605Y-14578595D02*
X13208081Y-14588119D01*
X13208081Y-14588119D02*
X13189033Y-14597643D01*
X13189033Y-14597643D02*
X13169985Y-14597643D01*
X13169985Y-14597643D02*
X13150938Y-14588119D01*
X13150938Y-14588119D02*
X13141414Y-14578595D01*
X13141414Y-14578595D02*
X13131890Y-14559547D01*
X13131890Y-14559547D02*
X13122366Y-14521452D01*
X13122366Y-14521452D02*
X13122366Y-14473833D01*
X13122366Y-14473833D02*
X13131890Y-14435738D01*
X13131890Y-14435738D02*
X13141414Y-14416690D01*
X13141414Y-14416690D02*
X13150938Y-14407166D01*
X13150938Y-14407166D02*
X13169985Y-14397643D01*
X13322366Y-14578595D02*
X13331890Y-14588119D01*
X13331890Y-14588119D02*
X13322366Y-14597643D01*
X13322366Y-14597643D02*
X13312843Y-14588119D01*
X13312843Y-14588119D02*
X13322366Y-14578595D01*
X13322366Y-14578595D02*
X13322366Y-14597643D01*
X13455700Y-14397643D02*
X13474747Y-14397643D01*
X13474747Y-14397643D02*
X13493795Y-14407166D01*
X13493795Y-14407166D02*
X13503319Y-14416690D01*
X13503319Y-14416690D02*
X13512843Y-14435738D01*
X13512843Y-14435738D02*
X13522366Y-14473833D01*
X13522366Y-14473833D02*
X13522366Y-14521452D01*
X13522366Y-14521452D02*
X13512843Y-14559547D01*
X13512843Y-14559547D02*
X13503319Y-14578595D01*
X13503319Y-14578595D02*
X13493795Y-14588119D01*
X13493795Y-14588119D02*
X13474747Y-14597643D01*
X13474747Y-14597643D02*
X13455700Y-14597643D01*
X13455700Y-14597643D02*
X13436652Y-14588119D01*
X13436652Y-14588119D02*
X13427128Y-14578595D01*
X13427128Y-14578595D02*
X13417605Y-14559547D01*
X13417605Y-14559547D02*
X13408081Y-14521452D01*
X13408081Y-14521452D02*
X13408081Y-14473833D01*
X13408081Y-14473833D02*
X13417605Y-14435738D01*
X13417605Y-14435738D02*
X13427128Y-14416690D01*
X13427128Y-14416690D02*
X13436652Y-14407166D01*
X13436652Y-14407166D02*
X13455700Y-14397643D01*
X13712843Y-14597643D02*
X13598557Y-14597643D01*
X13655700Y-14597643D02*
X13655700Y-14397643D01*
X13655700Y-14397643D02*
X13636652Y-14426214D01*
X13636652Y-14426214D02*
X13617605Y-14445262D01*
X13617605Y-14445262D02*
X13598557Y-14454785D01*
X13903319Y-14597643D02*
X13789033Y-14597643D01*
X13846176Y-14597643D02*
X13846176Y-14397643D01*
X13846176Y-14397643D02*
X13827128Y-14426214D01*
X13827128Y-14426214D02*
X13808081Y-14445262D01*
X13808081Y-14445262D02*
X13789033Y-14454785D01*
X14017605Y-14483357D02*
X13998557Y-14473833D01*
X13998557Y-14473833D02*
X13989033Y-14464309D01*
X13989033Y-14464309D02*
X13979509Y-14445262D01*
X13979509Y-14445262D02*
X13979509Y-14435738D01*
X13979509Y-14435738D02*
X13989033Y-14416690D01*
X13989033Y-14416690D02*
X13998557Y-14407166D01*
X13998557Y-14407166D02*
X14017605Y-14397643D01*
X14017605Y-14397643D02*
X14055700Y-14397643D01*
X14055700Y-14397643D02*
X14074747Y-14407166D01*
X14074747Y-14407166D02*
X14084271Y-14416690D01*
X14084271Y-14416690D02*
X14093795Y-14435738D01*
X14093795Y-14435738D02*
X14093795Y-14445262D01*
X14093795Y-14445262D02*
X14084271Y-14464309D01*
X14084271Y-14464309D02*
X14074747Y-14473833D01*
X14074747Y-14473833D02*
X14055700Y-14483357D01*
X14055700Y-14483357D02*
X14017605Y-14483357D01*
X14017605Y-14483357D02*
X13998557Y-14492881D01*
X13998557Y-14492881D02*
X13989033Y-14502404D01*
X13989033Y-14502404D02*
X13979509Y-14521452D01*
X13979509Y-14521452D02*
X13979509Y-14559547D01*
X13979509Y-14559547D02*
X13989033Y-14578595D01*
X13989033Y-14578595D02*
X13998557Y-14588119D01*
X13998557Y-14588119D02*
X14017605Y-14597643D01*
X14017605Y-14597643D02*
X14055700Y-14597643D01*
X14055700Y-14597643D02*
X14074747Y-14588119D01*
X14074747Y-14588119D02*
X14084271Y-14578595D01*
X14084271Y-14578595D02*
X14093795Y-14559547D01*
X14093795Y-14559547D02*
X14093795Y-14521452D01*
X14093795Y-14521452D02*
X14084271Y-14502404D01*
X14084271Y-14502404D02*
X14074747Y-14492881D01*
X14074747Y-14492881D02*
X14055700Y-14483357D01*
X14169986Y-14397643D02*
X14169986Y-14435738D01*
X14246176Y-14397643D02*
X14246176Y-14435738D01*
X14541414Y-14673833D02*
X14531890Y-14664309D01*
X14531890Y-14664309D02*
X14512843Y-14635738D01*
X14512843Y-14635738D02*
X14503319Y-14616690D01*
X14503319Y-14616690D02*
X14493795Y-14588119D01*
X14493795Y-14588119D02*
X14484271Y-14540500D01*
X14484271Y-14540500D02*
X14484271Y-14502404D01*
X14484271Y-14502404D02*
X14493795Y-14454785D01*
X14493795Y-14454785D02*
X14503319Y-14426214D01*
X14503319Y-14426214D02*
X14512843Y-14407166D01*
X14512843Y-14407166D02*
X14531890Y-14378595D01*
X14531890Y-14378595D02*
X14541414Y-14369071D01*
X14608081Y-14416690D02*
X14617605Y-14407166D01*
X14617605Y-14407166D02*
X14636652Y-14397643D01*
X14636652Y-14397643D02*
X14684271Y-14397643D01*
X14684271Y-14397643D02*
X14703319Y-14407166D01*
X14703319Y-14407166D02*
X14712843Y-14416690D01*
X14712843Y-14416690D02*
X14722367Y-14435738D01*
X14722367Y-14435738D02*
X14722367Y-14454785D01*
X14722367Y-14454785D02*
X14712843Y-14483357D01*
X14712843Y-14483357D02*
X14598557Y-14597643D01*
X14598557Y-14597643D02*
X14722367Y-14597643D01*
X14960462Y-14597643D02*
X14960462Y-14397643D01*
X15046176Y-14597643D02*
X15046176Y-14492881D01*
X15046176Y-14492881D02*
X15036652Y-14473833D01*
X15036652Y-14473833D02*
X15017605Y-14464309D01*
X15017605Y-14464309D02*
X14989033Y-14464309D01*
X14989033Y-14464309D02*
X14969986Y-14473833D01*
X14969986Y-14473833D02*
X14960462Y-14483357D01*
X15169986Y-14597643D02*
X15150938Y-14588119D01*
X15150938Y-14588119D02*
X15141414Y-14578595D01*
X15141414Y-14578595D02*
X15131890Y-14559547D01*
X15131890Y-14559547D02*
X15131890Y-14502404D01*
X15131890Y-14502404D02*
X15141414Y-14483357D01*
X15141414Y-14483357D02*
X15150938Y-14473833D01*
X15150938Y-14473833D02*
X15169986Y-14464309D01*
X15169986Y-14464309D02*
X15198557Y-14464309D01*
X15198557Y-14464309D02*
X15217605Y-14473833D01*
X15217605Y-14473833D02*
X15227129Y-14483357D01*
X15227129Y-14483357D02*
X15236652Y-14502404D01*
X15236652Y-14502404D02*
X15236652Y-14559547D01*
X15236652Y-14559547D02*
X15227129Y-14578595D01*
X15227129Y-14578595D02*
X15217605Y-14588119D01*
X15217605Y-14588119D02*
X15198557Y-14597643D01*
X15198557Y-14597643D02*
X15169986Y-14597643D01*
X15350938Y-14597643D02*
X15331890Y-14588119D01*
X15331890Y-14588119D02*
X15322367Y-14569071D01*
X15322367Y-14569071D02*
X15322367Y-14397643D01*
X15503319Y-14588119D02*
X15484271Y-14597643D01*
X15484271Y-14597643D02*
X15446176Y-14597643D01*
X15446176Y-14597643D02*
X15427129Y-14588119D01*
X15427129Y-14588119D02*
X15417605Y-14569071D01*
X15417605Y-14569071D02*
X15417605Y-14492881D01*
X15417605Y-14492881D02*
X15427129Y-14473833D01*
X15427129Y-14473833D02*
X15446176Y-14464309D01*
X15446176Y-14464309D02*
X15484271Y-14464309D01*
X15484271Y-14464309D02*
X15503319Y-14473833D01*
X15503319Y-14473833D02*
X15512843Y-14492881D01*
X15512843Y-14492881D02*
X15512843Y-14511928D01*
X15512843Y-14511928D02*
X15417605Y-14530976D01*
X15589033Y-14588119D02*
X15608081Y-14597643D01*
X15608081Y-14597643D02*
X15646176Y-14597643D01*
X15646176Y-14597643D02*
X15665224Y-14588119D01*
X15665224Y-14588119D02*
X15674748Y-14569071D01*
X15674748Y-14569071D02*
X15674748Y-14559547D01*
X15674748Y-14559547D02*
X15665224Y-14540500D01*
X15665224Y-14540500D02*
X15646176Y-14530976D01*
X15646176Y-14530976D02*
X15617605Y-14530976D01*
X15617605Y-14530976D02*
X15598557Y-14521452D01*
X15598557Y-14521452D02*
X15589033Y-14502404D01*
X15589033Y-14502404D02*
X15589033Y-14492881D01*
X15589033Y-14492881D02*
X15598557Y-14473833D01*
X15598557Y-14473833D02*
X15617605Y-14464309D01*
X15617605Y-14464309D02*
X15646176Y-14464309D01*
X15646176Y-14464309D02*
X15665224Y-14473833D01*
X15741414Y-14673833D02*
X15750938Y-14664309D01*
X15750938Y-14664309D02*
X15769986Y-14635738D01*
X15769986Y-14635738D02*
X15779510Y-14616690D01*
X15779510Y-14616690D02*
X15789033Y-14588119D01*
X15789033Y-14588119D02*
X15798557Y-14540500D01*
X15798557Y-14540500D02*
X15798557Y-14502404D01*
X15798557Y-14502404D02*
X15789033Y-14454785D01*
X15789033Y-14454785D02*
X15779510Y-14426214D01*
X15779510Y-14426214D02*
X15769986Y-14407166D01*
X15769986Y-14407166D02*
X15750938Y-14378595D01*
X15750938Y-14378595D02*
X15741414Y-14369071D01*
D12*
X10966351Y-14770159D02*
G75*
G02*
X10886351Y-14770159I-40000J0D01*
G01*
X10886351Y-14770159D02*
G75*
G02*
X10966351Y-14770159I40000J0D01*
G01*
D11*
X11265223Y-14661643D02*
X11284271Y-14661643D01*
X11284271Y-14661643D02*
X11303319Y-14671166D01*
X11303319Y-14671166D02*
X11312842Y-14680690D01*
X11312842Y-14680690D02*
X11322366Y-14699738D01*
X11322366Y-14699738D02*
X11331890Y-14737833D01*
X11331890Y-14737833D02*
X11331890Y-14785452D01*
X11331890Y-14785452D02*
X11322366Y-14823547D01*
X11322366Y-14823547D02*
X11312842Y-14842595D01*
X11312842Y-14842595D02*
X11303319Y-14852119D01*
X11303319Y-14852119D02*
X11284271Y-14861643D01*
X11284271Y-14861643D02*
X11265223Y-14861643D01*
X11265223Y-14861643D02*
X11246176Y-14852119D01*
X11246176Y-14852119D02*
X11236652Y-14842595D01*
X11236652Y-14842595D02*
X11227128Y-14823547D01*
X11227128Y-14823547D02*
X11217604Y-14785452D01*
X11217604Y-14785452D02*
X11217604Y-14737833D01*
X11217604Y-14737833D02*
X11227128Y-14699738D01*
X11227128Y-14699738D02*
X11236652Y-14680690D01*
X11236652Y-14680690D02*
X11246176Y-14671166D01*
X11246176Y-14671166D02*
X11265223Y-14661643D01*
X11417604Y-14842595D02*
X11427128Y-14852119D01*
X11427128Y-14852119D02*
X11417604Y-14861643D01*
X11417604Y-14861643D02*
X11408081Y-14852119D01*
X11408081Y-14852119D02*
X11417604Y-14842595D01*
X11417604Y-14842595D02*
X11417604Y-14861643D01*
X11541414Y-14747357D02*
X11522366Y-14737833D01*
X11522366Y-14737833D02*
X11512842Y-14728309D01*
X11512842Y-14728309D02*
X11503319Y-14709262D01*
X11503319Y-14709262D02*
X11503319Y-14699738D01*
X11503319Y-14699738D02*
X11512842Y-14680690D01*
X11512842Y-14680690D02*
X11522366Y-14671166D01*
X11522366Y-14671166D02*
X11541414Y-14661643D01*
X11541414Y-14661643D02*
X11579509Y-14661643D01*
X11579509Y-14661643D02*
X11598557Y-14671166D01*
X11598557Y-14671166D02*
X11608081Y-14680690D01*
X11608081Y-14680690D02*
X11617604Y-14699738D01*
X11617604Y-14699738D02*
X11617604Y-14709262D01*
X11617604Y-14709262D02*
X11608081Y-14728309D01*
X11608081Y-14728309D02*
X11598557Y-14737833D01*
X11598557Y-14737833D02*
X11579509Y-14747357D01*
X11579509Y-14747357D02*
X11541414Y-14747357D01*
X11541414Y-14747357D02*
X11522366Y-14756881D01*
X11522366Y-14756881D02*
X11512842Y-14766404D01*
X11512842Y-14766404D02*
X11503319Y-14785452D01*
X11503319Y-14785452D02*
X11503319Y-14823547D01*
X11503319Y-14823547D02*
X11512842Y-14842595D01*
X11512842Y-14842595D02*
X11522366Y-14852119D01*
X11522366Y-14852119D02*
X11541414Y-14861643D01*
X11541414Y-14861643D02*
X11579509Y-14861643D01*
X11579509Y-14861643D02*
X11598557Y-14852119D01*
X11598557Y-14852119D02*
X11608081Y-14842595D01*
X11608081Y-14842595D02*
X11617604Y-14823547D01*
X11617604Y-14823547D02*
X11617604Y-14785452D01*
X11617604Y-14785452D02*
X11608081Y-14766404D01*
X11608081Y-14766404D02*
X11598557Y-14756881D01*
X11598557Y-14756881D02*
X11579509Y-14747357D01*
X11741414Y-14661643D02*
X11760462Y-14661643D01*
X11760462Y-14661643D02*
X11779509Y-14671166D01*
X11779509Y-14671166D02*
X11789033Y-14680690D01*
X11789033Y-14680690D02*
X11798557Y-14699738D01*
X11798557Y-14699738D02*
X11808081Y-14737833D01*
X11808081Y-14737833D02*
X11808081Y-14785452D01*
X11808081Y-14785452D02*
X11798557Y-14823547D01*
X11798557Y-14823547D02*
X11789033Y-14842595D01*
X11789033Y-14842595D02*
X11779509Y-14852119D01*
X11779509Y-14852119D02*
X11760462Y-14861643D01*
X11760462Y-14861643D02*
X11741414Y-14861643D01*
X11741414Y-14861643D02*
X11722366Y-14852119D01*
X11722366Y-14852119D02*
X11712842Y-14842595D01*
X11712842Y-14842595D02*
X11703319Y-14823547D01*
X11703319Y-14823547D02*
X11693795Y-14785452D01*
X11693795Y-14785452D02*
X11693795Y-14737833D01*
X11693795Y-14737833D02*
X11703319Y-14699738D01*
X11703319Y-14699738D02*
X11712842Y-14680690D01*
X11712842Y-14680690D02*
X11722366Y-14671166D01*
X11722366Y-14671166D02*
X11741414Y-14661643D01*
X11931890Y-14661643D02*
X11950938Y-14661643D01*
X11950938Y-14661643D02*
X11969985Y-14671166D01*
X11969985Y-14671166D02*
X11979509Y-14680690D01*
X11979509Y-14680690D02*
X11989033Y-14699738D01*
X11989033Y-14699738D02*
X11998557Y-14737833D01*
X11998557Y-14737833D02*
X11998557Y-14785452D01*
X11998557Y-14785452D02*
X11989033Y-14823547D01*
X11989033Y-14823547D02*
X11979509Y-14842595D01*
X11979509Y-14842595D02*
X11969985Y-14852119D01*
X11969985Y-14852119D02*
X11950938Y-14861643D01*
X11950938Y-14861643D02*
X11931890Y-14861643D01*
X11931890Y-14861643D02*
X11912842Y-14852119D01*
X11912842Y-14852119D02*
X11903319Y-14842595D01*
X11903319Y-14842595D02*
X11893795Y-14823547D01*
X11893795Y-14823547D02*
X11884271Y-14785452D01*
X11884271Y-14785452D02*
X11884271Y-14737833D01*
X11884271Y-14737833D02*
X11893795Y-14699738D01*
X11893795Y-14699738D02*
X11903319Y-14680690D01*
X11903319Y-14680690D02*
X11912842Y-14671166D01*
X11912842Y-14671166D02*
X11931890Y-14661643D01*
X12084271Y-14861643D02*
X12084271Y-14728309D01*
X12084271Y-14747357D02*
X12093795Y-14737833D01*
X12093795Y-14737833D02*
X12112842Y-14728309D01*
X12112842Y-14728309D02*
X12141414Y-14728309D01*
X12141414Y-14728309D02*
X12160462Y-14737833D01*
X12160462Y-14737833D02*
X12169985Y-14756881D01*
X12169985Y-14756881D02*
X12169985Y-14861643D01*
X12169985Y-14756881D02*
X12179509Y-14737833D01*
X12179509Y-14737833D02*
X12198557Y-14728309D01*
X12198557Y-14728309D02*
X12227128Y-14728309D01*
X12227128Y-14728309D02*
X12246176Y-14737833D01*
X12246176Y-14737833D02*
X12255700Y-14756881D01*
X12255700Y-14756881D02*
X12255700Y-14861643D01*
X12350938Y-14861643D02*
X12350938Y-14728309D01*
X12350938Y-14747357D02*
X12360462Y-14737833D01*
X12360462Y-14737833D02*
X12379509Y-14728309D01*
X12379509Y-14728309D02*
X12408081Y-14728309D01*
X12408081Y-14728309D02*
X12427128Y-14737833D01*
X12427128Y-14737833D02*
X12436652Y-14756881D01*
X12436652Y-14756881D02*
X12436652Y-14861643D01*
X12436652Y-14756881D02*
X12446176Y-14737833D01*
X12446176Y-14737833D02*
X12465223Y-14728309D01*
X12465223Y-14728309D02*
X12493795Y-14728309D01*
X12493795Y-14728309D02*
X12512843Y-14737833D01*
X12512843Y-14737833D02*
X12522366Y-14756881D01*
X12522366Y-14756881D02*
X12522366Y-14861643D01*
X12912843Y-14652119D02*
X12741414Y-14909262D01*
X13169985Y-14661643D02*
X13189033Y-14661643D01*
X13189033Y-14661643D02*
X13208081Y-14671166D01*
X13208081Y-14671166D02*
X13217605Y-14680690D01*
X13217605Y-14680690D02*
X13227128Y-14699738D01*
X13227128Y-14699738D02*
X13236652Y-14737833D01*
X13236652Y-14737833D02*
X13236652Y-14785452D01*
X13236652Y-14785452D02*
X13227128Y-14823547D01*
X13227128Y-14823547D02*
X13217605Y-14842595D01*
X13217605Y-14842595D02*
X13208081Y-14852119D01*
X13208081Y-14852119D02*
X13189033Y-14861643D01*
X13189033Y-14861643D02*
X13169985Y-14861643D01*
X13169985Y-14861643D02*
X13150938Y-14852119D01*
X13150938Y-14852119D02*
X13141414Y-14842595D01*
X13141414Y-14842595D02*
X13131890Y-14823547D01*
X13131890Y-14823547D02*
X13122366Y-14785452D01*
X13122366Y-14785452D02*
X13122366Y-14737833D01*
X13122366Y-14737833D02*
X13131890Y-14699738D01*
X13131890Y-14699738D02*
X13141414Y-14680690D01*
X13141414Y-14680690D02*
X13150938Y-14671166D01*
X13150938Y-14671166D02*
X13169985Y-14661643D01*
X13322366Y-14842595D02*
X13331890Y-14852119D01*
X13331890Y-14852119D02*
X13322366Y-14861643D01*
X13322366Y-14861643D02*
X13312843Y-14852119D01*
X13312843Y-14852119D02*
X13322366Y-14842595D01*
X13322366Y-14842595D02*
X13322366Y-14861643D01*
X13455700Y-14661643D02*
X13474747Y-14661643D01*
X13474747Y-14661643D02*
X13493795Y-14671166D01*
X13493795Y-14671166D02*
X13503319Y-14680690D01*
X13503319Y-14680690D02*
X13512843Y-14699738D01*
X13512843Y-14699738D02*
X13522366Y-14737833D01*
X13522366Y-14737833D02*
X13522366Y-14785452D01*
X13522366Y-14785452D02*
X13512843Y-14823547D01*
X13512843Y-14823547D02*
X13503319Y-14842595D01*
X13503319Y-14842595D02*
X13493795Y-14852119D01*
X13493795Y-14852119D02*
X13474747Y-14861643D01*
X13474747Y-14861643D02*
X13455700Y-14861643D01*
X13455700Y-14861643D02*
X13436652Y-14852119D01*
X13436652Y-14852119D02*
X13427128Y-14842595D01*
X13427128Y-14842595D02*
X13417605Y-14823547D01*
X13417605Y-14823547D02*
X13408081Y-14785452D01*
X13408081Y-14785452D02*
X13408081Y-14737833D01*
X13408081Y-14737833D02*
X13417605Y-14699738D01*
X13417605Y-14699738D02*
X13427128Y-14680690D01*
X13427128Y-14680690D02*
X13436652Y-14671166D01*
X13436652Y-14671166D02*
X13455700Y-14661643D01*
X13589033Y-14661643D02*
X13712843Y-14661643D01*
X13712843Y-14661643D02*
X13646176Y-14737833D01*
X13646176Y-14737833D02*
X13674747Y-14737833D01*
X13674747Y-14737833D02*
X13693795Y-14747357D01*
X13693795Y-14747357D02*
X13703319Y-14756881D01*
X13703319Y-14756881D02*
X13712843Y-14775928D01*
X13712843Y-14775928D02*
X13712843Y-14823547D01*
X13712843Y-14823547D02*
X13703319Y-14842595D01*
X13703319Y-14842595D02*
X13693795Y-14852119D01*
X13693795Y-14852119D02*
X13674747Y-14861643D01*
X13674747Y-14861643D02*
X13617605Y-14861643D01*
X13617605Y-14861643D02*
X13598557Y-14852119D01*
X13598557Y-14852119D02*
X13589033Y-14842595D01*
X13903319Y-14861643D02*
X13789033Y-14861643D01*
X13846176Y-14861643D02*
X13846176Y-14661643D01*
X13846176Y-14661643D02*
X13827128Y-14690214D01*
X13827128Y-14690214D02*
X13808081Y-14709262D01*
X13808081Y-14709262D02*
X13789033Y-14718785D01*
X14084271Y-14661643D02*
X13989033Y-14661643D01*
X13989033Y-14661643D02*
X13979509Y-14756881D01*
X13979509Y-14756881D02*
X13989033Y-14747357D01*
X13989033Y-14747357D02*
X14008081Y-14737833D01*
X14008081Y-14737833D02*
X14055700Y-14737833D01*
X14055700Y-14737833D02*
X14074747Y-14747357D01*
X14074747Y-14747357D02*
X14084271Y-14756881D01*
X14084271Y-14756881D02*
X14093795Y-14775928D01*
X14093795Y-14775928D02*
X14093795Y-14823547D01*
X14093795Y-14823547D02*
X14084271Y-14842595D01*
X14084271Y-14842595D02*
X14074747Y-14852119D01*
X14074747Y-14852119D02*
X14055700Y-14861643D01*
X14055700Y-14861643D02*
X14008081Y-14861643D01*
X14008081Y-14861643D02*
X13989033Y-14852119D01*
X13989033Y-14852119D02*
X13979509Y-14842595D01*
X14169986Y-14661643D02*
X14169986Y-14699738D01*
X14246176Y-14661643D02*
X14246176Y-14699738D01*
X14541414Y-14937833D02*
X14531890Y-14928309D01*
X14531890Y-14928309D02*
X14512843Y-14899738D01*
X14512843Y-14899738D02*
X14503319Y-14880690D01*
X14503319Y-14880690D02*
X14493795Y-14852119D01*
X14493795Y-14852119D02*
X14484271Y-14804500D01*
X14484271Y-14804500D02*
X14484271Y-14766404D01*
X14484271Y-14766404D02*
X14493795Y-14718785D01*
X14493795Y-14718785D02*
X14503319Y-14690214D01*
X14503319Y-14690214D02*
X14512843Y-14671166D01*
X14512843Y-14671166D02*
X14531890Y-14642595D01*
X14531890Y-14642595D02*
X14541414Y-14633071D01*
X14722367Y-14861643D02*
X14608081Y-14861643D01*
X14665224Y-14861643D02*
X14665224Y-14661643D01*
X14665224Y-14661643D02*
X14646176Y-14690214D01*
X14646176Y-14690214D02*
X14627128Y-14709262D01*
X14627128Y-14709262D02*
X14608081Y-14718785D01*
X14893795Y-14661643D02*
X14855700Y-14661643D01*
X14855700Y-14661643D02*
X14836652Y-14671166D01*
X14836652Y-14671166D02*
X14827128Y-14680690D01*
X14827128Y-14680690D02*
X14808081Y-14709262D01*
X14808081Y-14709262D02*
X14798557Y-14747357D01*
X14798557Y-14747357D02*
X14798557Y-14823547D01*
X14798557Y-14823547D02*
X14808081Y-14842595D01*
X14808081Y-14842595D02*
X14817605Y-14852119D01*
X14817605Y-14852119D02*
X14836652Y-14861643D01*
X14836652Y-14861643D02*
X14874748Y-14861643D01*
X14874748Y-14861643D02*
X14893795Y-14852119D01*
X14893795Y-14852119D02*
X14903319Y-14842595D01*
X14903319Y-14842595D02*
X14912843Y-14823547D01*
X14912843Y-14823547D02*
X14912843Y-14775928D01*
X14912843Y-14775928D02*
X14903319Y-14756881D01*
X14903319Y-14756881D02*
X14893795Y-14747357D01*
X14893795Y-14747357D02*
X14874748Y-14737833D01*
X14874748Y-14737833D02*
X14836652Y-14737833D01*
X14836652Y-14737833D02*
X14817605Y-14747357D01*
X14817605Y-14747357D02*
X14808081Y-14756881D01*
X14808081Y-14756881D02*
X14798557Y-14775928D01*
X15150938Y-14861643D02*
X15150938Y-14661643D01*
X15236652Y-14861643D02*
X15236652Y-14756881D01*
X15236652Y-14756881D02*
X15227129Y-14737833D01*
X15227129Y-14737833D02*
X15208081Y-14728309D01*
X15208081Y-14728309D02*
X15179509Y-14728309D01*
X15179509Y-14728309D02*
X15160462Y-14737833D01*
X15160462Y-14737833D02*
X15150938Y-14747357D01*
X15360462Y-14861643D02*
X15341414Y-14852119D01*
X15341414Y-14852119D02*
X15331890Y-14842595D01*
X15331890Y-14842595D02*
X15322367Y-14823547D01*
X15322367Y-14823547D02*
X15322367Y-14766404D01*
X15322367Y-14766404D02*
X15331890Y-14747357D01*
X15331890Y-14747357D02*
X15341414Y-14737833D01*
X15341414Y-14737833D02*
X15360462Y-14728309D01*
X15360462Y-14728309D02*
X15389033Y-14728309D01*
X15389033Y-14728309D02*
X15408081Y-14737833D01*
X15408081Y-14737833D02*
X15417605Y-14747357D01*
X15417605Y-14747357D02*
X15427129Y-14766404D01*
X15427129Y-14766404D02*
X15427129Y-14823547D01*
X15427129Y-14823547D02*
X15417605Y-14842595D01*
X15417605Y-14842595D02*
X15408081Y-14852119D01*
X15408081Y-14852119D02*
X15389033Y-14861643D01*
X15389033Y-14861643D02*
X15360462Y-14861643D01*
X15541414Y-14861643D02*
X15522367Y-14852119D01*
X15522367Y-14852119D02*
X15512843Y-14833071D01*
X15512843Y-14833071D02*
X15512843Y-14661643D01*
X15693795Y-14852119D02*
X15674748Y-14861643D01*
X15674748Y-14861643D02*
X15636652Y-14861643D01*
X15636652Y-14861643D02*
X15617605Y-14852119D01*
X15617605Y-14852119D02*
X15608081Y-14833071D01*
X15608081Y-14833071D02*
X15608081Y-14756881D01*
X15608081Y-14756881D02*
X15617605Y-14737833D01*
X15617605Y-14737833D02*
X15636652Y-14728309D01*
X15636652Y-14728309D02*
X15674748Y-14728309D01*
X15674748Y-14728309D02*
X15693795Y-14737833D01*
X15693795Y-14737833D02*
X15703319Y-14756881D01*
X15703319Y-14756881D02*
X15703319Y-14775928D01*
X15703319Y-14775928D02*
X15608081Y-14794976D01*
X15779510Y-14852119D02*
X15798557Y-14861643D01*
X15798557Y-14861643D02*
X15836652Y-14861643D01*
X15836652Y-14861643D02*
X15855700Y-14852119D01*
X15855700Y-14852119D02*
X15865224Y-14833071D01*
X15865224Y-14833071D02*
X15865224Y-14823547D01*
X15865224Y-14823547D02*
X15855700Y-14804500D01*
X15855700Y-14804500D02*
X15836652Y-14794976D01*
X15836652Y-14794976D02*
X15808081Y-14794976D01*
X15808081Y-14794976D02*
X15789033Y-14785452D01*
X15789033Y-14785452D02*
X15779510Y-14766404D01*
X15779510Y-14766404D02*
X15779510Y-14756881D01*
X15779510Y-14756881D02*
X15789033Y-14737833D01*
X15789033Y-14737833D02*
X15808081Y-14728309D01*
X15808081Y-14728309D02*
X15836652Y-14728309D01*
X15836652Y-14728309D02*
X15855700Y-14737833D01*
X15931891Y-14937833D02*
X15941414Y-14928309D01*
X15941414Y-14928309D02*
X15960462Y-14899738D01*
X15960462Y-14899738D02*
X15969986Y-14880690D01*
X15969986Y-14880690D02*
X15979510Y-14852119D01*
X15979510Y-14852119D02*
X15989033Y-14804500D01*
X15989033Y-14804500D02*
X15989033Y-14766404D01*
X15989033Y-14766404D02*
X15979510Y-14718785D01*
X15979510Y-14718785D02*
X15969986Y-14690214D01*
X15969986Y-14690214D02*
X15960462Y-14671166D01*
X15960462Y-14671166D02*
X15941414Y-14642595D01*
X15941414Y-14642595D02*
X15931891Y-14633071D01*
D12*
X10921901Y-14989709D02*
X10921901Y-15078609D01*
X10877451Y-15034159D02*
X10966351Y-15034159D01*
D11*
X11265223Y-14925643D02*
X11284271Y-14925643D01*
X11284271Y-14925643D02*
X11303319Y-14935166D01*
X11303319Y-14935166D02*
X11312842Y-14944690D01*
X11312842Y-14944690D02*
X11322366Y-14963738D01*
X11322366Y-14963738D02*
X11331890Y-15001833D01*
X11331890Y-15001833D02*
X11331890Y-15049452D01*
X11331890Y-15049452D02*
X11322366Y-15087547D01*
X11322366Y-15087547D02*
X11312842Y-15106595D01*
X11312842Y-15106595D02*
X11303319Y-15116119D01*
X11303319Y-15116119D02*
X11284271Y-15125643D01*
X11284271Y-15125643D02*
X11265223Y-15125643D01*
X11265223Y-15125643D02*
X11246176Y-15116119D01*
X11246176Y-15116119D02*
X11236652Y-15106595D01*
X11236652Y-15106595D02*
X11227128Y-15087547D01*
X11227128Y-15087547D02*
X11217604Y-15049452D01*
X11217604Y-15049452D02*
X11217604Y-15001833D01*
X11217604Y-15001833D02*
X11227128Y-14963738D01*
X11227128Y-14963738D02*
X11236652Y-14944690D01*
X11236652Y-14944690D02*
X11246176Y-14935166D01*
X11246176Y-14935166D02*
X11265223Y-14925643D01*
X11417604Y-15106595D02*
X11427128Y-15116119D01*
X11427128Y-15116119D02*
X11417604Y-15125643D01*
X11417604Y-15125643D02*
X11408081Y-15116119D01*
X11408081Y-15116119D02*
X11417604Y-15106595D01*
X11417604Y-15106595D02*
X11417604Y-15125643D01*
X11541414Y-15011357D02*
X11522366Y-15001833D01*
X11522366Y-15001833D02*
X11512842Y-14992309D01*
X11512842Y-14992309D02*
X11503319Y-14973262D01*
X11503319Y-14973262D02*
X11503319Y-14963738D01*
X11503319Y-14963738D02*
X11512842Y-14944690D01*
X11512842Y-14944690D02*
X11522366Y-14935166D01*
X11522366Y-14935166D02*
X11541414Y-14925643D01*
X11541414Y-14925643D02*
X11579509Y-14925643D01*
X11579509Y-14925643D02*
X11598557Y-14935166D01*
X11598557Y-14935166D02*
X11608081Y-14944690D01*
X11608081Y-14944690D02*
X11617604Y-14963738D01*
X11617604Y-14963738D02*
X11617604Y-14973262D01*
X11617604Y-14973262D02*
X11608081Y-14992309D01*
X11608081Y-14992309D02*
X11598557Y-15001833D01*
X11598557Y-15001833D02*
X11579509Y-15011357D01*
X11579509Y-15011357D02*
X11541414Y-15011357D01*
X11541414Y-15011357D02*
X11522366Y-15020881D01*
X11522366Y-15020881D02*
X11512842Y-15030404D01*
X11512842Y-15030404D02*
X11503319Y-15049452D01*
X11503319Y-15049452D02*
X11503319Y-15087547D01*
X11503319Y-15087547D02*
X11512842Y-15106595D01*
X11512842Y-15106595D02*
X11522366Y-15116119D01*
X11522366Y-15116119D02*
X11541414Y-15125643D01*
X11541414Y-15125643D02*
X11579509Y-15125643D01*
X11579509Y-15125643D02*
X11598557Y-15116119D01*
X11598557Y-15116119D02*
X11608081Y-15106595D01*
X11608081Y-15106595D02*
X11617604Y-15087547D01*
X11617604Y-15087547D02*
X11617604Y-15049452D01*
X11617604Y-15049452D02*
X11608081Y-15030404D01*
X11608081Y-15030404D02*
X11598557Y-15020881D01*
X11598557Y-15020881D02*
X11579509Y-15011357D01*
X11731890Y-15011357D02*
X11712842Y-15001833D01*
X11712842Y-15001833D02*
X11703319Y-14992309D01*
X11703319Y-14992309D02*
X11693795Y-14973262D01*
X11693795Y-14973262D02*
X11693795Y-14963738D01*
X11693795Y-14963738D02*
X11703319Y-14944690D01*
X11703319Y-14944690D02*
X11712842Y-14935166D01*
X11712842Y-14935166D02*
X11731890Y-14925643D01*
X11731890Y-14925643D02*
X11769985Y-14925643D01*
X11769985Y-14925643D02*
X11789033Y-14935166D01*
X11789033Y-14935166D02*
X11798557Y-14944690D01*
X11798557Y-14944690D02*
X11808081Y-14963738D01*
X11808081Y-14963738D02*
X11808081Y-14973262D01*
X11808081Y-14973262D02*
X11798557Y-14992309D01*
X11798557Y-14992309D02*
X11789033Y-15001833D01*
X11789033Y-15001833D02*
X11769985Y-15011357D01*
X11769985Y-15011357D02*
X11731890Y-15011357D01*
X11731890Y-15011357D02*
X11712842Y-15020881D01*
X11712842Y-15020881D02*
X11703319Y-15030404D01*
X11703319Y-15030404D02*
X11693795Y-15049452D01*
X11693795Y-15049452D02*
X11693795Y-15087547D01*
X11693795Y-15087547D02*
X11703319Y-15106595D01*
X11703319Y-15106595D02*
X11712842Y-15116119D01*
X11712842Y-15116119D02*
X11731890Y-15125643D01*
X11731890Y-15125643D02*
X11769985Y-15125643D01*
X11769985Y-15125643D02*
X11789033Y-15116119D01*
X11789033Y-15116119D02*
X11798557Y-15106595D01*
X11798557Y-15106595D02*
X11808081Y-15087547D01*
X11808081Y-15087547D02*
X11808081Y-15049452D01*
X11808081Y-15049452D02*
X11798557Y-15030404D01*
X11798557Y-15030404D02*
X11789033Y-15020881D01*
X11789033Y-15020881D02*
X11769985Y-15011357D01*
X11903319Y-15125643D02*
X11941414Y-15125643D01*
X11941414Y-15125643D02*
X11960462Y-15116119D01*
X11960462Y-15116119D02*
X11969985Y-15106595D01*
X11969985Y-15106595D02*
X11989033Y-15078023D01*
X11989033Y-15078023D02*
X11998557Y-15039928D01*
X11998557Y-15039928D02*
X11998557Y-14963738D01*
X11998557Y-14963738D02*
X11989033Y-14944690D01*
X11989033Y-14944690D02*
X11979509Y-14935166D01*
X11979509Y-14935166D02*
X11960462Y-14925643D01*
X11960462Y-14925643D02*
X11922366Y-14925643D01*
X11922366Y-14925643D02*
X11903319Y-14935166D01*
X11903319Y-14935166D02*
X11893795Y-14944690D01*
X11893795Y-14944690D02*
X11884271Y-14963738D01*
X11884271Y-14963738D02*
X11884271Y-15011357D01*
X11884271Y-15011357D02*
X11893795Y-15030404D01*
X11893795Y-15030404D02*
X11903319Y-15039928D01*
X11903319Y-15039928D02*
X11922366Y-15049452D01*
X11922366Y-15049452D02*
X11960462Y-15049452D01*
X11960462Y-15049452D02*
X11979509Y-15039928D01*
X11979509Y-15039928D02*
X11989033Y-15030404D01*
X11989033Y-15030404D02*
X11998557Y-15011357D01*
X12084271Y-15125643D02*
X12084271Y-14992309D01*
X12084271Y-15011357D02*
X12093795Y-15001833D01*
X12093795Y-15001833D02*
X12112842Y-14992309D01*
X12112842Y-14992309D02*
X12141414Y-14992309D01*
X12141414Y-14992309D02*
X12160462Y-15001833D01*
X12160462Y-15001833D02*
X12169985Y-15020881D01*
X12169985Y-15020881D02*
X12169985Y-15125643D01*
X12169985Y-15020881D02*
X12179509Y-15001833D01*
X12179509Y-15001833D02*
X12198557Y-14992309D01*
X12198557Y-14992309D02*
X12227128Y-14992309D01*
X12227128Y-14992309D02*
X12246176Y-15001833D01*
X12246176Y-15001833D02*
X12255700Y-15020881D01*
X12255700Y-15020881D02*
X12255700Y-15125643D01*
X12350938Y-15125643D02*
X12350938Y-14992309D01*
X12350938Y-15011357D02*
X12360462Y-15001833D01*
X12360462Y-15001833D02*
X12379509Y-14992309D01*
X12379509Y-14992309D02*
X12408081Y-14992309D01*
X12408081Y-14992309D02*
X12427128Y-15001833D01*
X12427128Y-15001833D02*
X12436652Y-15020881D01*
X12436652Y-15020881D02*
X12436652Y-15125643D01*
X12436652Y-15020881D02*
X12446176Y-15001833D01*
X12446176Y-15001833D02*
X12465223Y-14992309D01*
X12465223Y-14992309D02*
X12493795Y-14992309D01*
X12493795Y-14992309D02*
X12512843Y-15001833D01*
X12512843Y-15001833D02*
X12522366Y-15020881D01*
X12522366Y-15020881D02*
X12522366Y-15125643D01*
X12912843Y-14916119D02*
X12741414Y-15173262D01*
X13169985Y-14925643D02*
X13189033Y-14925643D01*
X13189033Y-14925643D02*
X13208081Y-14935166D01*
X13208081Y-14935166D02*
X13217605Y-14944690D01*
X13217605Y-14944690D02*
X13227128Y-14963738D01*
X13227128Y-14963738D02*
X13236652Y-15001833D01*
X13236652Y-15001833D02*
X13236652Y-15049452D01*
X13236652Y-15049452D02*
X13227128Y-15087547D01*
X13227128Y-15087547D02*
X13217605Y-15106595D01*
X13217605Y-15106595D02*
X13208081Y-15116119D01*
X13208081Y-15116119D02*
X13189033Y-15125643D01*
X13189033Y-15125643D02*
X13169985Y-15125643D01*
X13169985Y-15125643D02*
X13150938Y-15116119D01*
X13150938Y-15116119D02*
X13141414Y-15106595D01*
X13141414Y-15106595D02*
X13131890Y-15087547D01*
X13131890Y-15087547D02*
X13122366Y-15049452D01*
X13122366Y-15049452D02*
X13122366Y-15001833D01*
X13122366Y-15001833D02*
X13131890Y-14963738D01*
X13131890Y-14963738D02*
X13141414Y-14944690D01*
X13141414Y-14944690D02*
X13150938Y-14935166D01*
X13150938Y-14935166D02*
X13169985Y-14925643D01*
X13322366Y-15106595D02*
X13331890Y-15116119D01*
X13331890Y-15116119D02*
X13322366Y-15125643D01*
X13322366Y-15125643D02*
X13312843Y-15116119D01*
X13312843Y-15116119D02*
X13322366Y-15106595D01*
X13322366Y-15106595D02*
X13322366Y-15125643D01*
X13455700Y-14925643D02*
X13474747Y-14925643D01*
X13474747Y-14925643D02*
X13493795Y-14935166D01*
X13493795Y-14935166D02*
X13503319Y-14944690D01*
X13503319Y-14944690D02*
X13512843Y-14963738D01*
X13512843Y-14963738D02*
X13522366Y-15001833D01*
X13522366Y-15001833D02*
X13522366Y-15049452D01*
X13522366Y-15049452D02*
X13512843Y-15087547D01*
X13512843Y-15087547D02*
X13503319Y-15106595D01*
X13503319Y-15106595D02*
X13493795Y-15116119D01*
X13493795Y-15116119D02*
X13474747Y-15125643D01*
X13474747Y-15125643D02*
X13455700Y-15125643D01*
X13455700Y-15125643D02*
X13436652Y-15116119D01*
X13436652Y-15116119D02*
X13427128Y-15106595D01*
X13427128Y-15106595D02*
X13417605Y-15087547D01*
X13417605Y-15087547D02*
X13408081Y-15049452D01*
X13408081Y-15049452D02*
X13408081Y-15001833D01*
X13408081Y-15001833D02*
X13417605Y-14963738D01*
X13417605Y-14963738D02*
X13427128Y-14944690D01*
X13427128Y-14944690D02*
X13436652Y-14935166D01*
X13436652Y-14935166D02*
X13455700Y-14925643D01*
X13589033Y-14925643D02*
X13712843Y-14925643D01*
X13712843Y-14925643D02*
X13646176Y-15001833D01*
X13646176Y-15001833D02*
X13674747Y-15001833D01*
X13674747Y-15001833D02*
X13693795Y-15011357D01*
X13693795Y-15011357D02*
X13703319Y-15020881D01*
X13703319Y-15020881D02*
X13712843Y-15039928D01*
X13712843Y-15039928D02*
X13712843Y-15087547D01*
X13712843Y-15087547D02*
X13703319Y-15106595D01*
X13703319Y-15106595D02*
X13693795Y-15116119D01*
X13693795Y-15116119D02*
X13674747Y-15125643D01*
X13674747Y-15125643D02*
X13617605Y-15125643D01*
X13617605Y-15125643D02*
X13598557Y-15116119D01*
X13598557Y-15116119D02*
X13589033Y-15106595D01*
X13893795Y-14925643D02*
X13798557Y-14925643D01*
X13798557Y-14925643D02*
X13789033Y-15020881D01*
X13789033Y-15020881D02*
X13798557Y-15011357D01*
X13798557Y-15011357D02*
X13817605Y-15001833D01*
X13817605Y-15001833D02*
X13865224Y-15001833D01*
X13865224Y-15001833D02*
X13884271Y-15011357D01*
X13884271Y-15011357D02*
X13893795Y-15020881D01*
X13893795Y-15020881D02*
X13903319Y-15039928D01*
X13903319Y-15039928D02*
X13903319Y-15087547D01*
X13903319Y-15087547D02*
X13893795Y-15106595D01*
X13893795Y-15106595D02*
X13884271Y-15116119D01*
X13884271Y-15116119D02*
X13865224Y-15125643D01*
X13865224Y-15125643D02*
X13817605Y-15125643D01*
X13817605Y-15125643D02*
X13798557Y-15116119D01*
X13798557Y-15116119D02*
X13789033Y-15106595D01*
X14027128Y-14925643D02*
X14046176Y-14925643D01*
X14046176Y-14925643D02*
X14065224Y-14935166D01*
X14065224Y-14935166D02*
X14074747Y-14944690D01*
X14074747Y-14944690D02*
X14084271Y-14963738D01*
X14084271Y-14963738D02*
X14093795Y-15001833D01*
X14093795Y-15001833D02*
X14093795Y-15049452D01*
X14093795Y-15049452D02*
X14084271Y-15087547D01*
X14084271Y-15087547D02*
X14074747Y-15106595D01*
X14074747Y-15106595D02*
X14065224Y-15116119D01*
X14065224Y-15116119D02*
X14046176Y-15125643D01*
X14046176Y-15125643D02*
X14027128Y-15125643D01*
X14027128Y-15125643D02*
X14008081Y-15116119D01*
X14008081Y-15116119D02*
X13998557Y-15106595D01*
X13998557Y-15106595D02*
X13989033Y-15087547D01*
X13989033Y-15087547D02*
X13979509Y-15049452D01*
X13979509Y-15049452D02*
X13979509Y-15001833D01*
X13979509Y-15001833D02*
X13989033Y-14963738D01*
X13989033Y-14963738D02*
X13998557Y-14944690D01*
X13998557Y-14944690D02*
X14008081Y-14935166D01*
X14008081Y-14935166D02*
X14027128Y-14925643D01*
X14169986Y-14925643D02*
X14169986Y-14963738D01*
X14246176Y-14925643D02*
X14246176Y-14963738D01*
X14541414Y-15201833D02*
X14531890Y-15192309D01*
X14531890Y-15192309D02*
X14512843Y-15163738D01*
X14512843Y-15163738D02*
X14503319Y-15144690D01*
X14503319Y-15144690D02*
X14493795Y-15116119D01*
X14493795Y-15116119D02*
X14484271Y-15068500D01*
X14484271Y-15068500D02*
X14484271Y-15030404D01*
X14484271Y-15030404D02*
X14493795Y-14982785D01*
X14493795Y-14982785D02*
X14503319Y-14954214D01*
X14503319Y-14954214D02*
X14512843Y-14935166D01*
X14512843Y-14935166D02*
X14531890Y-14906595D01*
X14531890Y-14906595D02*
X14541414Y-14897071D01*
X14722367Y-15125643D02*
X14608081Y-15125643D01*
X14665224Y-15125643D02*
X14665224Y-14925643D01*
X14665224Y-14925643D02*
X14646176Y-14954214D01*
X14646176Y-14954214D02*
X14627128Y-14973262D01*
X14627128Y-14973262D02*
X14608081Y-14982785D01*
X14893795Y-14992309D02*
X14893795Y-15125643D01*
X14846176Y-14916119D02*
X14798557Y-15058976D01*
X14798557Y-15058976D02*
X14922367Y-15058976D01*
X15150938Y-15125643D02*
X15150938Y-14925643D01*
X15236652Y-15125643D02*
X15236652Y-15020881D01*
X15236652Y-15020881D02*
X15227129Y-15001833D01*
X15227129Y-15001833D02*
X15208081Y-14992309D01*
X15208081Y-14992309D02*
X15179509Y-14992309D01*
X15179509Y-14992309D02*
X15160462Y-15001833D01*
X15160462Y-15001833D02*
X15150938Y-15011357D01*
X15360462Y-15125643D02*
X15341414Y-15116119D01*
X15341414Y-15116119D02*
X15331890Y-15106595D01*
X15331890Y-15106595D02*
X15322367Y-15087547D01*
X15322367Y-15087547D02*
X15322367Y-15030404D01*
X15322367Y-15030404D02*
X15331890Y-15011357D01*
X15331890Y-15011357D02*
X15341414Y-15001833D01*
X15341414Y-15001833D02*
X15360462Y-14992309D01*
X15360462Y-14992309D02*
X15389033Y-14992309D01*
X15389033Y-14992309D02*
X15408081Y-15001833D01*
X15408081Y-15001833D02*
X15417605Y-15011357D01*
X15417605Y-15011357D02*
X15427129Y-15030404D01*
X15427129Y-15030404D02*
X15427129Y-15087547D01*
X15427129Y-15087547D02*
X15417605Y-15106595D01*
X15417605Y-15106595D02*
X15408081Y-15116119D01*
X15408081Y-15116119D02*
X15389033Y-15125643D01*
X15389033Y-15125643D02*
X15360462Y-15125643D01*
X15541414Y-15125643D02*
X15522367Y-15116119D01*
X15522367Y-15116119D02*
X15512843Y-15097071D01*
X15512843Y-15097071D02*
X15512843Y-14925643D01*
X15693795Y-15116119D02*
X15674748Y-15125643D01*
X15674748Y-15125643D02*
X15636652Y-15125643D01*
X15636652Y-15125643D02*
X15617605Y-15116119D01*
X15617605Y-15116119D02*
X15608081Y-15097071D01*
X15608081Y-15097071D02*
X15608081Y-15020881D01*
X15608081Y-15020881D02*
X15617605Y-15001833D01*
X15617605Y-15001833D02*
X15636652Y-14992309D01*
X15636652Y-14992309D02*
X15674748Y-14992309D01*
X15674748Y-14992309D02*
X15693795Y-15001833D01*
X15693795Y-15001833D02*
X15703319Y-15020881D01*
X15703319Y-15020881D02*
X15703319Y-15039928D01*
X15703319Y-15039928D02*
X15608081Y-15058976D01*
X15779510Y-15116119D02*
X15798557Y-15125643D01*
X15798557Y-15125643D02*
X15836652Y-15125643D01*
X15836652Y-15125643D02*
X15855700Y-15116119D01*
X15855700Y-15116119D02*
X15865224Y-15097071D01*
X15865224Y-15097071D02*
X15865224Y-15087547D01*
X15865224Y-15087547D02*
X15855700Y-15068500D01*
X15855700Y-15068500D02*
X15836652Y-15058976D01*
X15836652Y-15058976D02*
X15808081Y-15058976D01*
X15808081Y-15058976D02*
X15789033Y-15049452D01*
X15789033Y-15049452D02*
X15779510Y-15030404D01*
X15779510Y-15030404D02*
X15779510Y-15020881D01*
X15779510Y-15020881D02*
X15789033Y-15001833D01*
X15789033Y-15001833D02*
X15808081Y-14992309D01*
X15808081Y-14992309D02*
X15836652Y-14992309D01*
X15836652Y-14992309D02*
X15855700Y-15001833D01*
X15931891Y-15201833D02*
X15941414Y-15192309D01*
X15941414Y-15192309D02*
X15960462Y-15163738D01*
X15960462Y-15163738D02*
X15969986Y-15144690D01*
X15969986Y-15144690D02*
X15979510Y-15116119D01*
X15979510Y-15116119D02*
X15989033Y-15068500D01*
X15989033Y-15068500D02*
X15989033Y-15030404D01*
X15989033Y-15030404D02*
X15979510Y-14982785D01*
X15979510Y-14982785D02*
X15969986Y-14954214D01*
X15969986Y-14954214D02*
X15960462Y-14935166D01*
X15960462Y-14935166D02*
X15941414Y-14906595D01*
X15941414Y-14906595D02*
X15931891Y-14897071D01*
D12*
X10951707Y-15333514D02*
X10951707Y-15262803D01*
X10880996Y-15262803D01*
X10880996Y-15333514D01*
X10951707Y-15333514D01*
D11*
X11331890Y-15389643D02*
X11217604Y-15389643D01*
X11274747Y-15389643D02*
X11274747Y-15189643D01*
X11274747Y-15189643D02*
X11255700Y-15218214D01*
X11255700Y-15218214D02*
X11236652Y-15237262D01*
X11236652Y-15237262D02*
X11217604Y-15246785D01*
X11417604Y-15370595D02*
X11427128Y-15380119D01*
X11427128Y-15380119D02*
X11417604Y-15389643D01*
X11417604Y-15389643D02*
X11408081Y-15380119D01*
X11408081Y-15380119D02*
X11417604Y-15370595D01*
X11417604Y-15370595D02*
X11417604Y-15389643D01*
X11550938Y-15189643D02*
X11569985Y-15189643D01*
X11569985Y-15189643D02*
X11589033Y-15199166D01*
X11589033Y-15199166D02*
X11598557Y-15208690D01*
X11598557Y-15208690D02*
X11608081Y-15227738D01*
X11608081Y-15227738D02*
X11617604Y-15265833D01*
X11617604Y-15265833D02*
X11617604Y-15313452D01*
X11617604Y-15313452D02*
X11608081Y-15351547D01*
X11608081Y-15351547D02*
X11598557Y-15370595D01*
X11598557Y-15370595D02*
X11589033Y-15380119D01*
X11589033Y-15380119D02*
X11569985Y-15389643D01*
X11569985Y-15389643D02*
X11550938Y-15389643D01*
X11550938Y-15389643D02*
X11531890Y-15380119D01*
X11531890Y-15380119D02*
X11522366Y-15370595D01*
X11522366Y-15370595D02*
X11512842Y-15351547D01*
X11512842Y-15351547D02*
X11503319Y-15313452D01*
X11503319Y-15313452D02*
X11503319Y-15265833D01*
X11503319Y-15265833D02*
X11512842Y-15227738D01*
X11512842Y-15227738D02*
X11522366Y-15208690D01*
X11522366Y-15208690D02*
X11531890Y-15199166D01*
X11531890Y-15199166D02*
X11550938Y-15189643D01*
X11741414Y-15189643D02*
X11760462Y-15189643D01*
X11760462Y-15189643D02*
X11779509Y-15199166D01*
X11779509Y-15199166D02*
X11789033Y-15208690D01*
X11789033Y-15208690D02*
X11798557Y-15227738D01*
X11798557Y-15227738D02*
X11808081Y-15265833D01*
X11808081Y-15265833D02*
X11808081Y-15313452D01*
X11808081Y-15313452D02*
X11798557Y-15351547D01*
X11798557Y-15351547D02*
X11789033Y-15370595D01*
X11789033Y-15370595D02*
X11779509Y-15380119D01*
X11779509Y-15380119D02*
X11760462Y-15389643D01*
X11760462Y-15389643D02*
X11741414Y-15389643D01*
X11741414Y-15389643D02*
X11722366Y-15380119D01*
X11722366Y-15380119D02*
X11712842Y-15370595D01*
X11712842Y-15370595D02*
X11703319Y-15351547D01*
X11703319Y-15351547D02*
X11693795Y-15313452D01*
X11693795Y-15313452D02*
X11693795Y-15265833D01*
X11693795Y-15265833D02*
X11703319Y-15227738D01*
X11703319Y-15227738D02*
X11712842Y-15208690D01*
X11712842Y-15208690D02*
X11722366Y-15199166D01*
X11722366Y-15199166D02*
X11741414Y-15189643D01*
X11931890Y-15189643D02*
X11950938Y-15189643D01*
X11950938Y-15189643D02*
X11969985Y-15199166D01*
X11969985Y-15199166D02*
X11979509Y-15208690D01*
X11979509Y-15208690D02*
X11989033Y-15227738D01*
X11989033Y-15227738D02*
X11998557Y-15265833D01*
X11998557Y-15265833D02*
X11998557Y-15313452D01*
X11998557Y-15313452D02*
X11989033Y-15351547D01*
X11989033Y-15351547D02*
X11979509Y-15370595D01*
X11979509Y-15370595D02*
X11969985Y-15380119D01*
X11969985Y-15380119D02*
X11950938Y-15389643D01*
X11950938Y-15389643D02*
X11931890Y-15389643D01*
X11931890Y-15389643D02*
X11912842Y-15380119D01*
X11912842Y-15380119D02*
X11903319Y-15370595D01*
X11903319Y-15370595D02*
X11893795Y-15351547D01*
X11893795Y-15351547D02*
X11884271Y-15313452D01*
X11884271Y-15313452D02*
X11884271Y-15265833D01*
X11884271Y-15265833D02*
X11893795Y-15227738D01*
X11893795Y-15227738D02*
X11903319Y-15208690D01*
X11903319Y-15208690D02*
X11912842Y-15199166D01*
X11912842Y-15199166D02*
X11931890Y-15189643D01*
X12084271Y-15389643D02*
X12084271Y-15256309D01*
X12084271Y-15275357D02*
X12093795Y-15265833D01*
X12093795Y-15265833D02*
X12112842Y-15256309D01*
X12112842Y-15256309D02*
X12141414Y-15256309D01*
X12141414Y-15256309D02*
X12160462Y-15265833D01*
X12160462Y-15265833D02*
X12169985Y-15284881D01*
X12169985Y-15284881D02*
X12169985Y-15389643D01*
X12169985Y-15284881D02*
X12179509Y-15265833D01*
X12179509Y-15265833D02*
X12198557Y-15256309D01*
X12198557Y-15256309D02*
X12227128Y-15256309D01*
X12227128Y-15256309D02*
X12246176Y-15265833D01*
X12246176Y-15265833D02*
X12255700Y-15284881D01*
X12255700Y-15284881D02*
X12255700Y-15389643D01*
X12350938Y-15389643D02*
X12350938Y-15256309D01*
X12350938Y-15275357D02*
X12360462Y-15265833D01*
X12360462Y-15265833D02*
X12379509Y-15256309D01*
X12379509Y-15256309D02*
X12408081Y-15256309D01*
X12408081Y-15256309D02*
X12427128Y-15265833D01*
X12427128Y-15265833D02*
X12436652Y-15284881D01*
X12436652Y-15284881D02*
X12436652Y-15389643D01*
X12436652Y-15284881D02*
X12446176Y-15265833D01*
X12446176Y-15265833D02*
X12465223Y-15256309D01*
X12465223Y-15256309D02*
X12493795Y-15256309D01*
X12493795Y-15256309D02*
X12512843Y-15265833D01*
X12512843Y-15265833D02*
X12522366Y-15284881D01*
X12522366Y-15284881D02*
X12522366Y-15389643D01*
X12912843Y-15180119D02*
X12741414Y-15437262D01*
X13169985Y-15189643D02*
X13189033Y-15189643D01*
X13189033Y-15189643D02*
X13208081Y-15199166D01*
X13208081Y-15199166D02*
X13217605Y-15208690D01*
X13217605Y-15208690D02*
X13227128Y-15227738D01*
X13227128Y-15227738D02*
X13236652Y-15265833D01*
X13236652Y-15265833D02*
X13236652Y-15313452D01*
X13236652Y-15313452D02*
X13227128Y-15351547D01*
X13227128Y-15351547D02*
X13217605Y-15370595D01*
X13217605Y-15370595D02*
X13208081Y-15380119D01*
X13208081Y-15380119D02*
X13189033Y-15389643D01*
X13189033Y-15389643D02*
X13169985Y-15389643D01*
X13169985Y-15389643D02*
X13150938Y-15380119D01*
X13150938Y-15380119D02*
X13141414Y-15370595D01*
X13141414Y-15370595D02*
X13131890Y-15351547D01*
X13131890Y-15351547D02*
X13122366Y-15313452D01*
X13122366Y-15313452D02*
X13122366Y-15265833D01*
X13122366Y-15265833D02*
X13131890Y-15227738D01*
X13131890Y-15227738D02*
X13141414Y-15208690D01*
X13141414Y-15208690D02*
X13150938Y-15199166D01*
X13150938Y-15199166D02*
X13169985Y-15189643D01*
X13322366Y-15370595D02*
X13331890Y-15380119D01*
X13331890Y-15380119D02*
X13322366Y-15389643D01*
X13322366Y-15389643D02*
X13312843Y-15380119D01*
X13312843Y-15380119D02*
X13322366Y-15370595D01*
X13322366Y-15370595D02*
X13322366Y-15389643D01*
X13455700Y-15189643D02*
X13474747Y-15189643D01*
X13474747Y-15189643D02*
X13493795Y-15199166D01*
X13493795Y-15199166D02*
X13503319Y-15208690D01*
X13503319Y-15208690D02*
X13512843Y-15227738D01*
X13512843Y-15227738D02*
X13522366Y-15265833D01*
X13522366Y-15265833D02*
X13522366Y-15313452D01*
X13522366Y-15313452D02*
X13512843Y-15351547D01*
X13512843Y-15351547D02*
X13503319Y-15370595D01*
X13503319Y-15370595D02*
X13493795Y-15380119D01*
X13493795Y-15380119D02*
X13474747Y-15389643D01*
X13474747Y-15389643D02*
X13455700Y-15389643D01*
X13455700Y-15389643D02*
X13436652Y-15380119D01*
X13436652Y-15380119D02*
X13427128Y-15370595D01*
X13427128Y-15370595D02*
X13417605Y-15351547D01*
X13417605Y-15351547D02*
X13408081Y-15313452D01*
X13408081Y-15313452D02*
X13408081Y-15265833D01*
X13408081Y-15265833D02*
X13417605Y-15227738D01*
X13417605Y-15227738D02*
X13427128Y-15208690D01*
X13427128Y-15208690D02*
X13436652Y-15199166D01*
X13436652Y-15199166D02*
X13455700Y-15189643D01*
X13589033Y-15189643D02*
X13712843Y-15189643D01*
X13712843Y-15189643D02*
X13646176Y-15265833D01*
X13646176Y-15265833D02*
X13674747Y-15265833D01*
X13674747Y-15265833D02*
X13693795Y-15275357D01*
X13693795Y-15275357D02*
X13703319Y-15284881D01*
X13703319Y-15284881D02*
X13712843Y-15303928D01*
X13712843Y-15303928D02*
X13712843Y-15351547D01*
X13712843Y-15351547D02*
X13703319Y-15370595D01*
X13703319Y-15370595D02*
X13693795Y-15380119D01*
X13693795Y-15380119D02*
X13674747Y-15389643D01*
X13674747Y-15389643D02*
X13617605Y-15389643D01*
X13617605Y-15389643D02*
X13598557Y-15380119D01*
X13598557Y-15380119D02*
X13589033Y-15370595D01*
X13808081Y-15389643D02*
X13846176Y-15389643D01*
X13846176Y-15389643D02*
X13865224Y-15380119D01*
X13865224Y-15380119D02*
X13874747Y-15370595D01*
X13874747Y-15370595D02*
X13893795Y-15342023D01*
X13893795Y-15342023D02*
X13903319Y-15303928D01*
X13903319Y-15303928D02*
X13903319Y-15227738D01*
X13903319Y-15227738D02*
X13893795Y-15208690D01*
X13893795Y-15208690D02*
X13884271Y-15199166D01*
X13884271Y-15199166D02*
X13865224Y-15189643D01*
X13865224Y-15189643D02*
X13827128Y-15189643D01*
X13827128Y-15189643D02*
X13808081Y-15199166D01*
X13808081Y-15199166D02*
X13798557Y-15208690D01*
X13798557Y-15208690D02*
X13789033Y-15227738D01*
X13789033Y-15227738D02*
X13789033Y-15275357D01*
X13789033Y-15275357D02*
X13798557Y-15294404D01*
X13798557Y-15294404D02*
X13808081Y-15303928D01*
X13808081Y-15303928D02*
X13827128Y-15313452D01*
X13827128Y-15313452D02*
X13865224Y-15313452D01*
X13865224Y-15313452D02*
X13884271Y-15303928D01*
X13884271Y-15303928D02*
X13893795Y-15294404D01*
X13893795Y-15294404D02*
X13903319Y-15275357D01*
X14074747Y-15256309D02*
X14074747Y-15389643D01*
X14027128Y-15180119D02*
X13979509Y-15322976D01*
X13979509Y-15322976D02*
X14103319Y-15322976D01*
X14169986Y-15189643D02*
X14169986Y-15227738D01*
X14246176Y-15189643D02*
X14246176Y-15227738D01*
X14541414Y-15465833D02*
X14531890Y-15456309D01*
X14531890Y-15456309D02*
X14512843Y-15427738D01*
X14512843Y-15427738D02*
X14503319Y-15408690D01*
X14503319Y-15408690D02*
X14493795Y-15380119D01*
X14493795Y-15380119D02*
X14484271Y-15332500D01*
X14484271Y-15332500D02*
X14484271Y-15294404D01*
X14484271Y-15294404D02*
X14493795Y-15246785D01*
X14493795Y-15246785D02*
X14503319Y-15218214D01*
X14503319Y-15218214D02*
X14512843Y-15199166D01*
X14512843Y-15199166D02*
X14531890Y-15170595D01*
X14531890Y-15170595D02*
X14541414Y-15161071D01*
X14627128Y-15389643D02*
X14665224Y-15389643D01*
X14665224Y-15389643D02*
X14684271Y-15380119D01*
X14684271Y-15380119D02*
X14693795Y-15370595D01*
X14693795Y-15370595D02*
X14712843Y-15342023D01*
X14712843Y-15342023D02*
X14722367Y-15303928D01*
X14722367Y-15303928D02*
X14722367Y-15227738D01*
X14722367Y-15227738D02*
X14712843Y-15208690D01*
X14712843Y-15208690D02*
X14703319Y-15199166D01*
X14703319Y-15199166D02*
X14684271Y-15189643D01*
X14684271Y-15189643D02*
X14646176Y-15189643D01*
X14646176Y-15189643D02*
X14627128Y-15199166D01*
X14627128Y-15199166D02*
X14617605Y-15208690D01*
X14617605Y-15208690D02*
X14608081Y-15227738D01*
X14608081Y-15227738D02*
X14608081Y-15275357D01*
X14608081Y-15275357D02*
X14617605Y-15294404D01*
X14617605Y-15294404D02*
X14627128Y-15303928D01*
X14627128Y-15303928D02*
X14646176Y-15313452D01*
X14646176Y-15313452D02*
X14684271Y-15313452D01*
X14684271Y-15313452D02*
X14703319Y-15303928D01*
X14703319Y-15303928D02*
X14712843Y-15294404D01*
X14712843Y-15294404D02*
X14722367Y-15275357D01*
X14960462Y-15389643D02*
X14960462Y-15189643D01*
X15046176Y-15389643D02*
X15046176Y-15284881D01*
X15046176Y-15284881D02*
X15036652Y-15265833D01*
X15036652Y-15265833D02*
X15017605Y-15256309D01*
X15017605Y-15256309D02*
X14989033Y-15256309D01*
X14989033Y-15256309D02*
X14969986Y-15265833D01*
X14969986Y-15265833D02*
X14960462Y-15275357D01*
X15169986Y-15389643D02*
X15150938Y-15380119D01*
X15150938Y-15380119D02*
X15141414Y-15370595D01*
X15141414Y-15370595D02*
X15131890Y-15351547D01*
X15131890Y-15351547D02*
X15131890Y-15294404D01*
X15131890Y-15294404D02*
X15141414Y-15275357D01*
X15141414Y-15275357D02*
X15150938Y-15265833D01*
X15150938Y-15265833D02*
X15169986Y-15256309D01*
X15169986Y-15256309D02*
X15198557Y-15256309D01*
X15198557Y-15256309D02*
X15217605Y-15265833D01*
X15217605Y-15265833D02*
X15227129Y-15275357D01*
X15227129Y-15275357D02*
X15236652Y-15294404D01*
X15236652Y-15294404D02*
X15236652Y-15351547D01*
X15236652Y-15351547D02*
X15227129Y-15370595D01*
X15227129Y-15370595D02*
X15217605Y-15380119D01*
X15217605Y-15380119D02*
X15198557Y-15389643D01*
X15198557Y-15389643D02*
X15169986Y-15389643D01*
X15350938Y-15389643D02*
X15331890Y-15380119D01*
X15331890Y-15380119D02*
X15322367Y-15361071D01*
X15322367Y-15361071D02*
X15322367Y-15189643D01*
X15503319Y-15380119D02*
X15484271Y-15389643D01*
X15484271Y-15389643D02*
X15446176Y-15389643D01*
X15446176Y-15389643D02*
X15427129Y-15380119D01*
X15427129Y-15380119D02*
X15417605Y-15361071D01*
X15417605Y-15361071D02*
X15417605Y-15284881D01*
X15417605Y-15284881D02*
X15427129Y-15265833D01*
X15427129Y-15265833D02*
X15446176Y-15256309D01*
X15446176Y-15256309D02*
X15484271Y-15256309D01*
X15484271Y-15256309D02*
X15503319Y-15265833D01*
X15503319Y-15265833D02*
X15512843Y-15284881D01*
X15512843Y-15284881D02*
X15512843Y-15303928D01*
X15512843Y-15303928D02*
X15417605Y-15322976D01*
X15589033Y-15380119D02*
X15608081Y-15389643D01*
X15608081Y-15389643D02*
X15646176Y-15389643D01*
X15646176Y-15389643D02*
X15665224Y-15380119D01*
X15665224Y-15380119D02*
X15674748Y-15361071D01*
X15674748Y-15361071D02*
X15674748Y-15351547D01*
X15674748Y-15351547D02*
X15665224Y-15332500D01*
X15665224Y-15332500D02*
X15646176Y-15322976D01*
X15646176Y-15322976D02*
X15617605Y-15322976D01*
X15617605Y-15322976D02*
X15598557Y-15313452D01*
X15598557Y-15313452D02*
X15589033Y-15294404D01*
X15589033Y-15294404D02*
X15589033Y-15284881D01*
X15589033Y-15284881D02*
X15598557Y-15265833D01*
X15598557Y-15265833D02*
X15617605Y-15256309D01*
X15617605Y-15256309D02*
X15646176Y-15256309D01*
X15646176Y-15256309D02*
X15665224Y-15265833D01*
X15741414Y-15465833D02*
X15750938Y-15456309D01*
X15750938Y-15456309D02*
X15769986Y-15427738D01*
X15769986Y-15427738D02*
X15779510Y-15408690D01*
X15779510Y-15408690D02*
X15789033Y-15380119D01*
X15789033Y-15380119D02*
X15798557Y-15332500D01*
X15798557Y-15332500D02*
X15798557Y-15294404D01*
X15798557Y-15294404D02*
X15789033Y-15246785D01*
X15789033Y-15246785D02*
X15779510Y-15218214D01*
X15779510Y-15218214D02*
X15769986Y-15199166D01*
X15769986Y-15199166D02*
X15750938Y-15170595D01*
X15750938Y-15170595D02*
X15741414Y-15161071D01*
D13*
X10891351Y-15637159D02*
X10966351Y-15562159D01*
X10891351Y-15487159D01*
X10816351Y-15562159D01*
X10891351Y-15637159D01*
D11*
X11331890Y-15653643D02*
X11217604Y-15653643D01*
X11274747Y-15653643D02*
X11274747Y-15453643D01*
X11274747Y-15453643D02*
X11255700Y-15482214D01*
X11255700Y-15482214D02*
X11236652Y-15501262D01*
X11236652Y-15501262D02*
X11217604Y-15510785D01*
X11417604Y-15634595D02*
X11427128Y-15644119D01*
X11427128Y-15644119D02*
X11417604Y-15653643D01*
X11417604Y-15653643D02*
X11408081Y-15644119D01*
X11408081Y-15644119D02*
X11417604Y-15634595D01*
X11417604Y-15634595D02*
X11417604Y-15653643D01*
X11608081Y-15453643D02*
X11512842Y-15453643D01*
X11512842Y-15453643D02*
X11503319Y-15548881D01*
X11503319Y-15548881D02*
X11512842Y-15539357D01*
X11512842Y-15539357D02*
X11531890Y-15529833D01*
X11531890Y-15529833D02*
X11579509Y-15529833D01*
X11579509Y-15529833D02*
X11598557Y-15539357D01*
X11598557Y-15539357D02*
X11608081Y-15548881D01*
X11608081Y-15548881D02*
X11617604Y-15567928D01*
X11617604Y-15567928D02*
X11617604Y-15615547D01*
X11617604Y-15615547D02*
X11608081Y-15634595D01*
X11608081Y-15634595D02*
X11598557Y-15644119D01*
X11598557Y-15644119D02*
X11579509Y-15653643D01*
X11579509Y-15653643D02*
X11531890Y-15653643D01*
X11531890Y-15653643D02*
X11512842Y-15644119D01*
X11512842Y-15644119D02*
X11503319Y-15634595D01*
X11741414Y-15453643D02*
X11760462Y-15453643D01*
X11760462Y-15453643D02*
X11779509Y-15463166D01*
X11779509Y-15463166D02*
X11789033Y-15472690D01*
X11789033Y-15472690D02*
X11798557Y-15491738D01*
X11798557Y-15491738D02*
X11808081Y-15529833D01*
X11808081Y-15529833D02*
X11808081Y-15577452D01*
X11808081Y-15577452D02*
X11798557Y-15615547D01*
X11798557Y-15615547D02*
X11789033Y-15634595D01*
X11789033Y-15634595D02*
X11779509Y-15644119D01*
X11779509Y-15644119D02*
X11760462Y-15653643D01*
X11760462Y-15653643D02*
X11741414Y-15653643D01*
X11741414Y-15653643D02*
X11722366Y-15644119D01*
X11722366Y-15644119D02*
X11712842Y-15634595D01*
X11712842Y-15634595D02*
X11703319Y-15615547D01*
X11703319Y-15615547D02*
X11693795Y-15577452D01*
X11693795Y-15577452D02*
X11693795Y-15529833D01*
X11693795Y-15529833D02*
X11703319Y-15491738D01*
X11703319Y-15491738D02*
X11712842Y-15472690D01*
X11712842Y-15472690D02*
X11722366Y-15463166D01*
X11722366Y-15463166D02*
X11741414Y-15453643D01*
X11931890Y-15453643D02*
X11950938Y-15453643D01*
X11950938Y-15453643D02*
X11969985Y-15463166D01*
X11969985Y-15463166D02*
X11979509Y-15472690D01*
X11979509Y-15472690D02*
X11989033Y-15491738D01*
X11989033Y-15491738D02*
X11998557Y-15529833D01*
X11998557Y-15529833D02*
X11998557Y-15577452D01*
X11998557Y-15577452D02*
X11989033Y-15615547D01*
X11989033Y-15615547D02*
X11979509Y-15634595D01*
X11979509Y-15634595D02*
X11969985Y-15644119D01*
X11969985Y-15644119D02*
X11950938Y-15653643D01*
X11950938Y-15653643D02*
X11931890Y-15653643D01*
X11931890Y-15653643D02*
X11912842Y-15644119D01*
X11912842Y-15644119D02*
X11903319Y-15634595D01*
X11903319Y-15634595D02*
X11893795Y-15615547D01*
X11893795Y-15615547D02*
X11884271Y-15577452D01*
X11884271Y-15577452D02*
X11884271Y-15529833D01*
X11884271Y-15529833D02*
X11893795Y-15491738D01*
X11893795Y-15491738D02*
X11903319Y-15472690D01*
X11903319Y-15472690D02*
X11912842Y-15463166D01*
X11912842Y-15463166D02*
X11931890Y-15453643D01*
X12084271Y-15653643D02*
X12084271Y-15520309D01*
X12084271Y-15539357D02*
X12093795Y-15529833D01*
X12093795Y-15529833D02*
X12112842Y-15520309D01*
X12112842Y-15520309D02*
X12141414Y-15520309D01*
X12141414Y-15520309D02*
X12160462Y-15529833D01*
X12160462Y-15529833D02*
X12169985Y-15548881D01*
X12169985Y-15548881D02*
X12169985Y-15653643D01*
X12169985Y-15548881D02*
X12179509Y-15529833D01*
X12179509Y-15529833D02*
X12198557Y-15520309D01*
X12198557Y-15520309D02*
X12227128Y-15520309D01*
X12227128Y-15520309D02*
X12246176Y-15529833D01*
X12246176Y-15529833D02*
X12255700Y-15548881D01*
X12255700Y-15548881D02*
X12255700Y-15653643D01*
X12350938Y-15653643D02*
X12350938Y-15520309D01*
X12350938Y-15539357D02*
X12360462Y-15529833D01*
X12360462Y-15529833D02*
X12379509Y-15520309D01*
X12379509Y-15520309D02*
X12408081Y-15520309D01*
X12408081Y-15520309D02*
X12427128Y-15529833D01*
X12427128Y-15529833D02*
X12436652Y-15548881D01*
X12436652Y-15548881D02*
X12436652Y-15653643D01*
X12436652Y-15548881D02*
X12446176Y-15529833D01*
X12446176Y-15529833D02*
X12465223Y-15520309D01*
X12465223Y-15520309D02*
X12493795Y-15520309D01*
X12493795Y-15520309D02*
X12512843Y-15529833D01*
X12512843Y-15529833D02*
X12522366Y-15548881D01*
X12522366Y-15548881D02*
X12522366Y-15653643D01*
X12912843Y-15444119D02*
X12741414Y-15701262D01*
X13169985Y-15453643D02*
X13189033Y-15453643D01*
X13189033Y-15453643D02*
X13208081Y-15463166D01*
X13208081Y-15463166D02*
X13217605Y-15472690D01*
X13217605Y-15472690D02*
X13227128Y-15491738D01*
X13227128Y-15491738D02*
X13236652Y-15529833D01*
X13236652Y-15529833D02*
X13236652Y-15577452D01*
X13236652Y-15577452D02*
X13227128Y-15615547D01*
X13227128Y-15615547D02*
X13217605Y-15634595D01*
X13217605Y-15634595D02*
X13208081Y-15644119D01*
X13208081Y-15644119D02*
X13189033Y-15653643D01*
X13189033Y-15653643D02*
X13169985Y-15653643D01*
X13169985Y-15653643D02*
X13150938Y-15644119D01*
X13150938Y-15644119D02*
X13141414Y-15634595D01*
X13141414Y-15634595D02*
X13131890Y-15615547D01*
X13131890Y-15615547D02*
X13122366Y-15577452D01*
X13122366Y-15577452D02*
X13122366Y-15529833D01*
X13122366Y-15529833D02*
X13131890Y-15491738D01*
X13131890Y-15491738D02*
X13141414Y-15472690D01*
X13141414Y-15472690D02*
X13150938Y-15463166D01*
X13150938Y-15463166D02*
X13169985Y-15453643D01*
X13322366Y-15634595D02*
X13331890Y-15644119D01*
X13331890Y-15644119D02*
X13322366Y-15653643D01*
X13322366Y-15653643D02*
X13312843Y-15644119D01*
X13312843Y-15644119D02*
X13322366Y-15634595D01*
X13322366Y-15634595D02*
X13322366Y-15653643D01*
X13455700Y-15453643D02*
X13474747Y-15453643D01*
X13474747Y-15453643D02*
X13493795Y-15463166D01*
X13493795Y-15463166D02*
X13503319Y-15472690D01*
X13503319Y-15472690D02*
X13512843Y-15491738D01*
X13512843Y-15491738D02*
X13522366Y-15529833D01*
X13522366Y-15529833D02*
X13522366Y-15577452D01*
X13522366Y-15577452D02*
X13512843Y-15615547D01*
X13512843Y-15615547D02*
X13503319Y-15634595D01*
X13503319Y-15634595D02*
X13493795Y-15644119D01*
X13493795Y-15644119D02*
X13474747Y-15653643D01*
X13474747Y-15653643D02*
X13455700Y-15653643D01*
X13455700Y-15653643D02*
X13436652Y-15644119D01*
X13436652Y-15644119D02*
X13427128Y-15634595D01*
X13427128Y-15634595D02*
X13417605Y-15615547D01*
X13417605Y-15615547D02*
X13408081Y-15577452D01*
X13408081Y-15577452D02*
X13408081Y-15529833D01*
X13408081Y-15529833D02*
X13417605Y-15491738D01*
X13417605Y-15491738D02*
X13427128Y-15472690D01*
X13427128Y-15472690D02*
X13436652Y-15463166D01*
X13436652Y-15463166D02*
X13455700Y-15453643D01*
X13703319Y-15453643D02*
X13608081Y-15453643D01*
X13608081Y-15453643D02*
X13598557Y-15548881D01*
X13598557Y-15548881D02*
X13608081Y-15539357D01*
X13608081Y-15539357D02*
X13627128Y-15529833D01*
X13627128Y-15529833D02*
X13674747Y-15529833D01*
X13674747Y-15529833D02*
X13693795Y-15539357D01*
X13693795Y-15539357D02*
X13703319Y-15548881D01*
X13703319Y-15548881D02*
X13712843Y-15567928D01*
X13712843Y-15567928D02*
X13712843Y-15615547D01*
X13712843Y-15615547D02*
X13703319Y-15634595D01*
X13703319Y-15634595D02*
X13693795Y-15644119D01*
X13693795Y-15644119D02*
X13674747Y-15653643D01*
X13674747Y-15653643D02*
X13627128Y-15653643D01*
X13627128Y-15653643D02*
X13608081Y-15644119D01*
X13608081Y-15644119D02*
X13598557Y-15634595D01*
X13808081Y-15653643D02*
X13846176Y-15653643D01*
X13846176Y-15653643D02*
X13865224Y-15644119D01*
X13865224Y-15644119D02*
X13874747Y-15634595D01*
X13874747Y-15634595D02*
X13893795Y-15606023D01*
X13893795Y-15606023D02*
X13903319Y-15567928D01*
X13903319Y-15567928D02*
X13903319Y-15491738D01*
X13903319Y-15491738D02*
X13893795Y-15472690D01*
X13893795Y-15472690D02*
X13884271Y-15463166D01*
X13884271Y-15463166D02*
X13865224Y-15453643D01*
X13865224Y-15453643D02*
X13827128Y-15453643D01*
X13827128Y-15453643D02*
X13808081Y-15463166D01*
X13808081Y-15463166D02*
X13798557Y-15472690D01*
X13798557Y-15472690D02*
X13789033Y-15491738D01*
X13789033Y-15491738D02*
X13789033Y-15539357D01*
X13789033Y-15539357D02*
X13798557Y-15558404D01*
X13798557Y-15558404D02*
X13808081Y-15567928D01*
X13808081Y-15567928D02*
X13827128Y-15577452D01*
X13827128Y-15577452D02*
X13865224Y-15577452D01*
X13865224Y-15577452D02*
X13884271Y-15567928D01*
X13884271Y-15567928D02*
X13893795Y-15558404D01*
X13893795Y-15558404D02*
X13903319Y-15539357D01*
X14093795Y-15653643D02*
X13979509Y-15653643D01*
X14036652Y-15653643D02*
X14036652Y-15453643D01*
X14036652Y-15453643D02*
X14017605Y-15482214D01*
X14017605Y-15482214D02*
X13998557Y-15501262D01*
X13998557Y-15501262D02*
X13979509Y-15510785D01*
X14169986Y-15453643D02*
X14169986Y-15491738D01*
X14246176Y-15453643D02*
X14246176Y-15491738D01*
X14541414Y-15729833D02*
X14531890Y-15720309D01*
X14531890Y-15720309D02*
X14512843Y-15691738D01*
X14512843Y-15691738D02*
X14503319Y-15672690D01*
X14503319Y-15672690D02*
X14493795Y-15644119D01*
X14493795Y-15644119D02*
X14484271Y-15596500D01*
X14484271Y-15596500D02*
X14484271Y-15558404D01*
X14484271Y-15558404D02*
X14493795Y-15510785D01*
X14493795Y-15510785D02*
X14503319Y-15482214D01*
X14503319Y-15482214D02*
X14512843Y-15463166D01*
X14512843Y-15463166D02*
X14531890Y-15434595D01*
X14531890Y-15434595D02*
X14541414Y-15425071D01*
X14722367Y-15653643D02*
X14608081Y-15653643D01*
X14665224Y-15653643D02*
X14665224Y-15453643D01*
X14665224Y-15453643D02*
X14646176Y-15482214D01*
X14646176Y-15482214D02*
X14627128Y-15501262D01*
X14627128Y-15501262D02*
X14608081Y-15510785D01*
X14893795Y-15453643D02*
X14855700Y-15453643D01*
X14855700Y-15453643D02*
X14836652Y-15463166D01*
X14836652Y-15463166D02*
X14827128Y-15472690D01*
X14827128Y-15472690D02*
X14808081Y-15501262D01*
X14808081Y-15501262D02*
X14798557Y-15539357D01*
X14798557Y-15539357D02*
X14798557Y-15615547D01*
X14798557Y-15615547D02*
X14808081Y-15634595D01*
X14808081Y-15634595D02*
X14817605Y-15644119D01*
X14817605Y-15644119D02*
X14836652Y-15653643D01*
X14836652Y-15653643D02*
X14874748Y-15653643D01*
X14874748Y-15653643D02*
X14893795Y-15644119D01*
X14893795Y-15644119D02*
X14903319Y-15634595D01*
X14903319Y-15634595D02*
X14912843Y-15615547D01*
X14912843Y-15615547D02*
X14912843Y-15567928D01*
X14912843Y-15567928D02*
X14903319Y-15548881D01*
X14903319Y-15548881D02*
X14893795Y-15539357D01*
X14893795Y-15539357D02*
X14874748Y-15529833D01*
X14874748Y-15529833D02*
X14836652Y-15529833D01*
X14836652Y-15529833D02*
X14817605Y-15539357D01*
X14817605Y-15539357D02*
X14808081Y-15548881D01*
X14808081Y-15548881D02*
X14798557Y-15567928D01*
X15150938Y-15653643D02*
X15150938Y-15453643D01*
X15236652Y-15653643D02*
X15236652Y-15548881D01*
X15236652Y-15548881D02*
X15227129Y-15529833D01*
X15227129Y-15529833D02*
X15208081Y-15520309D01*
X15208081Y-15520309D02*
X15179509Y-15520309D01*
X15179509Y-15520309D02*
X15160462Y-15529833D01*
X15160462Y-15529833D02*
X15150938Y-15539357D01*
X15360462Y-15653643D02*
X15341414Y-15644119D01*
X15341414Y-15644119D02*
X15331890Y-15634595D01*
X15331890Y-15634595D02*
X15322367Y-15615547D01*
X15322367Y-15615547D02*
X15322367Y-15558404D01*
X15322367Y-15558404D02*
X15331890Y-15539357D01*
X15331890Y-15539357D02*
X15341414Y-15529833D01*
X15341414Y-15529833D02*
X15360462Y-15520309D01*
X15360462Y-15520309D02*
X15389033Y-15520309D01*
X15389033Y-15520309D02*
X15408081Y-15529833D01*
X15408081Y-15529833D02*
X15417605Y-15539357D01*
X15417605Y-15539357D02*
X15427129Y-15558404D01*
X15427129Y-15558404D02*
X15427129Y-15615547D01*
X15427129Y-15615547D02*
X15417605Y-15634595D01*
X15417605Y-15634595D02*
X15408081Y-15644119D01*
X15408081Y-15644119D02*
X15389033Y-15653643D01*
X15389033Y-15653643D02*
X15360462Y-15653643D01*
X15541414Y-15653643D02*
X15522367Y-15644119D01*
X15522367Y-15644119D02*
X15512843Y-15625071D01*
X15512843Y-15625071D02*
X15512843Y-15453643D01*
X15693795Y-15644119D02*
X15674748Y-15653643D01*
X15674748Y-15653643D02*
X15636652Y-15653643D01*
X15636652Y-15653643D02*
X15617605Y-15644119D01*
X15617605Y-15644119D02*
X15608081Y-15625071D01*
X15608081Y-15625071D02*
X15608081Y-15548881D01*
X15608081Y-15548881D02*
X15617605Y-15529833D01*
X15617605Y-15529833D02*
X15636652Y-15520309D01*
X15636652Y-15520309D02*
X15674748Y-15520309D01*
X15674748Y-15520309D02*
X15693795Y-15529833D01*
X15693795Y-15529833D02*
X15703319Y-15548881D01*
X15703319Y-15548881D02*
X15703319Y-15567928D01*
X15703319Y-15567928D02*
X15608081Y-15586976D01*
X15779510Y-15644119D02*
X15798557Y-15653643D01*
X15798557Y-15653643D02*
X15836652Y-15653643D01*
X15836652Y-15653643D02*
X15855700Y-15644119D01*
X15855700Y-15644119D02*
X15865224Y-15625071D01*
X15865224Y-15625071D02*
X15865224Y-15615547D01*
X15865224Y-15615547D02*
X15855700Y-15596500D01*
X15855700Y-15596500D02*
X15836652Y-15586976D01*
X15836652Y-15586976D02*
X15808081Y-15586976D01*
X15808081Y-15586976D02*
X15789033Y-15577452D01*
X15789033Y-15577452D02*
X15779510Y-15558404D01*
X15779510Y-15558404D02*
X15779510Y-15548881D01*
X15779510Y-15548881D02*
X15789033Y-15529833D01*
X15789033Y-15529833D02*
X15808081Y-15520309D01*
X15808081Y-15520309D02*
X15836652Y-15520309D01*
X15836652Y-15520309D02*
X15855700Y-15529833D01*
X16103319Y-15577452D02*
X16255700Y-15577452D01*
X16179510Y-15653643D02*
X16179510Y-15501262D01*
X16493795Y-15472690D02*
X16503319Y-15463166D01*
X16503319Y-15463166D02*
X16522367Y-15453643D01*
X16522367Y-15453643D02*
X16569986Y-15453643D01*
X16569986Y-15453643D02*
X16589033Y-15463166D01*
X16589033Y-15463166D02*
X16598557Y-15472690D01*
X16598557Y-15472690D02*
X16608081Y-15491738D01*
X16608081Y-15491738D02*
X16608081Y-15510785D01*
X16608081Y-15510785D02*
X16598557Y-15539357D01*
X16598557Y-15539357D02*
X16484272Y-15653643D01*
X16484272Y-15653643D02*
X16608081Y-15653643D01*
X16836653Y-15644119D02*
X16855700Y-15653643D01*
X16855700Y-15653643D02*
X16893795Y-15653643D01*
X16893795Y-15653643D02*
X16912843Y-15644119D01*
X16912843Y-15644119D02*
X16922367Y-15625071D01*
X16922367Y-15625071D02*
X16922367Y-15615547D01*
X16922367Y-15615547D02*
X16912843Y-15596500D01*
X16912843Y-15596500D02*
X16893795Y-15586976D01*
X16893795Y-15586976D02*
X16865224Y-15586976D01*
X16865224Y-15586976D02*
X16846176Y-15577452D01*
X16846176Y-15577452D02*
X16836653Y-15558404D01*
X16836653Y-15558404D02*
X16836653Y-15548881D01*
X16836653Y-15548881D02*
X16846176Y-15529833D01*
X16846176Y-15529833D02*
X16865224Y-15520309D01*
X16865224Y-15520309D02*
X16893795Y-15520309D01*
X16893795Y-15520309D02*
X16912843Y-15529833D01*
X17036653Y-15653643D02*
X17017605Y-15644119D01*
X17017605Y-15644119D02*
X17008081Y-15625071D01*
X17008081Y-15625071D02*
X17008081Y-15453643D01*
X17141415Y-15653643D02*
X17122367Y-15644119D01*
X17122367Y-15644119D02*
X17112843Y-15634595D01*
X17112843Y-15634595D02*
X17103319Y-15615547D01*
X17103319Y-15615547D02*
X17103319Y-15558404D01*
X17103319Y-15558404D02*
X17112843Y-15539357D01*
X17112843Y-15539357D02*
X17122367Y-15529833D01*
X17122367Y-15529833D02*
X17141415Y-15520309D01*
X17141415Y-15520309D02*
X17169986Y-15520309D01*
X17169986Y-15520309D02*
X17189034Y-15529833D01*
X17189034Y-15529833D02*
X17198557Y-15539357D01*
X17198557Y-15539357D02*
X17208081Y-15558404D01*
X17208081Y-15558404D02*
X17208081Y-15615547D01*
X17208081Y-15615547D02*
X17198557Y-15634595D01*
X17198557Y-15634595D02*
X17189034Y-15644119D01*
X17189034Y-15644119D02*
X17169986Y-15653643D01*
X17169986Y-15653643D02*
X17141415Y-15653643D01*
X17265224Y-15520309D02*
X17341415Y-15520309D01*
X17293796Y-15453643D02*
X17293796Y-15625071D01*
X17293796Y-15625071D02*
X17303319Y-15644119D01*
X17303319Y-15644119D02*
X17322367Y-15653643D01*
X17322367Y-15653643D02*
X17341415Y-15653643D01*
X17398557Y-15644119D02*
X17417605Y-15653643D01*
X17417605Y-15653643D02*
X17455700Y-15653643D01*
X17455700Y-15653643D02*
X17474748Y-15644119D01*
X17474748Y-15644119D02*
X17484272Y-15625071D01*
X17484272Y-15625071D02*
X17484272Y-15615547D01*
X17484272Y-15615547D02*
X17474748Y-15596500D01*
X17474748Y-15596500D02*
X17455700Y-15586976D01*
X17455700Y-15586976D02*
X17427129Y-15586976D01*
X17427129Y-15586976D02*
X17408081Y-15577452D01*
X17408081Y-15577452D02*
X17398557Y-15558404D01*
X17398557Y-15558404D02*
X17398557Y-15548881D01*
X17398557Y-15548881D02*
X17408081Y-15529833D01*
X17408081Y-15529833D02*
X17427129Y-15520309D01*
X17427129Y-15520309D02*
X17455700Y-15520309D01*
X17455700Y-15520309D02*
X17474748Y-15529833D01*
X17550938Y-15729833D02*
X17560462Y-15720309D01*
X17560462Y-15720309D02*
X17579510Y-15691738D01*
X17579510Y-15691738D02*
X17589034Y-15672690D01*
X17589034Y-15672690D02*
X17598557Y-15644119D01*
X17598557Y-15644119D02*
X17608081Y-15596500D01*
X17608081Y-15596500D02*
X17608081Y-15558404D01*
X17608081Y-15558404D02*
X17598557Y-15510785D01*
X17598557Y-15510785D02*
X17589034Y-15482214D01*
X17589034Y-15482214D02*
X17579510Y-15463166D01*
X17579510Y-15463166D02*
X17560462Y-15434595D01*
X17560462Y-15434595D02*
X17550938Y-15425071D01*
M02*
