M48
; DRILL file {KiCad 9.0.1} date 2025-06-18T17:33:09-0400
; FORMAT={-:-/ absolute / metric / decimal}
; #@! TF.CreationDate,2025-06-18T17:33:09-04:00
; #@! TF.GenerationSoftware,Kicad,Pcbnew,9.0.1
; #@! TF.FileFunction,NonPlated,1,2,NPTH
FMAT,2
METRIC
; #@! TA.AperFunction,NonPlated,NPTH,ComponentDrill
T1C1.700
; #@! TA.AperFunction,NonPlated,NPTH,ComponentDrill
T2C4.000
%
G90
G05
T1
X116.841Y-76.0
X116.841Y-122.5
X116.881Y-99.08
X127.001Y-76.0
X127.001Y-122.5
X127.041Y-99.08
X135.841Y-76.0
X136.191Y-122.5
X136.231Y-99.08
X146.001Y-76.0
X146.351Y-122.5
X146.391Y-99.08
X155.191Y-122.59
X155.231Y-99.17
X165.351Y-122.59
X165.391Y-99.17
T2
X121.921Y-76.0
X121.921Y-122.5
X121.961Y-99.08
X140.921Y-76.0
X141.271Y-122.5
X141.311Y-99.08
X160.271Y-122.59
X160.311Y-99.17
M30
