G04 #@! TF.GenerationSoftware,KiCad,Pcbnew,9.0.1*
G04 #@! TF.CreationDate,2025-06-18T17:33:08-04:00*
G04 #@! TF.ProjectId,chop up the soul kanye,63686f70-2075-4702-9074-686520736f75,rev?*
G04 #@! TF.SameCoordinates,Original*
G04 #@! TF.FileFunction,Soldermask,Top*
G04 #@! TF.FilePolarity,Negative*
%FSLAX46Y46*%
G04 Gerber Fmt 4.6, Leading zero omitted, Abs format (unit mm)*
G04 Created by KiCad (PCBNEW 9.0.1) date 2025-06-18 17:33:08*
%MOMM*%
%LPD*%
G01*
G04 APERTURE LIST*
G04 Aperture macros list*
%AMRoundRect*
0 Rectangle with rounded corners*
0 $1 Rounding radius*
0 $2 $3 $4 $5 $6 $7 $8 $9 X,Y pos of 4 corners*
0 Add a 4 corners polygon primitive as box body*
4,1,4,$2,$3,$4,$5,$6,$7,$8,$9,$2,$3,0*
0 Add four circle primitives for the rounded corners*
1,1,$1+$1,$2,$3*
1,1,$1+$1,$4,$5*
1,1,$1+$1,$6,$7*
1,1,$1+$1,$8,$9*
0 Add four rect primitives between the rounded corners*
20,1,$1+$1,$2,$3,$4,$5,0*
20,1,$1+$1,$4,$5,$6,$7,0*
20,1,$1+$1,$6,$7,$8,$9,0*
20,1,$1+$1,$8,$9,$2,$3,0*%
G04 Aperture macros list end*
%ADD10R,1.600000X1.600000*%
%ADD11O,1.600000X1.600000*%
%ADD12C,1.700000*%
%ADD13C,4.000000*%
%ADD14C,2.200000*%
%ADD15C,1.500000*%
%ADD16R,2.000000X2.000000*%
%ADD17C,2.000000*%
%ADD18R,3.200000X2.000000*%
%ADD19R,1.700000X1.700000*%
%ADD20O,1.700000X1.700000*%
%ADD21RoundRect,0.152400X0.609600X-1.063600X0.609600X1.063600X-0.609600X1.063600X-0.609600X-1.063600X0*%
%ADD22C,1.524000*%
%ADD23RoundRect,0.152400X-0.609600X1.063600X-0.609600X-1.063600X0.609600X-1.063600X0.609600X1.063600X0*%
G04 APERTURE END LIST*
D10*
G04 #@! TO.C,D10*
X119191487Y-87500000D03*
D11*
X126811487Y-87500000D03*
G04 #@! TD*
D10*
G04 #@! TO.C,D6*
X139191487Y-134000000D03*
D11*
X146811487Y-134000000D03*
G04 #@! TD*
D10*
G04 #@! TO.C,D4*
X117691487Y-134500000D03*
D11*
X125311487Y-134500000D03*
G04 #@! TD*
D12*
G04 #@! TO.C,SW9*
X155191487Y-122590000D03*
D13*
X160271487Y-122590000D03*
D12*
X165351487Y-122590000D03*
D14*
X162811487Y-117510000D03*
X156461487Y-120050000D03*
G04 #@! TD*
D12*
G04 #@! TO.C,SW7*
X136191487Y-122500000D03*
D13*
X141271487Y-122500000D03*
D12*
X146351487Y-122500000D03*
D14*
X143811487Y-117420000D03*
X137461487Y-119960000D03*
G04 #@! TD*
D15*
G04 #@! TO.C,SW1*
X174686487Y-70170000D03*
X174686487Y-75170000D03*
D16*
X160186487Y-70170000D03*
D17*
X160186487Y-75170000D03*
X160186487Y-72670000D03*
D18*
X167686487Y-67070000D03*
X167686487Y-78270000D03*
G04 #@! TD*
D10*
G04 #@! TO.C,D9*
X139191487Y-88000000D03*
D11*
X146811487Y-88000000D03*
G04 #@! TD*
D12*
G04 #@! TO.C,SW6*
X136231487Y-99080000D03*
D13*
X141311487Y-99080000D03*
D12*
X146391487Y-99080000D03*
D14*
X143851487Y-94000000D03*
X137501487Y-96540000D03*
G04 #@! TD*
D12*
G04 #@! TO.C,SW8*
X155231487Y-99170000D03*
D13*
X160311487Y-99170000D03*
D12*
X165391487Y-99170000D03*
D14*
X162851487Y-94090000D03*
X156501487Y-96630000D03*
G04 #@! TD*
D12*
G04 #@! TO.C,SW3*
X116881487Y-99080000D03*
D13*
X121961487Y-99080000D03*
D12*
X127041487Y-99080000D03*
D14*
X124501487Y-94000000D03*
X118151487Y-96540000D03*
G04 #@! TD*
D10*
G04 #@! TO.C,D2*
X118691487Y-111000000D03*
D11*
X126311487Y-111000000D03*
G04 #@! TD*
D10*
G04 #@! TO.C,D8*
X157691487Y-134000000D03*
D11*
X165311487Y-134000000D03*
G04 #@! TD*
D10*
G04 #@! TO.C,D7*
X157191487Y-110500000D03*
D11*
X164811487Y-110500000D03*
G04 #@! TD*
D12*
G04 #@! TO.C,SW11*
X116841487Y-76000000D03*
D13*
X121921487Y-76000000D03*
D12*
X127001487Y-76000000D03*
D14*
X124461487Y-70920000D03*
X118111487Y-73460000D03*
G04 #@! TD*
D19*
G04 #@! TO.C,J1*
X158311487Y-48960000D03*
D20*
X158311487Y-51500000D03*
X158311487Y-54040000D03*
X158311487Y-56580000D03*
G04 #@! TD*
D21*
G04 #@! TO.C,U1*
X182311487Y-41925000D03*
D22*
X182311487Y-42760000D03*
D21*
X179771487Y-41925000D03*
D22*
X179771487Y-42760000D03*
D21*
X177231487Y-41925000D03*
D22*
X177231487Y-42760000D03*
D21*
X174691487Y-41925000D03*
D22*
X174691487Y-42760000D03*
D21*
X172151487Y-41925000D03*
D22*
X172151487Y-42760000D03*
D21*
X169611487Y-41925000D03*
D22*
X169611487Y-42760000D03*
D21*
X167071487Y-41925000D03*
D22*
X167071487Y-42760000D03*
X167071487Y-58000000D03*
D23*
X167071487Y-58835000D03*
D22*
X169611487Y-58000000D03*
D23*
X169611487Y-58835000D03*
D22*
X172151487Y-58000000D03*
D23*
X172151487Y-58835000D03*
D22*
X174691487Y-58000000D03*
D23*
X174691487Y-58835000D03*
D22*
X177231487Y-58000000D03*
D23*
X177231487Y-58835000D03*
D22*
X179771487Y-58000000D03*
D23*
X179771487Y-58835000D03*
D22*
X182311487Y-58000000D03*
D23*
X182311487Y-58835000D03*
G04 #@! TD*
D12*
G04 #@! TO.C,SW5*
X116841487Y-122500000D03*
D13*
X121921487Y-122500000D03*
D12*
X127001487Y-122500000D03*
D14*
X124461487Y-117420000D03*
X118111487Y-119960000D03*
G04 #@! TD*
D10*
G04 #@! TO.C,D5*
X138691487Y-110500000D03*
D11*
X146311487Y-110500000D03*
G04 #@! TD*
D12*
G04 #@! TO.C,SW10*
X135841487Y-76000000D03*
D13*
X140921487Y-76000000D03*
D12*
X146001487Y-76000000D03*
D14*
X143461487Y-70920000D03*
X137111487Y-73460000D03*
G04 #@! TD*
M02*
